<?xml version="1.0" encoding="utf-8" standalone="no"?>
<!DOCTYPE svg PUBLIC "-//W3C//DTD SVG 1.1//EN"
  "http://www.w3.org/Graphics/SVG/1.1/DTD/svg11.dtd">
<svg xmlns:xlink="http://www.w3.org/1999/xlink" width="494.22125pt" height="328.902437pt" viewBox="0 0 494.22125 328.902437" xmlns="http://www.w3.org/2000/svg" version="1.1">
 <metadata>
  <rdf:RDF xmlns:dc="http://purl.org/dc/elements/1.1/" xmlns:cc="http://creativecommons.org/ns#" xmlns:rdf="http://www.w3.org/1999/02/22-rdf-syntax-ns#">
   <cc:Work>
    <dc:type rdf:resource="http://purl.org/dc/dcmitype/StillImage"/>
    <dc:date>2024-07-24T14:24:34.894465</dc:date>
    <dc:format>image/svg+xml</dc:format>
    <dc:creator>
     <cc:Agent>
      <dc:title>Matplotlib v3.8.0, https://matplotlib.org/</dc:title>
     </cc:Agent>
    </dc:creator>
   </cc:Work>
  </rdf:RDF>
 </metadata>
 <defs>
  <style type="text/css">*{stroke-linejoin: round; stroke-linecap: butt}</style>
 </defs>
 <g id="figure_1">
  <g id="patch_1">
   <path d="M 0 328.902437 
L 494.22125 328.902437 
L 494.22125 0 
L 0 0 
z
" style="fill: #ffffff"/>
  </g>
  <g id="axes_1">
   <g id="patch_2">
    <path d="M 66.81125 265.620875 
L 468.57125 265.620875 
L 468.57125 43.860875 
L 66.81125 43.860875 
z
" style="fill: #ffffff"/>
   </g>
   <g id="matplotlib.axis_1">
    <g id="xtick_1">
     <g id="line2d_1">
      <path d="M 66.81125 265.620875 
L 66.81125 43.860875 
" clip-path="url(#p67fedd9c86)" style="fill: none; stroke: #000000; stroke-width: 0.8"/>
     </g>
     <g id="text_1">
      <!-- $Q_0$ -->
      <g transform="translate(55.56125 288.260875) scale(0.18 -0.18)">
       <defs>
        <path id="Arial-ItalicMT-51" d="M 3869 369 
Q 4100 94 4494 -163 
L 4222 -525 
Q 3806 -253 3475 134 
Q 3009 -84 2588 -84 
Q 2250 -84 1847 44 
Q 1444 172 1172 431 
Q 900 691 745 1098 
Q 591 1506 591 2000 
Q 591 2597 819 3144 
Q 1009 3594 1314 3920 
Q 1619 4247 1981 4425 
Q 2459 4659 3016 4659 
Q 3872 4659 4411 4101 
Q 4950 3544 4950 2606 
Q 4950 1916 4662 1333 
Q 4375 750 3869 369 
z
M 3494 763 
Q 3872 1056 4106 1570 
Q 4341 2084 4341 2641 
Q 4341 3334 3959 3742 
Q 3578 4150 3025 4150 
Q 2563 4150 2134 3879 
Q 1706 3609 1450 3087 
Q 1194 2566 1194 1950 
Q 1194 1178 1675 756 
Q 2050 428 2478 428 
Q 2819 428 3091 534 
Q 2806 794 2506 950 
L 2728 1331 
Q 2931 1244 3095 1123 
Q 3259 1003 3494 763 
z
" transform="scale(0.015625)"/>
        <path id="ArialMT-30" d="M 266 2259 
Q 266 3072 433 3567 
Q 600 4063 929 4331 
Q 1259 4600 1759 4600 
Q 2128 4600 2406 4451 
Q 2684 4303 2865 4023 
Q 3047 3744 3150 3342 
Q 3253 2941 3253 2259 
Q 3253 1453 3087 958 
Q 2922 463 2592 192 
Q 2263 -78 1759 -78 
Q 1097 -78 719 397 
Q 266 969 266 2259 
z
M 844 2259 
Q 844 1131 1108 757 
Q 1372 384 1759 384 
Q 2147 384 2411 759 
Q 2675 1134 2675 2259 
Q 2675 3391 2411 3762 
Q 2147 4134 1753 4134 
Q 1366 4134 1134 3806 
Q 844 3388 844 2259 
z
" transform="scale(0.015625)"/>
       </defs>
       <use xlink:href="#Arial-ItalicMT-51" transform="translate(0 0.203125)"/>
       <use xlink:href="#ArialMT-30" transform="translate(77.783203 -19.709375) scale(0.7)"/>
      </g>
     </g>
    </g>
    <g id="xtick_2">
     <g id="line2d_2">
      <path d="M 133.814191 265.620875 
L 133.814191 43.860875 
" clip-path="url(#p67fedd9c86)" style="fill: none; stroke: #000000; stroke-width: 0.8"/>
     </g>
     <g id="text_2">
      <!-- $Q_1$ -->
      <g transform="translate(122.564191 288.260875) scale(0.18 -0.18)">
       <defs>
        <path id="ArialMT-31" d="M 2384 0 
L 1822 0 
L 1822 3584 
Q 1619 3391 1289 3197 
Q 959 3003 697 2906 
L 697 3450 
Q 1169 3672 1522 3987 
Q 1875 4303 2022 4600 
L 2384 4600 
L 2384 0 
z
" transform="scale(0.015625)"/>
       </defs>
       <use xlink:href="#Arial-ItalicMT-51" transform="translate(0 0.203125)"/>
       <use xlink:href="#ArialMT-31" transform="translate(77.783203 -19.709375) scale(0.7)"/>
      </g>
     </g>
    </g>
    <g id="xtick_3">
     <g id="line2d_3">
      <path d="M 172.50212 265.620875 
L 172.50212 43.860875 
" clip-path="url(#p67fedd9c86)" style="fill: none; stroke: #000000; stroke-width: 0.8"/>
     </g>
     <g id="text_3">
      <!-- $Q_2$ -->
      <g transform="translate(161.25212 288.260875) scale(0.18 -0.18)">
       <defs>
        <path id="ArialMT-32" d="M 3222 541 
L 3222 0 
L 194 0 
Q 188 203 259 391 
Q 375 700 629 1000 
Q 884 1300 1366 1694 
Q 2113 2306 2375 2664 
Q 2638 3022 2638 3341 
Q 2638 3675 2398 3904 
Q 2159 4134 1775 4134 
Q 1369 4134 1125 3890 
Q 881 3647 878 3216 
L 300 3275 
Q 359 3922 746 4261 
Q 1134 4600 1788 4600 
Q 2447 4600 2831 4234 
Q 3216 3869 3216 3328 
Q 3216 3053 3103 2787 
Q 2991 2522 2730 2228 
Q 2469 1934 1863 1422 
Q 1356 997 1212 845 
Q 1069 694 975 541 
L 3222 541 
z
" transform="scale(0.015625)"/>
       </defs>
       <use xlink:href="#Arial-ItalicMT-51" transform="translate(0 0.203125)"/>
       <use xlink:href="#ArialMT-32" transform="translate(77.783203 -19.709375) scale(0.7)"/>
      </g>
     </g>
    </g>
    <g id="xtick_4">
     <g id="line2d_4">
      <path d="M 249.871791 265.620875 
L 249.871791 43.860875 
" clip-path="url(#p67fedd9c86)" style="fill: none; stroke: #000000; stroke-width: 0.8"/>
     </g>
     <g id="text_4">
      <!-- $Q_3$ -->
      <g transform="translate(238.621791 288.260875) scale(0.18 -0.18)">
       <defs>
        <path id="ArialMT-33" d="M 269 1209 
L 831 1284 
Q 928 806 1161 595 
Q 1394 384 1728 384 
Q 2125 384 2398 659 
Q 2672 934 2672 1341 
Q 2672 1728 2419 1979 
Q 2166 2231 1775 2231 
Q 1616 2231 1378 2169 
L 1441 2663 
Q 1497 2656 1531 2656 
Q 1891 2656 2178 2843 
Q 2466 3031 2466 3422 
Q 2466 3731 2256 3934 
Q 2047 4138 1716 4138 
Q 1388 4138 1169 3931 
Q 950 3725 888 3313 
L 325 3413 
Q 428 3978 793 4289 
Q 1159 4600 1703 4600 
Q 2078 4600 2393 4439 
Q 2709 4278 2876 4000 
Q 3044 3722 3044 3409 
Q 3044 3113 2884 2869 
Q 2725 2625 2413 2481 
Q 2819 2388 3044 2092 
Q 3269 1797 3269 1353 
Q 3269 753 2831 336 
Q 2394 -81 1725 -81 
Q 1122 -81 723 278 
Q 325 638 269 1209 
z
" transform="scale(0.015625)"/>
       </defs>
       <use xlink:href="#Arial-ItalicMT-51" transform="translate(0 0.203125)"/>
       <use xlink:href="#ArialMT-33" transform="translate(77.783203 -19.709375) scale(0.7)"/>
      </g>
     </g>
    </g>
    <g id="xtick_5">
     <g id="line2d_5">
      <path d="M 285.510709 265.620875 
L 285.510709 43.860875 
" clip-path="url(#p67fedd9c86)" style="fill: none; stroke: #000000; stroke-width: 0.8"/>
     </g>
     <g id="text_5">
      <!-- $Q_5$ -->
      <g transform="translate(274.260709 288.260875) scale(0.18 -0.18)">
       <defs>
        <path id="ArialMT-35" d="M 266 1200 
L 856 1250 
Q 922 819 1161 601 
Q 1400 384 1738 384 
Q 2144 384 2425 690 
Q 2706 997 2706 1503 
Q 2706 1984 2436 2262 
Q 2166 2541 1728 2541 
Q 1456 2541 1237 2417 
Q 1019 2294 894 2097 
L 366 2166 
L 809 4519 
L 3088 4519 
L 3088 3981 
L 1259 3981 
L 1013 2750 
Q 1425 3038 1878 3038 
Q 2478 3038 2890 2622 
Q 3303 2206 3303 1553 
Q 3303 931 2941 478 
Q 2500 -78 1738 -78 
Q 1113 -78 717 272 
Q 322 622 266 1200 
z
" transform="scale(0.015625)"/>
       </defs>
       <use xlink:href="#Arial-ItalicMT-51" transform="translate(0 0.203125)"/>
       <use xlink:href="#ArialMT-35" transform="translate(77.783203 -19.709375) scale(0.7)"/>
      </g>
     </g>
    </g>
    <g id="xtick_6">
     <g id="line2d_6">
      <path d="M 352.513651 265.620875 
L 352.513651 43.860875 
" clip-path="url(#p67fedd9c86)" style="fill: none; stroke: #000000; stroke-width: 0.8"/>
     </g>
     <g id="text_6">
      <!-- $Q_6$ -->
      <g transform="translate(341.263651 288.260875) scale(0.18 -0.18)">
       <defs>
        <path id="ArialMT-36" d="M 3184 3459 
L 2625 3416 
Q 2550 3747 2413 3897 
Q 2184 4138 1850 4138 
Q 1581 4138 1378 3988 
Q 1113 3794 959 3422 
Q 806 3050 800 2363 
Q 1003 2672 1297 2822 
Q 1591 2972 1913 2972 
Q 2475 2972 2870 2558 
Q 3266 2144 3266 1488 
Q 3266 1056 3080 686 
Q 2894 316 2569 119 
Q 2244 -78 1831 -78 
Q 1128 -78 684 439 
Q 241 956 241 2144 
Q 241 3472 731 4075 
Q 1159 4600 1884 4600 
Q 2425 4600 2770 4297 
Q 3116 3994 3184 3459 
z
M 888 1484 
Q 888 1194 1011 928 
Q 1134 663 1356 523 
Q 1578 384 1822 384 
Q 2178 384 2434 671 
Q 2691 959 2691 1453 
Q 2691 1928 2437 2201 
Q 2184 2475 1800 2475 
Q 1419 2475 1153 2201 
Q 888 1928 888 1484 
z
" transform="scale(0.015625)"/>
       </defs>
       <use xlink:href="#Arial-ItalicMT-51" transform="translate(0 0.203125)"/>
       <use xlink:href="#ArialMT-36" transform="translate(77.783203 -19.709375) scale(0.7)"/>
      </g>
     </g>
    </g>
    <g id="xtick_7">
     <g id="line2d_7">
      <path d="M 391.20158 265.620875 
L 391.20158 43.860875 
" clip-path="url(#p67fedd9c86)" style="fill: none; stroke: #000000; stroke-width: 0.8"/>
     </g>
     <g id="text_7">
      <!-- $Q_7$ -->
      <g transform="translate(379.95158 288.260875) scale(0.18 -0.18)">
       <defs>
        <path id="ArialMT-37" d="M 303 3981 
L 303 4522 
L 3269 4522 
L 3269 4084 
Q 2831 3619 2401 2847 
Q 1972 2075 1738 1259 
Q 1569 684 1522 0 
L 944 0 
Q 953 541 1156 1306 
Q 1359 2072 1739 2783 
Q 2119 3494 2547 3981 
L 303 3981 
z
" transform="scale(0.015625)"/>
       </defs>
       <use xlink:href="#Arial-ItalicMT-51" transform="translate(0 0.203125)"/>
       <use xlink:href="#ArialMT-37" transform="translate(77.783203 -19.709375) scale(0.7)"/>
      </g>
     </g>
    </g>
    <g id="xtick_8">
     <g id="line2d_8">
      <path d="M 468.57125 265.620875 
L 468.57125 43.860875 
" clip-path="url(#p67fedd9c86)" style="fill: none; stroke: #000000; stroke-width: 0.8"/>
     </g>
     <g id="text_8">
      <!-- $Q_8$ -->
      <g transform="translate(457.32125 288.260875) scale(0.18 -0.18)">
       <defs>
        <path id="ArialMT-38" d="M 1131 2484 
Q 781 2613 612 2850 
Q 444 3088 444 3419 
Q 444 3919 803 4259 
Q 1163 4600 1759 4600 
Q 2359 4600 2725 4251 
Q 3091 3903 3091 3403 
Q 3091 3084 2923 2848 
Q 2756 2613 2416 2484 
Q 2838 2347 3058 2040 
Q 3278 1734 3278 1309 
Q 3278 722 2862 322 
Q 2447 -78 1769 -78 
Q 1091 -78 675 323 
Q 259 725 259 1325 
Q 259 1772 486 2073 
Q 713 2375 1131 2484 
z
M 1019 3438 
Q 1019 3113 1228 2906 
Q 1438 2700 1772 2700 
Q 2097 2700 2305 2904 
Q 2513 3109 2513 3406 
Q 2513 3716 2298 3927 
Q 2084 4138 1766 4138 
Q 1444 4138 1231 3931 
Q 1019 3725 1019 3438 
z
M 838 1322 
Q 838 1081 952 856 
Q 1066 631 1291 507 
Q 1516 384 1775 384 
Q 2178 384 2440 643 
Q 2703 903 2703 1303 
Q 2703 1709 2433 1975 
Q 2163 2241 1756 2241 
Q 1359 2241 1098 1978 
Q 838 1716 838 1322 
z
" transform="scale(0.015625)"/>
       </defs>
       <use xlink:href="#Arial-ItalicMT-51" transform="translate(0 0.203125)"/>
       <use xlink:href="#ArialMT-38" transform="translate(77.783203 -19.709375) scale(0.7)"/>
      </g>
     </g>
    </g>
    <g id="xtick_9"/>
    <g id="xtick_10"/>
    <g id="xtick_11"/>
    <g id="xtick_12"/>
    <g id="xtick_13"/>
    <g id="xtick_14"/>
    <g id="xtick_15"/>
    <g id="xtick_16"/>
    <g id="xtick_17"/>
    <g id="xtick_18"/>
    <g id="xtick_19"/>
    <g id="xtick_20"/>
    <g id="xtick_21"/>
    <g id="xtick_22"/>
    <g id="xtick_23"/>
    <g id="xtick_24"/>
    <g id="xtick_25"/>
    <g id="xtick_26"/>
    <g id="xtick_27"/>
    <g id="xtick_28"/>
    <g id="xtick_29"/>
    <g id="xtick_30"/>
    <g id="text_9">
     <!-- Wavenumber -->
     <g transform="translate(214.511094 310.924937) scale(0.18 -0.18)">
      <defs>
       <path id="ArialMT-57" d="M 1294 0 
L 78 4581 
L 700 4581 
L 1397 1578 
Q 1509 1106 1591 641 
Q 1766 1375 1797 1488 
L 2669 4581 
L 3400 4581 
L 4056 2263 
Q 4303 1400 4413 641 
Q 4500 1075 4641 1638 
L 5359 4581 
L 5969 4581 
L 4713 0 
L 4128 0 
L 3163 3491 
Q 3041 3928 3019 4028 
Q 2947 3713 2884 3491 
L 1913 0 
L 1294 0 
z
" transform="scale(0.015625)"/>
       <path id="ArialMT-61" d="M 2588 409 
Q 2275 144 1986 34 
Q 1697 -75 1366 -75 
Q 819 -75 525 192 
Q 231 459 231 875 
Q 231 1119 342 1320 
Q 453 1522 633 1644 
Q 813 1766 1038 1828 
Q 1203 1872 1538 1913 
Q 2219 1994 2541 2106 
Q 2544 2222 2544 2253 
Q 2544 2597 2384 2738 
Q 2169 2928 1744 2928 
Q 1347 2928 1158 2789 
Q 969 2650 878 2297 
L 328 2372 
Q 403 2725 575 2942 
Q 747 3159 1072 3276 
Q 1397 3394 1825 3394 
Q 2250 3394 2515 3294 
Q 2781 3194 2906 3042 
Q 3031 2891 3081 2659 
Q 3109 2516 3109 2141 
L 3109 1391 
Q 3109 606 3145 398 
Q 3181 191 3288 0 
L 2700 0 
Q 2613 175 2588 409 
z
M 2541 1666 
Q 2234 1541 1622 1453 
Q 1275 1403 1131 1340 
Q 988 1278 909 1158 
Q 831 1038 831 891 
Q 831 666 1001 516 
Q 1172 366 1500 366 
Q 1825 366 2078 508 
Q 2331 650 2450 897 
Q 2541 1088 2541 1459 
L 2541 1666 
z
" transform="scale(0.015625)"/>
       <path id="ArialMT-76" d="M 1344 0 
L 81 3319 
L 675 3319 
L 1388 1331 
Q 1503 1009 1600 663 
Q 1675 925 1809 1294 
L 2547 3319 
L 3125 3319 
L 1869 0 
L 1344 0 
z
" transform="scale(0.015625)"/>
       <path id="ArialMT-65" d="M 2694 1069 
L 3275 997 
Q 3138 488 2766 206 
Q 2394 -75 1816 -75 
Q 1088 -75 661 373 
Q 234 822 234 1631 
Q 234 2469 665 2931 
Q 1097 3394 1784 3394 
Q 2450 3394 2872 2941 
Q 3294 2488 3294 1666 
Q 3294 1616 3291 1516 
L 816 1516 
Q 847 969 1125 678 
Q 1403 388 1819 388 
Q 2128 388 2347 550 
Q 2566 713 2694 1069 
z
M 847 1978 
L 2700 1978 
Q 2663 2397 2488 2606 
Q 2219 2931 1791 2931 
Q 1403 2931 1139 2672 
Q 875 2413 847 1978 
z
" transform="scale(0.015625)"/>
       <path id="ArialMT-6e" d="M 422 0 
L 422 3319 
L 928 3319 
L 928 2847 
Q 1294 3394 1984 3394 
Q 2284 3394 2536 3286 
Q 2788 3178 2913 3003 
Q 3038 2828 3088 2588 
Q 3119 2431 3119 2041 
L 3119 0 
L 2556 0 
L 2556 2019 
Q 2556 2363 2490 2533 
Q 2425 2703 2258 2804 
Q 2091 2906 1866 2906 
Q 1506 2906 1245 2678 
Q 984 2450 984 1813 
L 984 0 
L 422 0 
z
" transform="scale(0.015625)"/>
       <path id="ArialMT-75" d="M 2597 0 
L 2597 488 
Q 2209 -75 1544 -75 
Q 1250 -75 995 37 
Q 741 150 617 320 
Q 494 491 444 738 
Q 409 903 409 1263 
L 409 3319 
L 972 3319 
L 972 1478 
Q 972 1038 1006 884 
Q 1059 663 1231 536 
Q 1403 409 1656 409 
Q 1909 409 2131 539 
Q 2353 669 2445 892 
Q 2538 1116 2538 1541 
L 2538 3319 
L 3100 3319 
L 3100 0 
L 2597 0 
z
" transform="scale(0.015625)"/>
       <path id="ArialMT-6d" d="M 422 0 
L 422 3319 
L 925 3319 
L 925 2853 
Q 1081 3097 1340 3245 
Q 1600 3394 1931 3394 
Q 2300 3394 2536 3241 
Q 2772 3088 2869 2813 
Q 3263 3394 3894 3394 
Q 4388 3394 4653 3120 
Q 4919 2847 4919 2278 
L 4919 0 
L 4359 0 
L 4359 2091 
Q 4359 2428 4304 2576 
Q 4250 2725 4106 2815 
Q 3963 2906 3769 2906 
Q 3419 2906 3187 2673 
Q 2956 2441 2956 1928 
L 2956 0 
L 2394 0 
L 2394 2156 
Q 2394 2531 2256 2718 
Q 2119 2906 1806 2906 
Q 1569 2906 1367 2781 
Q 1166 2656 1075 2415 
Q 984 2175 984 1722 
L 984 0 
L 422 0 
z
" transform="scale(0.015625)"/>
       <path id="ArialMT-62" d="M 941 0 
L 419 0 
L 419 4581 
L 981 4581 
L 981 2947 
Q 1338 3394 1891 3394 
Q 2197 3394 2470 3270 
Q 2744 3147 2920 2923 
Q 3097 2700 3197 2384 
Q 3297 2069 3297 1709 
Q 3297 856 2875 390 
Q 2453 -75 1863 -75 
Q 1275 -75 941 416 
L 941 0 
z
M 934 1684 
Q 934 1088 1097 822 
Q 1363 388 1816 388 
Q 2184 388 2453 708 
Q 2722 1028 2722 1663 
Q 2722 2313 2464 2622 
Q 2206 2931 1841 2931 
Q 1472 2931 1203 2611 
Q 934 2291 934 1684 
z
" transform="scale(0.015625)"/>
       <path id="ArialMT-72" d="M 416 0 
L 416 3319 
L 922 3319 
L 922 2816 
Q 1116 3169 1280 3281 
Q 1444 3394 1641 3394 
Q 1925 3394 2219 3213 
L 2025 2691 
Q 1819 2813 1613 2813 
Q 1428 2813 1281 2702 
Q 1134 2591 1072 2394 
Q 978 2094 978 1738 
L 978 0 
L 416 0 
z
" transform="scale(0.015625)"/>
      </defs>
      <use xlink:href="#ArialMT-57"/>
      <use xlink:href="#ArialMT-61" x="90.634766"/>
      <use xlink:href="#ArialMT-76" x="146.25"/>
      <use xlink:href="#ArialMT-65" x="196.25"/>
      <use xlink:href="#ArialMT-6e" x="251.865234"/>
      <use xlink:href="#ArialMT-75" x="307.480469"/>
      <use xlink:href="#ArialMT-6d" x="363.095703"/>
      <use xlink:href="#ArialMT-62" x="446.396484"/>
      <use xlink:href="#ArialMT-65" x="502.011719"/>
      <use xlink:href="#ArialMT-72" x="557.626953"/>
     </g>
    </g>
   </g>
   <g id="matplotlib.axis_2">
    <g id="ytick_1">
     <g id="line2d_9">
      <defs>
       <path id="m226edcb2de" d="M 0 0 
L -6 0 
" style="stroke: #000000"/>
      </defs>
      <g>
       <use xlink:href="#m226edcb2de" x="66.81125" y="265.620875" style="fill-opacity: 0; stroke: #000000"/>
      </g>
     </g>
     <g id="line2d_10">
      <defs>
       <path id="m21cb496dee" d="M 0 0 
L 6 0 
" style="stroke: #000000"/>
      </defs>
      <g>
       <use xlink:href="#m21cb496dee" x="468.57125" y="265.620875" style="fill-opacity: 0; stroke: #000000"/>
      </g>
     </g>
     <g id="text_10">
      <!-- 0 -->
      <g transform="translate(47.301563 272.062906) scale(0.18 -0.18)">
       <use xlink:href="#ArialMT-30"/>
      </g>
     </g>
    </g>
    <g id="ytick_2">
     <g id="line2d_11">
      <g>
       <use xlink:href="#m226edcb2de" x="66.81125" y="218.80394" style="fill-opacity: 0; stroke: #000000"/>
      </g>
     </g>
     <g id="line2d_12">
      <g>
       <use xlink:href="#m21cb496dee" x="468.57125" y="218.80394" style="fill-opacity: 0; stroke: #000000"/>
      </g>
     </g>
     <g id="text_11">
      <!-- 20 -->
      <g transform="translate(37.291875 225.245971) scale(0.18 -0.18)">
       <use xlink:href="#ArialMT-32"/>
       <use xlink:href="#ArialMT-30" x="55.615234"/>
      </g>
     </g>
    </g>
    <g id="ytick_3">
     <g id="line2d_13">
      <g>
       <use xlink:href="#m226edcb2de" x="66.81125" y="171.987004" style="fill-opacity: 0; stroke: #000000"/>
      </g>
     </g>
     <g id="line2d_14">
      <g>
       <use xlink:href="#m21cb496dee" x="468.57125" y="171.987004" style="fill-opacity: 0; stroke: #000000"/>
      </g>
     </g>
     <g id="text_12">
      <!-- 40 -->
      <g transform="translate(37.291875 178.429035) scale(0.18 -0.18)">
       <defs>
        <path id="ArialMT-34" d="M 2069 0 
L 2069 1097 
L 81 1097 
L 81 1613 
L 2172 4581 
L 2631 4581 
L 2631 1613 
L 3250 1613 
L 3250 1097 
L 2631 1097 
L 2631 0 
L 2069 0 
z
M 2069 1613 
L 2069 3678 
L 634 1613 
L 2069 1613 
z
" transform="scale(0.015625)"/>
       </defs>
       <use xlink:href="#ArialMT-34"/>
       <use xlink:href="#ArialMT-30" x="55.615234"/>
      </g>
     </g>
    </g>
    <g id="ytick_4">
     <g id="line2d_15">
      <g>
       <use xlink:href="#m226edcb2de" x="66.81125" y="125.170069" style="fill-opacity: 0; stroke: #000000"/>
      </g>
     </g>
     <g id="line2d_16">
      <g>
       <use xlink:href="#m21cb496dee" x="468.57125" y="125.170069" style="fill-opacity: 0; stroke: #000000"/>
      </g>
     </g>
     <g id="text_13">
      <!-- 60 -->
      <g transform="translate(37.291875 131.6121) scale(0.18 -0.18)">
       <use xlink:href="#ArialMT-36"/>
       <use xlink:href="#ArialMT-30" x="55.615234"/>
      </g>
     </g>
    </g>
    <g id="ytick_5">
     <g id="line2d_17">
      <g>
       <use xlink:href="#m226edcb2de" x="66.81125" y="78.353133" style="fill-opacity: 0; stroke: #000000"/>
      </g>
     </g>
     <g id="line2d_18">
      <g>
       <use xlink:href="#m21cb496dee" x="468.57125" y="78.353133" style="fill-opacity: 0; stroke: #000000"/>
      </g>
     </g>
     <g id="text_14">
      <!-- 80 -->
      <g transform="translate(37.291875 84.795164) scale(0.18 -0.18)">
       <use xlink:href="#ArialMT-38"/>
       <use xlink:href="#ArialMT-30" x="55.615234"/>
      </g>
     </g>
    </g>
    <g id="ytick_6">
     <g id="line2d_19">
      <defs>
       <path id="ma831f4a8aa" d="M 0 0 
L -3 0 
" style="stroke: #000000"/>
      </defs>
      <g>
       <use xlink:href="#ma831f4a8aa" x="66.81125" y="253.916641" style="fill-opacity: 0; stroke: #000000"/>
      </g>
     </g>
     <g id="line2d_20">
      <defs>
       <path id="mfcccbbd977" d="M 0 0 
L 3 0 
" style="stroke: #000000"/>
      </defs>
      <g>
       <use xlink:href="#mfcccbbd977" x="468.57125" y="253.916641" style="fill-opacity: 0; stroke: #000000"/>
      </g>
     </g>
    </g>
    <g id="ytick_7">
     <g id="line2d_21">
      <g>
       <use xlink:href="#ma831f4a8aa" x="66.81125" y="242.212407" style="fill-opacity: 0; stroke: #000000"/>
      </g>
     </g>
     <g id="line2d_22">
      <g>
       <use xlink:href="#mfcccbbd977" x="468.57125" y="242.212407" style="fill-opacity: 0; stroke: #000000"/>
      </g>
     </g>
    </g>
    <g id="ytick_8">
     <g id="line2d_23">
      <g>
       <use xlink:href="#ma831f4a8aa" x="66.81125" y="230.508173" style="fill-opacity: 0; stroke: #000000"/>
      </g>
     </g>
     <g id="line2d_24">
      <g>
       <use xlink:href="#mfcccbbd977" x="468.57125" y="230.508173" style="fill-opacity: 0; stroke: #000000"/>
      </g>
     </g>
    </g>
    <g id="ytick_9">
     <g id="line2d_25">
      <g>
       <use xlink:href="#ma831f4a8aa" x="66.81125" y="207.099706" style="fill-opacity: 0; stroke: #000000"/>
      </g>
     </g>
     <g id="line2d_26">
      <g>
       <use xlink:href="#mfcccbbd977" x="468.57125" y="207.099706" style="fill-opacity: 0; stroke: #000000"/>
      </g>
     </g>
    </g>
    <g id="ytick_10">
     <g id="line2d_27">
      <g>
       <use xlink:href="#ma831f4a8aa" x="66.81125" y="195.395472" style="fill-opacity: 0; stroke: #000000"/>
      </g>
     </g>
     <g id="line2d_28">
      <g>
       <use xlink:href="#mfcccbbd977" x="468.57125" y="195.395472" style="fill-opacity: 0; stroke: #000000"/>
      </g>
     </g>
    </g>
    <g id="ytick_11">
     <g id="line2d_29">
      <g>
       <use xlink:href="#ma831f4a8aa" x="66.81125" y="183.691238" style="fill-opacity: 0; stroke: #000000"/>
      </g>
     </g>
     <g id="line2d_30">
      <g>
       <use xlink:href="#mfcccbbd977" x="468.57125" y="183.691238" style="fill-opacity: 0; stroke: #000000"/>
      </g>
     </g>
    </g>
    <g id="ytick_12">
     <g id="line2d_31">
      <g>
       <use xlink:href="#ma831f4a8aa" x="66.81125" y="160.28277" style="fill-opacity: 0; stroke: #000000"/>
      </g>
     </g>
     <g id="line2d_32">
      <g>
       <use xlink:href="#mfcccbbd977" x="468.57125" y="160.28277" style="fill-opacity: 0; stroke: #000000"/>
      </g>
     </g>
    </g>
    <g id="ytick_13">
     <g id="line2d_33">
      <g>
       <use xlink:href="#ma831f4a8aa" x="66.81125" y="148.578536" style="fill-opacity: 0; stroke: #000000"/>
      </g>
     </g>
     <g id="line2d_34">
      <g>
       <use xlink:href="#mfcccbbd977" x="468.57125" y="148.578536" style="fill-opacity: 0; stroke: #000000"/>
      </g>
     </g>
    </g>
    <g id="ytick_14">
     <g id="line2d_35">
      <g>
       <use xlink:href="#ma831f4a8aa" x="66.81125" y="136.874302" style="fill-opacity: 0; stroke: #000000"/>
      </g>
     </g>
     <g id="line2d_36">
      <g>
       <use xlink:href="#mfcccbbd977" x="468.57125" y="136.874302" style="fill-opacity: 0; stroke: #000000"/>
      </g>
     </g>
    </g>
    <g id="ytick_15">
     <g id="line2d_37">
      <g>
       <use xlink:href="#ma831f4a8aa" x="66.81125" y="113.465835" style="fill-opacity: 0; stroke: #000000"/>
      </g>
     </g>
     <g id="line2d_38">
      <g>
       <use xlink:href="#mfcccbbd977" x="468.57125" y="113.465835" style="fill-opacity: 0; stroke: #000000"/>
      </g>
     </g>
    </g>
    <g id="ytick_16">
     <g id="line2d_39">
      <g>
       <use xlink:href="#ma831f4a8aa" x="66.81125" y="101.761601" style="fill-opacity: 0; stroke: #000000"/>
      </g>
     </g>
     <g id="line2d_40">
      <g>
       <use xlink:href="#mfcccbbd977" x="468.57125" y="101.761601" style="fill-opacity: 0; stroke: #000000"/>
      </g>
     </g>
    </g>
    <g id="ytick_17">
     <g id="line2d_41">
      <g>
       <use xlink:href="#ma831f4a8aa" x="66.81125" y="90.057367" style="fill-opacity: 0; stroke: #000000"/>
      </g>
     </g>
     <g id="line2d_42">
      <g>
       <use xlink:href="#mfcccbbd977" x="468.57125" y="90.057367" style="fill-opacity: 0; stroke: #000000"/>
      </g>
     </g>
    </g>
    <g id="ytick_18">
     <g id="line2d_43">
      <g>
       <use xlink:href="#ma831f4a8aa" x="66.81125" y="66.648899" style="fill-opacity: 0; stroke: #000000"/>
      </g>
     </g>
     <g id="line2d_44">
      <g>
       <use xlink:href="#mfcccbbd977" x="468.57125" y="66.648899" style="fill-opacity: 0; stroke: #000000"/>
      </g>
     </g>
    </g>
    <g id="ytick_19">
     <g id="line2d_45">
      <g>
       <use xlink:href="#ma831f4a8aa" x="66.81125" y="54.944665" style="fill-opacity: 0; stroke: #000000"/>
      </g>
     </g>
     <g id="line2d_46">
      <g>
       <use xlink:href="#mfcccbbd977" x="468.57125" y="54.944665" style="fill-opacity: 0; stroke: #000000"/>
      </g>
     </g>
    </g>
    <g id="text_15">
     <!-- Energy (meV) -->
     <g transform="translate(27.503438 210.254) rotate(-90) scale(0.18 -0.18)">
      <defs>
       <path id="ArialMT-45" d="M 506 0 
L 506 4581 
L 3819 4581 
L 3819 4041 
L 1113 4041 
L 1113 2638 
L 3647 2638 
L 3647 2100 
L 1113 2100 
L 1113 541 
L 3925 541 
L 3925 0 
L 506 0 
z
" transform="scale(0.015625)"/>
       <path id="ArialMT-67" d="M 319 -275 
L 866 -356 
Q 900 -609 1056 -725 
Q 1266 -881 1628 -881 
Q 2019 -881 2231 -725 
Q 2444 -569 2519 -288 
Q 2563 -116 2559 434 
Q 2191 0 1641 0 
Q 956 0 581 494 
Q 206 988 206 1678 
Q 206 2153 378 2554 
Q 550 2956 876 3175 
Q 1203 3394 1644 3394 
Q 2231 3394 2613 2919 
L 2613 3319 
L 3131 3319 
L 3131 450 
Q 3131 -325 2973 -648 
Q 2816 -972 2473 -1159 
Q 2131 -1347 1631 -1347 
Q 1038 -1347 672 -1080 
Q 306 -813 319 -275 
z
M 784 1719 
Q 784 1066 1043 766 
Q 1303 466 1694 466 
Q 2081 466 2343 764 
Q 2606 1063 2606 1700 
Q 2606 2309 2336 2618 
Q 2066 2928 1684 2928 
Q 1309 2928 1046 2623 
Q 784 2319 784 1719 
z
" transform="scale(0.015625)"/>
       <path id="ArialMT-79" d="M 397 -1278 
L 334 -750 
Q 519 -800 656 -800 
Q 844 -800 956 -737 
Q 1069 -675 1141 -563 
Q 1194 -478 1313 -144 
Q 1328 -97 1363 -6 
L 103 3319 
L 709 3319 
L 1400 1397 
Q 1534 1031 1641 628 
Q 1738 1016 1872 1384 
L 2581 3319 
L 3144 3319 
L 1881 -56 
Q 1678 -603 1566 -809 
Q 1416 -1088 1222 -1217 
Q 1028 -1347 759 -1347 
Q 597 -1347 397 -1278 
z
" transform="scale(0.015625)"/>
       <path id="ArialMT-20" transform="scale(0.015625)"/>
       <path id="ArialMT-28" d="M 1497 -1347 
Q 1031 -759 709 28 
Q 388 816 388 1659 
Q 388 2403 628 3084 
Q 909 3875 1497 4659 
L 1900 4659 
Q 1522 4009 1400 3731 
Q 1209 3300 1100 2831 
Q 966 2247 966 1656 
Q 966 153 1900 -1347 
L 1497 -1347 
z
" transform="scale(0.015625)"/>
       <path id="ArialMT-56" d="M 1803 0 
L 28 4581 
L 684 4581 
L 1875 1253 
Q 2019 853 2116 503 
Q 2222 878 2363 1253 
L 3600 4581 
L 4219 4581 
L 2425 0 
L 1803 0 
z
" transform="scale(0.015625)"/>
       <path id="ArialMT-29" d="M 791 -1347 
L 388 -1347 
Q 1322 153 1322 1656 
Q 1322 2244 1188 2822 
Q 1081 3291 891 3722 
Q 769 4003 388 4659 
L 791 4659 
Q 1378 3875 1659 3084 
Q 1900 2403 1900 1659 
Q 1900 816 1576 28 
Q 1253 -759 791 -1347 
z
" transform="scale(0.015625)"/>
      </defs>
      <use xlink:href="#ArialMT-45"/>
      <use xlink:href="#ArialMT-6e" x="66.699219"/>
      <use xlink:href="#ArialMT-65" x="122.314453"/>
      <use xlink:href="#ArialMT-72" x="177.929688"/>
      <use xlink:href="#ArialMT-67" x="211.230469"/>
      <use xlink:href="#ArialMT-79" x="266.845703"/>
      <use xlink:href="#ArialMT-20" x="316.845703"/>
      <use xlink:href="#ArialMT-28" x="344.628906"/>
      <use xlink:href="#ArialMT-6d" x="377.929688"/>
      <use xlink:href="#ArialMT-65" x="461.230469"/>
      <use xlink:href="#ArialMT-56" x="516.845703"/>
      <use xlink:href="#ArialMT-29" x="583.544922"/>
     </g>
    </g>
   </g>
   <g id="line2d_47">
    <path d="M 66.81125 265.620879 
L 70.159364 261.854981 
L 76.861401 253.915622 
L 83.563437 246.385277 
L 90.259666 239.335813 
L 96.961703 232.866609 
L 100.309817 229.868228 
L 103.663739 227.031804 
L 107.011853 224.35895 
L 110.359968 221.852243 
L 113.71389 219.517869 
L 117.062004 217.369762 
L 120.410119 215.43534 
L 123.764041 213.763521 
L 127.112155 212.433877 
L 130.46027 211.55739 
L 133.814191 211.248041 
L 139.616591 211.090342 
L 143.480089 210.80017 
L 147.347829 210.343456 
L 151.22139 209.698244 
L 155.084889 208.832568 
L 158.952628 207.687505 
L 166.689688 204.975337 
L 168.628589 204.56009 
L 170.557428 204.329068 
L 172.50212 204.338784 
L 176.369856 204.76623 
L 180.243385 205.747324 
L 184.116913 207.106581 
L 187.97459 208.743425 
L 191.848119 210.611086 
L 195.721648 212.698428 
L 199.579325 215.014016 
L 203.452853 217.57444 
L 207.326382 220.396287 
L 211.184059 223.490611 
L 215.057588 226.859399 
L 218.931116 230.4947 
L 222.788793 234.377039 
L 226.662322 238.477818 
L 234.393528 247.188603 
L 242.140585 256.321592 
L 249.871791 265.620871 
M 249.871791 265.620871 
L 255.22169 257.480774 
L 258.784422 252.462596 
L 262.347153 247.995013 
L 264.122716 246.004489 
L 267.685448 242.531922 
L 271.248179 239.694763 
L 274.822515 237.366973 
L 278.385247 235.369881 
L 285.510709 231.721531 
L 288.858824 231.182611 
L 292.212746 229.663277 
L 295.56086 227.416662 
L 305.611011 219.613577 
L 308.959125 217.628445 
L 312.313047 216.215353 
L 315.661162 215.341757 
L 319.009276 214.894818 
L 322.363198 214.747729 
L 325.711313 214.795921 
L 332.413349 215.196825 
L 342.4635 215.943792 
L 349.159729 216.239713 
L 354.442489 216.385231 
L 366.047288 217.708597 
L 373.784348 218.222334 
L 383.454487 218.594424 
L 391.20158 218.691204 
L 398.942844 218.585813 
L 406.674049 218.269423 
L 422.152313 217.344917 
L 426.025841 217.275528 
L 429.883518 217.559691 
L 433.757047 218.618695 
L 437.630576 220.498076 
L 445.361781 224.870104 
L 449.23531 226.866188 
L 453.092987 228.58065 
L 456.966516 229.948426 
L 460.840044 230.934116 
L 464.697721 231.525066 
L 468.57125 231.721526 
L 468.57125 231.721526 
" clip-path="url(#p67fedd9c86)" style="fill: none; stroke: #175487"/>
   </g>
   <g id="line2d_48">
    <path d="M 66.81125 265.620872 
L 73.513286 257.610309 
L 80.209515 249.971646 
L 83.563437 246.405183 
L 86.911552 243.064045 
L 90.259666 239.985659 
L 93.613588 237.201668 
L 96.961703 234.735236 
L 100.309817 232.59943 
L 103.663739 230.795996 
L 107.011853 229.315005 
L 110.359968 228.135539 
L 113.71389 227.227429 
L 117.062004 226.553933 
L 120.410119 226.075223 
L 123.764041 225.751728 
L 130.46027 225.438326 
L 133.814191 225.403559 
L 135.74303 225.246313 
L 137.67769 224.782187 
L 139.616591 224.032922 
L 141.54543 223.031938 
L 143.480089 221.820366 
L 147.347829 218.947618 
L 157.02379 211.229322 
L 158.952628 209.937223 
L 160.887288 208.819731 
L 164.755028 207.04142 
L 172.50212 204.013551 
L 176.369856 205.468877 
L 180.243385 207.097321 
L 184.116913 208.886717 
L 187.97459 210.827663 
L 191.848119 212.91496 
L 195.721648 215.149054 
L 199.579325 217.536579 
L 203.452853 220.089411 
L 207.326382 222.822829 
L 211.184059 225.752426 
L 215.057588 228.891624 
L 218.931116 232.249057 
L 222.788793 235.826909 
L 226.662322 239.62008 
L 230.535851 243.616046 
L 238.267056 252.134162 
L 249.871791 265.620879 
M 249.871791 265.620877 
L 256.997253 248.767727 
L 262.347153 236.875708 
L 265.909884 229.487025 
L 269.472616 222.559314 
L 273.035347 216.063992 
L 276.598078 209.945688 
L 281.947978 201.358681 
L 285.510709 195.997249 
L 298.908975 196.071709 
L 302.262896 195.703697 
L 305.611011 194.905348 
L 308.959125 193.563463 
L 312.313047 191.658531 
L 315.661162 189.282732 
L 322.363198 183.762996 
L 329.059427 178.191189 
L 332.413349 175.648205 
L 335.761464 173.366821 
L 339.109578 171.407469 
L 342.4635 169.822417 
L 345.811614 168.655639 
L 349.159729 167.941075 
L 352.513651 167.700397 
L 356.377149 167.816598 
L 360.244889 168.156242 
L 364.11845 168.692095 
L 369.92085 169.756961 
L 377.652088 171.272775 
L 381.525649 171.86925 
L 385.389147 172.258293 
L 389.256887 172.425695 
L 402.816373 172.574559 
L 406.674049 173.03468 
L 410.547578 173.867768 
L 414.421107 175.116272 
L 418.278784 176.785784 
L 422.152313 178.849037 
L 426.025841 181.249077 
L 433.757047 186.673933 
L 437.630576 189.405329 
L 441.488253 191.874724 
L 445.361781 193.852328 
L 449.23531 195.189362 
L 453.092987 195.901396 
L 456.966516 196.146467 
L 468.57125 195.997249 
L 468.57125 195.997249 
" clip-path="url(#p67fedd9c86)" style="fill: none; stroke: #175487"/>
   </g>
   <g id="line2d_49">
    <path d="M 66.81125 265.620871 
L 73.513286 251.971025 
L 80.209515 238.778984 
L 86.911552 226.296327 
L 90.259666 220.424471 
L 93.613588 214.843295 
L 96.961703 209.579848 
L 100.309817 204.659602 
L 103.663739 200.12297 
L 107.011853 196.270703 
L 110.359968 194.77359 
L 113.71389 194.482268 
L 117.062004 194.724334 
L 120.410119 195.287574 
L 127.112155 196.685449 
L 130.46027 197.195443 
L 135.74303 197.39636 
L 141.54543 197.561315 
L 149.282489 198.060042 
L 153.150229 198.309605 
L 155.084889 198.301453 
L 157.02379 198.039935 
L 158.952628 197.459828 
L 164.755028 195.176042 
L 166.689688 194.563058 
L 168.628589 194.101644 
L 170.557428 193.816668 
L 172.50212 193.721116 
L 176.369856 194.079557 
L 180.243385 195.027252 
L 184.116913 196.350463 
L 191.848119 199.547897 
L 199.579325 203.090959 
L 207.326382 206.910534 
L 215.057588 211.086101 
L 218.931116 213.349632 
L 222.788793 216.282069 
L 226.662322 221.841177 
L 230.535851 228.260153 
L 234.393528 235.143194 
L 238.267056 242.399564 
L 245.998262 257.657451 
L 249.871791 265.620872 
M 249.871791 265.620872 
L 255.22169 257.480774 
L 258.784422 252.462596 
L 262.347153 247.995013 
L 264.122716 246.004489 
L 267.685448 242.531922 
L 271.248179 239.694763 
L 274.822515 237.366973 
L 278.385247 235.369881 
L 285.510709 231.721531 
L 288.858824 231.574976 
L 292.212746 231.143062 
L 295.56086 230.447556 
L 298.908975 229.522102 
L 302.262896 228.408143 
L 308.959125 225.798465 
L 322.363198 220.281787 
L 329.059427 217.942488 
L 332.413349 216.961572 
L 335.761464 216.123817 
L 339.109578 215.436172 
L 342.4635 214.90177 
L 345.811614 214.521145 
L 349.159729 214.293462 
L 352.513651 214.217682 
L 354.442489 214.009507 
L 356.377149 213.470926 
L 358.31605 212.717173 
L 362.179549 210.778624 
L 366.047288 208.461253 
L 375.723249 202.401587 
L 379.586747 200.405992 
L 381.525649 199.586215 
L 383.454487 198.905537 
L 385.389147 198.37401 
L 387.328048 197.996871 
L 389.256887 197.774299 
L 391.20158 197.701785 
L 395.069315 197.971045 
L 398.942844 198.714678 
L 402.816373 199.838415 
L 406.674049 201.265563 
L 410.547578 202.940955 
L 414.421107 204.824305 
L 422.152313 209.057128 
L 426.025841 211.27022 
L 429.883518 213.31193 
L 433.757047 214.795878 
L 441.488253 216.771922 
L 445.361781 218.30924 
L 449.23531 220.517908 
L 453.092987 223.293692 
L 456.966516 226.299512 
L 460.840044 229.050208 
L 464.697721 231.008043 
L 468.57125 231.721526 
L 468.57125 231.721526 
" clip-path="url(#p67fedd9c86)" style="fill: none; stroke: #175487"/>
   </g>
   <g id="line2d_50">
    <path d="M 66.81125 226.22779 
L 70.159364 225.662707 
L 73.513286 224.045228 
L 76.861401 221.576805 
L 80.209515 218.513805 
L 86.911552 211.567135 
L 90.259666 208.065681 
L 93.613588 204.735991 
L 96.961703 201.6906 
L 100.309817 199.032845 
L 103.663739 196.851001 
L 107.011853 194.962598 
L 110.359968 191.761986 
L 113.71389 188.363759 
L 117.062004 185.316837 
L 120.410119 182.681642 
L 123.764041 180.497799 
L 127.112155 178.816905 
L 130.46027 177.721302 
L 133.814191 177.331583 
L 137.67769 177.506293 
L 141.54543 178.016091 
L 145.418991 178.818352 
L 149.282489 179.842425 
L 158.952628 182.640417 
L 162.82619 183.447057 
L 164.755028 183.693746 
L 166.689688 183.812167 
L 168.628589 183.794245 
L 170.557428 183.643054 
L 172.50212 183.373107 
L 184.116913 184.824284 
L 187.97459 185.659558 
L 191.848119 186.910494 
L 195.721648 188.639516 
L 199.579325 190.88093 
L 203.452853 193.653045 
L 207.326382 196.965032 
L 211.184059 200.819409 
L 215.057588 205.209837 
L 222.788793 214.901983 
L 226.662322 217.596447 
L 230.535851 219.842872 
L 234.393528 221.89504 
L 238.267056 223.667198 
L 242.140585 225.046207 
L 245.998262 225.925364 
L 249.871791 226.22779 
M 249.871791 226.22779 
L 253.434522 226.083403 
L 258.784422 225.505888 
L 262.347153 225.156239 
L 265.909884 225.07942 
L 267.685448 225.193499 
L 269.472616 225.424834 
L 271.248179 225.777114 
L 274.822515 226.827864 
L 278.385247 228.261602 
L 283.723541 230.824397 
L 285.510709 231.721526 
L 288.858824 231.182606 
L 292.212746 229.663272 
L 295.56086 227.416657 
L 305.611011 219.613571 
L 308.959125 217.628439 
L 312.313047 216.215345 
L 315.661162 215.341749 
L 319.009276 214.89481 
L 322.363198 214.747721 
L 325.711313 214.795914 
L 332.413349 215.196819 
L 342.4635 215.943787 
L 349.159729 216.239709 
L 354.442489 216.385227 
L 366.047288 217.708594 
L 373.784348 218.222331 
L 383.454487 218.594423 
L 391.20158 218.691204 
L 398.942844 218.585812 
L 406.674049 218.269419 
L 422.152313 217.344911 
L 426.025841 217.275522 
L 429.883518 217.559688 
L 433.757047 218.618695 
L 437.630576 220.498079 
L 445.361781 224.870108 
L 449.23531 226.866192 
L 453.092987 228.580655 
L 456.966516 229.948431 
L 460.840044 230.934121 
L 464.697721 231.525071 
L 468.57125 231.721531 
L 468.57125 231.721531 
" clip-path="url(#p67fedd9c86)" style="fill: none; stroke: #175487"/>
   </g>
   <g id="line2d_51">
    <path d="M 66.81125 226.22779 
L 70.159364 226.033134 
L 73.513286 225.4626 
L 76.861401 224.554663 
L 80.209515 223.367881 
L 83.563437 221.974202 
L 96.961703 215.841932 
L 100.309817 214.492305 
L 103.663739 213.305832 
L 107.011853 212.304175 
L 110.359968 211.495569 
L 113.71389 210.875466 
L 117.062004 210.427812 
L 120.410119 210.127256 
L 127.112155 209.840535 
L 135.74303 209.679998 
L 137.67769 209.385779 
L 139.616591 208.906842 
L 141.54543 208.259588 
L 145.418991 206.550945 
L 151.22139 203.409279 
L 153.150229 202.382424 
L 155.084889 201.508682 
L 157.02379 200.953052 
L 158.952628 200.806194 
L 160.887288 200.957928 
L 164.755028 201.698063 
L 168.628589 202.747082 
L 172.50212 204.013544 
L 184.116913 199.654829 
L 187.97459 198.337475 
L 191.848119 197.189233 
L 195.721648 196.298228 
L 199.579325 195.783234 
L 203.452853 195.789621 
L 207.326382 196.454526 
L 211.184059 197.84869 
L 215.057588 199.948346 
L 218.931116 202.662147 
L 222.788793 205.87112 
L 226.662322 209.44378 
L 234.393528 217.023013 
L 238.267056 220.569235 
L 242.140585 223.527792 
L 245.998262 225.520591 
L 249.871791 226.22779 
M 249.871791 226.22779 
L 253.434522 226.083403 
L 258.784422 225.505888 
L 262.347153 225.156239 
L 265.909884 225.07942 
L 267.685448 225.193499 
L 269.472616 225.424834 
L 271.248179 225.777114 
L 274.822515 226.827864 
L 278.385247 228.261602 
L 283.723541 230.824397 
L 285.510709 231.721526 
L 288.858824 231.574971 
L 292.212746 231.143057 
L 295.56086 230.447551 
L 298.908975 229.522097 
L 302.262896 228.408139 
L 308.959125 225.798461 
L 322.363198 220.281783 
L 329.059427 217.942485 
L 332.413349 216.961569 
L 335.761464 216.123814 
L 339.109578 215.436169 
L 342.4635 214.901767 
L 345.811614 214.521141 
L 349.159729 214.293459 
L 352.513651 214.217679 
L 354.442489 214.009504 
L 356.377149 213.470923 
L 358.31605 212.71717 
L 362.179549 210.778621 
L 366.047288 208.46125 
L 375.723249 202.401585 
L 379.586747 200.40599 
L 381.525649 199.586213 
L 383.454487 198.905535 
L 385.389147 198.374007 
L 387.328048 197.996869 
L 389.256887 197.774297 
L 391.20158 197.701782 
L 395.069315 197.971043 
L 398.942844 198.714676 
L 402.816373 199.838413 
L 406.674049 201.265561 
L 410.547578 202.940953 
L 414.421107 204.824303 
L 422.152313 209.057127 
L 426.025841 211.27022 
L 429.883518 213.311932 
L 433.757047 214.795883 
L 441.488253 216.771929 
L 445.361781 218.309246 
L 449.23531 220.517913 
L 453.092987 223.293697 
L 456.966516 226.299517 
L 460.840044 229.050213 
L 464.697721 231.008048 
L 468.57125 231.721531 
L 468.57125 231.721531 
" clip-path="url(#p67fedd9c86)" style="fill: none; stroke: #175487"/>
   </g>
   <g id="line2d_52">
    <path d="M 66.81125 169.828388 
L 70.159364 169.946467 
L 73.513286 170.294119 
L 76.861401 170.852443 
L 80.209515 171.592336 
L 86.911552 173.46237 
L 96.961703 176.483544 
L 100.309817 177.275472 
L 103.663739 177.804186 
L 107.011853 177.972486 
L 110.359968 177.736845 
L 113.71389 177.157202 
L 123.764041 174.931339 
L 127.112155 174.481837 
L 130.46027 174.260825 
L 135.74303 174.242127 
L 139.616591 174.534517 
L 143.480089 175.107008 
L 147.347829 175.93512 
L 151.22139 176.981863 
L 157.02379 178.846347 
L 164.755028 181.462882 
L 168.628589 182.56676 
L 172.50212 183.373104 
L 176.369856 182.576669 
L 184.116913 180.746953 
L 187.97459 180.056114 
L 191.848119 179.619915 
L 195.721648 179.421922 
L 203.452853 179.318927 
L 207.326382 179.100964 
L 211.184059 178.610534 
L 215.057588 177.833242 
L 218.931116 176.824323 
L 234.393528 172.128153 
L 238.267056 171.176286 
L 242.140585 170.445739 
L 245.998262 169.985593 
L 249.871791 169.828388 
M 249.871791 169.828388 
L 253.434522 170.024749 
L 255.22169 170.275939 
L 256.997253 170.637745 
L 258.784422 171.119174 
L 260.559985 171.73027 
L 262.347153 172.481203 
L 264.122716 173.381345 
L 265.909884 174.43843 
L 267.685448 175.657855 
L 269.472616 177.042197 
L 271.248179 178.590892 
L 273.035347 180.300398 
L 276.598078 184.173164 
L 280.16081 188.582666 
L 283.723541 193.433901 
L 285.510709 195.997234 
L 298.908975 196.071696 
L 302.262896 195.703685 
L 305.611011 194.905336 
L 308.959125 193.563454 
L 312.313047 191.658524 
L 315.661162 189.282726 
L 322.363198 183.762992 
L 329.059427 178.191186 
L 332.413349 175.648203 
L 335.761464 173.366819 
L 339.109578 171.407468 
L 342.4635 169.822416 
L 345.811614 168.655639 
L 349.159729 167.941075 
L 352.513651 167.700396 
L 356.377149 167.816598 
L 360.244889 168.156242 
L 364.11845 168.692095 
L 369.92085 169.75696 
L 377.652088 171.272775 
L 381.525649 171.869249 
L 385.389147 172.258292 
L 389.256887 172.425695 
L 402.816373 172.574559 
L 406.674049 173.034679 
L 410.547578 173.867767 
L 414.421107 175.116271 
L 418.278784 176.785782 
L 422.152313 178.849034 
L 426.025841 181.249073 
L 433.757047 186.673928 
L 437.630576 189.405323 
L 441.488253 191.874716 
L 445.361781 193.852318 
L 449.23531 195.18935 
L 453.092987 195.901383 
L 456.966516 196.146453 
L 468.57125 195.997234 
L 468.57125 195.997234 
" clip-path="url(#p67fedd9c86)" style="fill: none; stroke: #175487"/>
   </g>
   <g id="line2d_53">
    <path d="M 66.81125 112.91047 
L 70.159364 112.845286 
L 73.513286 112.650348 
L 76.861401 112.326846 
L 80.209515 111.876804 
L 83.563437 111.303013 
L 86.911552 110.609091 
L 93.613588 108.880854 
L 100.309817 106.748475 
L 107.011853 104.308573 
L 117.062004 100.465698 
L 120.410119 99.285992 
L 123.764041 98.249924 
L 127.112155 97.429291 
L 130.46027 96.897376 
L 135.74303 96.69275 
L 139.616591 96.532526 
L 143.480089 96.184715 
L 145.418991 95.846945 
L 147.347829 95.026417 
L 151.22139 92.475889 
L 160.887288 85.57076 
L 164.755028 83.16346 
L 168.628589 81.153848 
L 170.557428 80.361924 
L 172.50212 79.962956 
L 176.369856 80.966204 
L 180.243385 82.346036 
L 184.116913 83.4844 
L 187.97459 83.914179 
L 191.848119 83.701989 
L 199.579325 83.034433 
L 203.452853 82.946284 
L 207.326382 83.166542 
L 211.184059 83.798287 
L 215.057588 84.925164 
L 218.931116 86.583375 
L 222.788793 88.741343 
L 226.662322 91.294701 
L 234.393528 96.860952 
L 238.267056 99.412666 
L 242.140585 101.488135 
L 245.998262 102.867928 
L 249.871791 103.359937 
M 249.871791 103.359937 
L 262.347153 103.433417 
L 269.472616 103.684034 
L 278.385247 104.26858 
L 285.510709 104.77785 
L 288.858824 104.700957 
L 292.212746 104.473526 
L 295.56086 104.104756 
L 302.262896 103.007052 
L 308.959125 101.571764 
L 325.711313 97.728143 
L 332.413349 96.483944 
L 339.109578 95.548717 
L 345.811614 94.970277 
L 352.513651 94.774588 
L 354.442489 94.882153 
L 358.31605 95.496784 
L 369.92085 97.628026 
L 375.723249 98.503024 
L 381.525649 99.167156 
L 387.328048 99.551027 
L 391.20158 99.626335 
L 395.069315 99.551397 
L 398.942844 99.332765 
L 406.674049 98.547205 
L 418.278784 97.122316 
L 422.152313 96.844004 
L 426.025841 96.823024 
L 429.883518 97.162021 
L 433.757047 97.894136 
L 437.630576 98.922329 
L 445.361781 101.222599 
L 449.23531 102.263684 
L 453.092987 103.151104 
L 456.966516 103.857002 
L 460.840044 104.367219 
L 464.697721 104.675028 
L 468.57125 104.777851 
L 468.57125 104.777851 
" clip-path="url(#p67fedd9c86)" style="fill: none; stroke: #175487"/>
   </g>
   <g id="line2d_54">
    <path d="M 66.81125 106.316769 
L 73.513286 106.16719 
L 80.209515 105.696168 
L 86.911552 104.933592 
L 100.309817 103.006605 
L 110.359968 101.64884 
L 117.062004 100.919417 
L 123.764041 100.390031 
L 130.46027 100.108848 
L 135.74303 99.963555 
L 137.67769 99.639088 
L 139.616591 99.109085 
L 141.54543 98.391113 
L 145.418991 96.587321 
L 147.347829 95.975523 
L 157.02379 94.117916 
L 162.82619 92.707051 
L 172.50212 90.019988 
L 176.369856 91.181574 
L 184.116913 93.880658 
L 191.848119 96.940413 
L 211.184059 104.865874 
L 218.931116 107.607911 
L 222.788793 108.803803 
L 226.662322 109.86402 
L 230.535851 110.777784 
L 234.393528 111.536563 
L 238.267056 112.133651 
L 242.140585 112.563896 
L 245.998262 112.823627 
L 249.871791 112.91047 
M 249.871791 56.362894 
L 255.22169 56.483714 
L 260.559985 56.855301 
L 265.909884 57.491367 
L 271.248179 58.383114 
L 276.598078 59.482911 
L 285.510709 61.565239 
L 288.858824 61.643771 
L 295.56086 62.19831 
L 305.611011 63.348565 
L 312.313047 63.885255 
L 322.363198 64.507895 
L 329.059427 65.204054 
L 335.761464 66.211432 
L 342.4635 67.26554 
L 345.811614 67.678726 
L 349.159729 67.948945 
L 362.179549 68.411728 
L 367.981948 68.985132 
L 373.784348 69.816014 
L 379.586747 70.881496 
L 387.328048 72.440932 
L 389.256887 72.7109 
L 391.20158 72.813841 
L 395.069315 72.465858 
L 402.816373 71.050177 
L 410.547578 69.491727 
L 426.025841 66.15543 
L 429.883518 65.480641 
L 437.630576 64.481321 
L 453.092987 62.84784 
L 460.840044 61.959865 
L 464.697721 61.669479 
L 468.57125 61.565239 
L 468.57125 61.565239 
" clip-path="url(#p67fedd9c86)" style="fill: none; stroke: #175487"/>
   </g>
   <g id="line2d_55">
    <path d="M 66.81125 103.359937 
L 70.159364 103.015226 
L 73.513286 102.006716 
L 76.861401 100.408038 
L 80.209515 98.33242 
L 83.563437 95.920268 
L 93.613588 88.200719 
L 96.961703 85.944279 
L 100.309817 84.03779 
L 103.663739 82.552705 
L 107.011853 81.519612 
L 110.359968 80.919538 
L 113.71389 80.685886 
L 117.062004 80.722445 
L 123.764041 81.206299 
L 130.46027 81.675524 
L 141.54543 81.814603 
L 147.347829 81.834514 
L 151.22139 81.676106 
L 155.084889 81.250483 
L 158.952628 80.565018 
L 164.755028 79.441637 
L 168.628589 78.932924 
L 172.50212 78.784668 
L 176.369856 77.911864 
L 180.243385 76.908326 
L 187.97459 75.273832 
L 203.452853 72.379591 
L 211.184059 71.153999 
L 222.788793 69.53921 
L 230.535851 68.611937 
L 238.267056 67.921907 
L 245.998262 67.555713 
L 249.871791 67.508965 
M 249.871791 67.508965 
L 253.434522 67.422759 
L 256.997253 67.169242 
L 262.347153 66.508916 
L 267.685448 65.582536 
L 274.822515 64.081104 
L 285.510709 61.565241 
L 288.858824 61.643774 
L 295.56086 62.198313 
L 305.611011 63.348568 
L 312.313047 63.885257 
L 322.363198 64.507898 
L 329.059427 65.204057 
L 335.761464 66.211434 
L 342.4635 67.265541 
L 345.811614 67.678727 
L 349.159729 67.948946 
L 362.179549 68.411729 
L 367.981948 68.985134 
L 373.784348 69.816015 
L 379.586747 70.881497 
L 387.328048 72.440934 
L 389.256887 72.710903 
L 391.20158 72.813843 
L 395.069315 72.465861 
L 402.816373 71.050179 
L 410.547578 69.491729 
L 426.025841 66.155432 
L 429.883518 65.480644 
L 437.630576 64.481324 
L 453.092987 62.847843 
L 460.840044 61.959867 
L 464.697721 61.669482 
L 468.57125 61.565241 
L 468.57125 61.565241 
" clip-path="url(#p67fedd9c86)" style="fill: none; stroke: #175487"/>
   </g>
   <g id="line2d_56">
    <path d="M 66.81125 103.359937 
L 70.159364 103.233455 
L 73.513286 102.865629 
L 76.861401 102.286058 
L 80.209515 101.532665 
L 86.911552 99.664145 
L 103.663739 94.559737 
L 110.359968 92.913296 
L 117.062004 91.667105 
L 123.764041 90.847299 
L 130.46027 90.44459 
L 135.74303 90.349639 
L 139.616591 90.001026 
L 143.480089 89.369795 
L 151.22139 87.880704 
L 155.084889 87.46891 
L 158.952628 87.483897 
L 162.82619 87.887056 
L 166.689688 88.582426 
L 170.557428 89.49619 
L 172.50212 90.019982 
L 176.369856 88.968555 
L 180.243385 88.081466 
L 184.116913 87.629132 
L 187.97459 88.068971 
L 191.848119 89.335177 
L 199.579325 92.666916 
L 211.184059 97.744112 
L 218.931116 100.735399 
L 222.788793 102.046012 
L 226.662322 103.208415 
L 230.535851 104.205597 
L 234.393528 105.021622 
L 238.267056 105.641385 
L 242.140585 106.053169 
L 245.998262 106.262228 
L 249.871791 106.316769 
M 249.871791 106.316769 
L 256.997253 106.178623 
L 271.248179 105.514496 
L 285.510709 104.777851 
L 288.858824 104.494239 
L 292.212746 103.678074 
L 295.56086 102.425838 
L 298.908975 100.876967 
L 305.611011 97.510548 
L 308.959125 95.967238 
L 312.313047 94.643999 
L 315.661162 93.584148 
L 319.009276 92.793316 
L 322.363198 92.248834 
L 325.711313 91.911428 
L 329.059427 91.735029 
L 335.761464 91.686434 
L 352.513651 91.911336 
L 354.442489 91.744361 
L 356.377149 91.298108 
L 358.31605 90.66217 
L 362.179549 89.027052 
L 366.047288 87.070196 
L 373.784348 82.723034 
L 379.586747 79.600841 
L 383.454487 77.824304 
L 385.389147 77.080833 
L 387.328048 76.473798 
L 389.256887 76.058508 
L 391.20158 75.908054 
L 395.069315 76.433586 
L 398.942844 77.601643 
L 402.816373 79.060449 
L 410.547578 82.45574 
L 422.152313 87.95545 
L 426.025841 89.63182 
L 429.883518 91.099841 
L 441.488253 94.801145 
L 445.361781 96.296369 
L 449.23531 98.032003 
L 456.966516 101.763119 
L 460.840044 103.337662 
L 464.697721 104.401436 
L 468.57125 104.777851 
L 468.57125 104.777851 
" clip-path="url(#p67fedd9c86)" style="fill: none; stroke: #175487"/>
   </g>
   <g id="line2d_57">
    <path d="M 66.81125 67.508965 
L 73.513286 67.648576 
L 80.209515 68.055541 
L 86.911552 68.690938 
L 103.663739 70.59559 
L 110.359968 71.056881 
L 123.764041 71.552687 
L 133.814191 71.731772 
L 137.67769 71.808814 
L 141.54543 72.040102 
L 145.418991 72.426139 
L 149.282489 72.967408 
L 153.150229 73.663878 
L 157.02379 74.514001 
L 162.82619 76.064785 
L 170.557428 78.469739 
L 172.50212 78.784668 
L 176.369856 79.055477 
L 180.243385 79.733888 
L 184.116913 80.764322 
L 187.97459 82.076323 
L 191.848119 83.601715 
L 199.579325 87.0576 
L 215.057588 94.320201 
L 222.788793 97.5722 
L 226.662322 99.003427 
L 230.535851 100.269878 
L 234.393528 101.346787 
L 238.267056 102.211426 
L 242.140585 102.844211 
L 245.998262 103.230198 
L 249.871791 103.359937 
M 249.871791 103.359937 
L 262.347153 103.433417 
L 269.472616 103.684034 
L 278.385247 104.26858 
L 285.510709 104.77785 
L 288.858824 104.494238 
L 292.212746 103.678073 
L 295.56086 102.425837 
L 298.908975 100.876965 
L 305.611011 97.510546 
L 308.959125 95.967234 
L 312.313047 94.643995 
L 315.661162 93.584144 
L 319.009276 92.793311 
L 322.363198 92.248829 
L 325.711313 91.911423 
L 329.059427 91.735024 
L 335.761464 91.686429 
L 352.513651 91.911331 
L 354.442489 91.744357 
L 356.377149 91.298104 
L 358.31605 90.662166 
L 362.179549 89.027048 
L 366.047288 87.070194 
L 373.784348 82.723032 
L 379.586747 79.60084 
L 383.454487 77.824303 
L 385.389147 77.080832 
L 387.328048 76.473798 
L 389.256887 76.058508 
L 391.20158 75.908054 
L 395.069315 76.433586 
L 398.942844 77.601643 
L 402.816373 79.06045 
L 410.547578 82.455741 
L 422.152313 87.95545 
L 426.025841 89.631819 
L 429.883518 91.099839 
L 441.488253 94.801142 
L 445.361781 96.296366 
L 449.23531 98.032001 
L 456.966516 101.763117 
L 460.840044 103.337661 
L 464.697721 104.401435 
L 468.57125 104.77785 
L 468.57125 104.77785 
" clip-path="url(#p67fedd9c86)" style="fill: none; stroke: #175487"/>
   </g>
   <g id="line2d_58">
    <path d="M 66.81125 54.420875 
L 70.159364 54.480893 
L 76.861401 54.946511 
L 83.563437 55.80721 
L 90.259666 56.955251 
L 96.961703 58.297774 
L 107.011853 60.594169 
L 123.764041 64.651737 
L 127.112155 65.225265 
L 130.46027 65.597846 
L 135.74303 65.734709 
L 143.480089 65.910816 
L 151.22139 66.310998 
L 170.557428 67.53985 
L 172.50212 67.558616 
L 176.369856 67.480956 
L 180.243385 67.251448 
L 184.116913 66.884128 
L 187.97459 66.391759 
L 191.848119 65.780549 
L 199.579325 64.217451 
L 207.326382 62.276907 
L 222.788793 58.09995 
L 230.535851 56.369239 
L 234.393528 55.682893 
L 238.267056 55.136776 
L 242.140585 54.740837 
L 245.998262 54.50111 
L 249.871791 54.420875 
M 249.871791 106.316769 
L 256.997253 106.178623 
L 271.248179 105.514496 
L 292.212746 104.473527 
L 295.56086 104.104757 
L 302.262896 103.007053 
L 308.959125 101.571766 
L 325.711313 97.728145 
L 332.413349 96.483945 
L 339.109578 95.54872 
L 345.811614 94.970279 
L 352.513651 94.77459 
L 354.442489 94.882156 
L 358.31605 95.496786 
L 369.92085 97.628029 
L 375.723249 98.503026 
L 381.525649 99.167158 
L 387.328048 99.551028 
L 391.20158 99.626335 
L 395.069315 99.551398 
L 398.942844 99.332766 
L 406.674049 98.547208 
L 418.278784 97.12232 
L 422.152313 96.844007 
L 426.025841 96.823027 
L 429.883518 97.162023 
L 433.757047 97.894137 
L 437.630576 98.922329 
L 445.361781 101.222599 
L 449.23531 102.263683 
L 453.092987 103.151103 
L 456.966516 103.857001 
L 460.840044 104.367218 
L 464.697721 104.675027 
L 468.57125 104.77785 
L 468.57125 104.77785 
" clip-path="url(#p67fedd9c86)" style="fill: none; stroke: #175487"/>
   </g>
   <g id="patch_3">
    <path d="M 66.81125 265.620875 
L 66.81125 43.860875 
" style="fill: none; stroke: #000000; stroke-linejoin: miter; stroke-linecap: square"/>
   </g>
   <g id="patch_4">
    <path d="M 468.57125 265.620875 
L 468.57125 43.860875 
" style="fill: none; stroke: #000000; stroke-linejoin: miter; stroke-linecap: square"/>
   </g>
   <g id="patch_5">
    <path d="M 66.81125 265.620875 
L 468.57125 265.620875 
" style="fill: none; stroke: #000000; stroke-linejoin: miter; stroke-linecap: square"/>
   </g>
   <g id="patch_6">
    <path d="M 66.81125 43.860875 
L 468.57125 43.860875 
" style="fill: none; stroke: #000000; stroke-linejoin: miter; stroke-linecap: square"/>
   </g>
   <g id="text_16">
    <!-- GaN -->
    <g transform="translate(245.485437 29.860875) scale(0.216 -0.216)">
     <defs>
      <path id="ArialMT-47" d="M 2638 1797 
L 2638 2334 
L 4578 2338 
L 4578 638 
Q 4131 281 3656 101 
Q 3181 -78 2681 -78 
Q 2006 -78 1454 211 
Q 903 500 622 1047 
Q 341 1594 341 2269 
Q 341 2938 620 3517 
Q 900 4097 1425 4378 
Q 1950 4659 2634 4659 
Q 3131 4659 3532 4498 
Q 3934 4338 4162 4050 
Q 4391 3763 4509 3300 
L 3963 3150 
Q 3859 3500 3706 3700 
Q 3553 3900 3268 4020 
Q 2984 4141 2638 4141 
Q 2222 4141 1919 4014 
Q 1616 3888 1430 3681 
Q 1244 3475 1141 3228 
Q 966 2803 966 2306 
Q 966 1694 1177 1281 
Q 1388 869 1791 669 
Q 2194 469 2647 469 
Q 3041 469 3416 620 
Q 3791 772 3984 944 
L 3984 1797 
L 2638 1797 
z
" transform="scale(0.015625)"/>
      <path id="ArialMT-4e" d="M 488 0 
L 488 4581 
L 1109 4581 
L 3516 984 
L 3516 4581 
L 4097 4581 
L 4097 0 
L 3475 0 
L 1069 3600 
L 1069 0 
L 488 0 
z
" transform="scale(0.015625)"/>
     </defs>
     <use xlink:href="#ArialMT-47"/>
     <use xlink:href="#ArialMT-61" x="77.783203"/>
     <use xlink:href="#ArialMT-4e" x="133.398438"/>
    </g>
   </g>
  </g>
 </g>
 <defs>
  <clipPath id="p67fedd9c86">
   <rect x="66.81125" y="43.860875" width="401.76" height="221.76"/>
  </clipPath>
 </defs>
</svg>
