<?xml version="1.0" encoding="utf-8" standalone="no"?>
<!DOCTYPE svg PUBLIC "-//W3C//DTD SVG 1.1//EN"
  "http://www.w3.org/Graphics/SVG/1.1/DTD/svg11.dtd">
<svg xmlns:xlink="http://www.w3.org/1999/xlink" width="489.00125pt" height="328.444pt" viewBox="0 0 489.00125 328.444" xmlns="http://www.w3.org/2000/svg" version="1.1">
 <metadata>
  <rdf:RDF xmlns:dc="http://purl.org/dc/elements/1.1/" xmlns:cc="http://creativecommons.org/ns#" xmlns:rdf="http://www.w3.org/1999/02/22-rdf-syntax-ns#">
   <cc:Work>
    <dc:type rdf:resource="http://purl.org/dc/dcmitype/StillImage"/>
    <dc:date>2024-07-24T14:24:32.189462</dc:date>
    <dc:format>image/svg+xml</dc:format>
    <dc:creator>
     <cc:Agent>
      <dc:title>Matplotlib v3.8.0, https://matplotlib.org/</dc:title>
     </cc:Agent>
    </dc:creator>
   </cc:Work>
  </rdf:RDF>
 </metadata>
 <defs>
  <style type="text/css">*{stroke-linejoin: round; stroke-linecap: butt}</style>
 </defs>
 <g id="figure_1">
  <g id="patch_1">
   <path d="M 0 328.444 
L 489.00125 328.444 
L 489.00125 0 
L 0 0 
z
" style="fill: #ffffff"/>
  </g>
  <g id="axes_1">
   <g id="patch_2">
    <path d="M 66.81125 265.620875 
L 468.57125 265.620875 
L 468.57125 43.860875 
L 66.81125 43.860875 
z
" style="fill: #ffffff"/>
   </g>
   <g id="matplotlib.axis_1">
    <g id="xtick_1">
     <g id="line2d_1">
      <path d="M 66.81125 265.620875 
L 66.81125 43.860875 
" clip-path="url(#pafa92442da)" style="fill: none; stroke: #000000; stroke-width: 0.8"/>
     </g>
     <g id="text_1">
      <!-- $\mathrm{\Gamma}$ -->
      <g transform="translate(61.77125 288.004938) scale(0.18 -0.18)">
       <defs>
        <path id="ArialMT-393" d="M 513 4581 
L 3375 4581 
L 3375 4041 
L 1119 4041 
L 1119 0 
L 513 0 
L 513 4581 
z
" transform="scale(0.015625)"/>
       </defs>
       <use xlink:href="#ArialMT-393" transform="translate(0 0.421875)"/>
      </g>
     </g>
    </g>
    <g id="xtick_2">
     <g id="line2d_2">
      <path d="M 133.813475 265.620875 
L 133.813475 43.860875 
" clip-path="url(#pafa92442da)" style="fill: none; stroke: #000000; stroke-width: 0.8"/>
     </g>
     <g id="text_2">
      <!-- $\mathrm{M}$ -->
      <g transform="translate(126.253475 288.004938) scale(0.18 -0.18)">
       <defs>
        <path id="ArialMT-4d" d="M 475 0 
L 475 4581 
L 1388 4581 
L 2472 1338 
Q 2622 884 2691 659 
Q 2769 909 2934 1394 
L 4031 4581 
L 4847 4581 
L 4847 0 
L 4263 0 
L 4263 3834 
L 2931 0 
L 2384 0 
L 1059 3900 
L 1059 0 
L 475 0 
z
" transform="scale(0.015625)"/>
       </defs>
       <use xlink:href="#ArialMT-4d" transform="translate(0 0.421875)"/>
      </g>
     </g>
    </g>
    <g id="xtick_3">
     <g id="line2d_3">
      <path d="M 172.503474 265.620875 
L 172.503474 43.860875 
" clip-path="url(#pafa92442da)" style="fill: none; stroke: #000000; stroke-width: 0.8"/>
     </g>
     <g id="text_3">
      <!-- $\mathrm{K}$ -->
      <g transform="translate(166.473474 288.004938) scale(0.18 -0.18)">
       <defs>
        <path id="ArialMT-4b" d="M 469 0 
L 469 4581 
L 1075 4581 
L 1075 2309 
L 3350 4581 
L 4172 4581 
L 2250 2725 
L 4256 0 
L 3456 0 
L 1825 2319 
L 1075 1588 
L 1075 0 
L 469 0 
z
" transform="scale(0.015625)"/>
       </defs>
       <use xlink:href="#ArialMT-4b" transform="translate(0 0.421875)"/>
      </g>
     </g>
    </g>
    <g id="xtick_4">
     <g id="line2d_4">
      <path d="M 249.872191 265.620875 
L 249.872191 43.860875 
" clip-path="url(#pafa92442da)" style="fill: none; stroke: #000000; stroke-width: 0.8"/>
     </g>
     <g id="text_4">
      <!-- $\mathrm{\Gamma}$ -->
      <g transform="translate(244.832191 288.004938) scale(0.18 -0.18)">
       <use xlink:href="#ArialMT-393" transform="translate(0 0.421875)"/>
      </g>
     </g>
    </g>
    <g id="xtick_5">
     <g id="line2d_5">
      <path d="M 285.510309 265.620875 
L 285.510309 43.860875 
" clip-path="url(#pafa92442da)" style="fill: none; stroke: #000000; stroke-width: 0.8"/>
     </g>
     <g id="text_5">
      <!-- $\mathrm{A}$ -->
      <g transform="translate(279.480309 288.004938) scale(0.18 -0.18)">
       <defs>
        <path id="ArialMT-41" d="M -9 0 
L 1750 4581 
L 2403 4581 
L 4278 0 
L 3588 0 
L 3053 1388 
L 1138 1388 
L 634 0 
L -9 0 
z
M 1313 1881 
L 2866 1881 
L 2388 3150 
Q 2169 3728 2063 4100 
Q 1975 3659 1816 3225 
L 1313 1881 
z
" transform="scale(0.015625)"/>
       </defs>
       <use xlink:href="#ArialMT-41" transform="translate(0 0.421875)"/>
      </g>
     </g>
    </g>
    <g id="xtick_6">
     <g id="line2d_6">
      <path d="M 352.512534 265.620875 
L 352.512534 43.860875 
" clip-path="url(#pafa92442da)" style="fill: none; stroke: #000000; stroke-width: 0.8"/>
     </g>
     <g id="text_6">
      <!-- $\mathrm{L}$ -->
      <g transform="translate(347.472534 288.004938) scale(0.18 -0.18)">
       <defs>
        <path id="ArialMT-4c" d="M 469 0 
L 469 4581 
L 1075 4581 
L 1075 541 
L 3331 541 
L 3331 0 
L 469 0 
z
" transform="scale(0.015625)"/>
       </defs>
       <use xlink:href="#ArialMT-4c" transform="translate(0 0.421875)"/>
      </g>
     </g>
    </g>
    <g id="xtick_7">
     <g id="line2d_7">
      <path d="M 391.202533 265.620875 
L 391.202533 43.860875 
" clip-path="url(#pafa92442da)" style="fill: none; stroke: #000000; stroke-width: 0.8"/>
     </g>
     <g id="text_7">
      <!-- $\mathrm{H}$ -->
      <g transform="translate(384.632533 288.004938) scale(0.18 -0.18)">
       <defs>
        <path id="ArialMT-48" d="M 513 0 
L 513 4581 
L 1119 4581 
L 1119 2700 
L 3500 2700 
L 3500 4581 
L 4106 4581 
L 4106 0 
L 3500 0 
L 3500 2159 
L 1119 2159 
L 1119 0 
L 513 0 
z
" transform="scale(0.015625)"/>
       </defs>
       <use xlink:href="#ArialMT-48" transform="translate(0 0.421875)"/>
      </g>
     </g>
    </g>
    <g id="xtick_8">
     <g id="line2d_8">
      <path d="M 468.57125 265.620875 
L 468.57125 43.860875 
" clip-path="url(#pafa92442da)" style="fill: none; stroke: #000000; stroke-width: 0.8"/>
     </g>
     <g id="text_8">
      <!-- $\mathrm{A}$ -->
      <g transform="translate(462.54125 288.004938) scale(0.18 -0.18)">
       <use xlink:href="#ArialMT-41" transform="translate(0 0.421875)"/>
      </g>
     </g>
    </g>
    <g id="xtick_9"/>
    <g id="xtick_10"/>
    <g id="xtick_11"/>
    <g id="xtick_12"/>
    <g id="xtick_13"/>
    <g id="xtick_14"/>
    <g id="xtick_15"/>
    <g id="xtick_16"/>
    <g id="xtick_17"/>
    <g id="xtick_18"/>
    <g id="xtick_19"/>
    <g id="xtick_20"/>
    <g id="xtick_21"/>
    <g id="xtick_22"/>
    <g id="xtick_23"/>
    <g id="xtick_24"/>
    <g id="xtick_25"/>
    <g id="xtick_26"/>
    <g id="xtick_27"/>
    <g id="xtick_28"/>
    <g id="xtick_29"/>
    <g id="xtick_30"/>
    <g id="text_9">
     <!-- Wavenumber -->
     <g transform="translate(214.511094 310.4665) scale(0.18 -0.18)">
      <defs>
       <path id="ArialMT-57" d="M 1294 0 
L 78 4581 
L 700 4581 
L 1397 1578 
Q 1509 1106 1591 641 
Q 1766 1375 1797 1488 
L 2669 4581 
L 3400 4581 
L 4056 2263 
Q 4303 1400 4413 641 
Q 4500 1075 4641 1638 
L 5359 4581 
L 5969 4581 
L 4713 0 
L 4128 0 
L 3163 3491 
Q 3041 3928 3019 4028 
Q 2947 3713 2884 3491 
L 1913 0 
L 1294 0 
z
" transform="scale(0.015625)"/>
       <path id="ArialMT-61" d="M 2588 409 
Q 2275 144 1986 34 
Q 1697 -75 1366 -75 
Q 819 -75 525 192 
Q 231 459 231 875 
Q 231 1119 342 1320 
Q 453 1522 633 1644 
Q 813 1766 1038 1828 
Q 1203 1872 1538 1913 
Q 2219 1994 2541 2106 
Q 2544 2222 2544 2253 
Q 2544 2597 2384 2738 
Q 2169 2928 1744 2928 
Q 1347 2928 1158 2789 
Q 969 2650 878 2297 
L 328 2372 
Q 403 2725 575 2942 
Q 747 3159 1072 3276 
Q 1397 3394 1825 3394 
Q 2250 3394 2515 3294 
Q 2781 3194 2906 3042 
Q 3031 2891 3081 2659 
Q 3109 2516 3109 2141 
L 3109 1391 
Q 3109 606 3145 398 
Q 3181 191 3288 0 
L 2700 0 
Q 2613 175 2588 409 
z
M 2541 1666 
Q 2234 1541 1622 1453 
Q 1275 1403 1131 1340 
Q 988 1278 909 1158 
Q 831 1038 831 891 
Q 831 666 1001 516 
Q 1172 366 1500 366 
Q 1825 366 2078 508 
Q 2331 650 2450 897 
Q 2541 1088 2541 1459 
L 2541 1666 
z
" transform="scale(0.015625)"/>
       <path id="ArialMT-76" d="M 1344 0 
L 81 3319 
L 675 3319 
L 1388 1331 
Q 1503 1009 1600 663 
Q 1675 925 1809 1294 
L 2547 3319 
L 3125 3319 
L 1869 0 
L 1344 0 
z
" transform="scale(0.015625)"/>
       <path id="ArialMT-65" d="M 2694 1069 
L 3275 997 
Q 3138 488 2766 206 
Q 2394 -75 1816 -75 
Q 1088 -75 661 373 
Q 234 822 234 1631 
Q 234 2469 665 2931 
Q 1097 3394 1784 3394 
Q 2450 3394 2872 2941 
Q 3294 2488 3294 1666 
Q 3294 1616 3291 1516 
L 816 1516 
Q 847 969 1125 678 
Q 1403 388 1819 388 
Q 2128 388 2347 550 
Q 2566 713 2694 1069 
z
M 847 1978 
L 2700 1978 
Q 2663 2397 2488 2606 
Q 2219 2931 1791 2931 
Q 1403 2931 1139 2672 
Q 875 2413 847 1978 
z
" transform="scale(0.015625)"/>
       <path id="ArialMT-6e" d="M 422 0 
L 422 3319 
L 928 3319 
L 928 2847 
Q 1294 3394 1984 3394 
Q 2284 3394 2536 3286 
Q 2788 3178 2913 3003 
Q 3038 2828 3088 2588 
Q 3119 2431 3119 2041 
L 3119 0 
L 2556 0 
L 2556 2019 
Q 2556 2363 2490 2533 
Q 2425 2703 2258 2804 
Q 2091 2906 1866 2906 
Q 1506 2906 1245 2678 
Q 984 2450 984 1813 
L 984 0 
L 422 0 
z
" transform="scale(0.015625)"/>
       <path id="ArialMT-75" d="M 2597 0 
L 2597 488 
Q 2209 -75 1544 -75 
Q 1250 -75 995 37 
Q 741 150 617 320 
Q 494 491 444 738 
Q 409 903 409 1263 
L 409 3319 
L 972 3319 
L 972 1478 
Q 972 1038 1006 884 
Q 1059 663 1231 536 
Q 1403 409 1656 409 
Q 1909 409 2131 539 
Q 2353 669 2445 892 
Q 2538 1116 2538 1541 
L 2538 3319 
L 3100 3319 
L 3100 0 
L 2597 0 
z
" transform="scale(0.015625)"/>
       <path id="ArialMT-6d" d="M 422 0 
L 422 3319 
L 925 3319 
L 925 2853 
Q 1081 3097 1340 3245 
Q 1600 3394 1931 3394 
Q 2300 3394 2536 3241 
Q 2772 3088 2869 2813 
Q 3263 3394 3894 3394 
Q 4388 3394 4653 3120 
Q 4919 2847 4919 2278 
L 4919 0 
L 4359 0 
L 4359 2091 
Q 4359 2428 4304 2576 
Q 4250 2725 4106 2815 
Q 3963 2906 3769 2906 
Q 3419 2906 3187 2673 
Q 2956 2441 2956 1928 
L 2956 0 
L 2394 0 
L 2394 2156 
Q 2394 2531 2256 2718 
Q 2119 2906 1806 2906 
Q 1569 2906 1367 2781 
Q 1166 2656 1075 2415 
Q 984 2175 984 1722 
L 984 0 
L 422 0 
z
" transform="scale(0.015625)"/>
       <path id="ArialMT-62" d="M 941 0 
L 419 0 
L 419 4581 
L 981 4581 
L 981 2947 
Q 1338 3394 1891 3394 
Q 2197 3394 2470 3270 
Q 2744 3147 2920 2923 
Q 3097 2700 3197 2384 
Q 3297 2069 3297 1709 
Q 3297 856 2875 390 
Q 2453 -75 1863 -75 
Q 1275 -75 941 416 
L 941 0 
z
M 934 1684 
Q 934 1088 1097 822 
Q 1363 388 1816 388 
Q 2184 388 2453 708 
Q 2722 1028 2722 1663 
Q 2722 2313 2464 2622 
Q 2206 2931 1841 2931 
Q 1472 2931 1203 2611 
Q 934 2291 934 1684 
z
" transform="scale(0.015625)"/>
       <path id="ArialMT-72" d="M 416 0 
L 416 3319 
L 922 3319 
L 922 2816 
Q 1116 3169 1280 3281 
Q 1444 3394 1641 3394 
Q 1925 3394 2219 3213 
L 2025 2691 
Q 1819 2813 1613 2813 
Q 1428 2813 1281 2702 
Q 1134 2591 1072 2394 
Q 978 2094 978 1738 
L 978 0 
L 416 0 
z
" transform="scale(0.015625)"/>
      </defs>
      <use xlink:href="#ArialMT-57"/>
      <use xlink:href="#ArialMT-61" x="90.634766"/>
      <use xlink:href="#ArialMT-76" x="146.25"/>
      <use xlink:href="#ArialMT-65" x="196.25"/>
      <use xlink:href="#ArialMT-6e" x="251.865234"/>
      <use xlink:href="#ArialMT-75" x="307.480469"/>
      <use xlink:href="#ArialMT-6d" x="363.095703"/>
      <use xlink:href="#ArialMT-62" x="446.396484"/>
      <use xlink:href="#ArialMT-65" x="502.011719"/>
      <use xlink:href="#ArialMT-72" x="557.626953"/>
     </g>
    </g>
   </g>
   <g id="matplotlib.axis_2">
    <g id="ytick_1">
     <g id="line2d_9">
      <defs>
       <path id="ma775e60fc1" d="M 0 0 
L -6 0 
" style="stroke: #000000"/>
      </defs>
      <g>
       <use xlink:href="#ma775e60fc1" x="66.81125" y="265.620875" style="fill-opacity: 0; stroke: #000000"/>
      </g>
     </g>
     <g id="line2d_10">
      <defs>
       <path id="m47ebba78cd" d="M 0 0 
L 6 0 
" style="stroke: #000000"/>
      </defs>
      <g>
       <use xlink:href="#m47ebba78cd" x="468.57125" y="265.620875" style="fill-opacity: 0; stroke: #000000"/>
      </g>
     </g>
     <g id="text_10">
      <!-- 0 -->
      <g transform="translate(47.301563 272.062906) scale(0.18 -0.18)">
       <defs>
        <path id="ArialMT-30" d="M 266 2259 
Q 266 3072 433 3567 
Q 600 4063 929 4331 
Q 1259 4600 1759 4600 
Q 2128 4600 2406 4451 
Q 2684 4303 2865 4023 
Q 3047 3744 3150 3342 
Q 3253 2941 3253 2259 
Q 3253 1453 3087 958 
Q 2922 463 2592 192 
Q 2263 -78 1759 -78 
Q 1097 -78 719 397 
Q 266 969 266 2259 
z
M 844 2259 
Q 844 1131 1108 757 
Q 1372 384 1759 384 
Q 2147 384 2411 759 
Q 2675 1134 2675 2259 
Q 2675 3391 2411 3762 
Q 2147 4134 1753 4134 
Q 1366 4134 1134 3806 
Q 844 3388 844 2259 
z
" transform="scale(0.015625)"/>
       </defs>
       <use xlink:href="#ArialMT-30"/>
      </g>
     </g>
    </g>
    <g id="ytick_2">
     <g id="line2d_11">
      <g>
       <use xlink:href="#ma775e60fc1" x="66.81125" y="218.80394" style="fill-opacity: 0; stroke: #000000"/>
      </g>
     </g>
     <g id="line2d_12">
      <g>
       <use xlink:href="#m47ebba78cd" x="468.57125" y="218.80394" style="fill-opacity: 0; stroke: #000000"/>
      </g>
     </g>
     <g id="text_11">
      <!-- 20 -->
      <g transform="translate(37.291875 225.245971) scale(0.18 -0.18)">
       <defs>
        <path id="ArialMT-32" d="M 3222 541 
L 3222 0 
L 194 0 
Q 188 203 259 391 
Q 375 700 629 1000 
Q 884 1300 1366 1694 
Q 2113 2306 2375 2664 
Q 2638 3022 2638 3341 
Q 2638 3675 2398 3904 
Q 2159 4134 1775 4134 
Q 1369 4134 1125 3890 
Q 881 3647 878 3216 
L 300 3275 
Q 359 3922 746 4261 
Q 1134 4600 1788 4600 
Q 2447 4600 2831 4234 
Q 3216 3869 3216 3328 
Q 3216 3053 3103 2787 
Q 2991 2522 2730 2228 
Q 2469 1934 1863 1422 
Q 1356 997 1212 845 
Q 1069 694 975 541 
L 3222 541 
z
" transform="scale(0.015625)"/>
       </defs>
       <use xlink:href="#ArialMT-32"/>
       <use xlink:href="#ArialMT-30" x="55.615234"/>
      </g>
     </g>
    </g>
    <g id="ytick_3">
     <g id="line2d_13">
      <g>
       <use xlink:href="#ma775e60fc1" x="66.81125" y="171.987004" style="fill-opacity: 0; stroke: #000000"/>
      </g>
     </g>
     <g id="line2d_14">
      <g>
       <use xlink:href="#m47ebba78cd" x="468.57125" y="171.987004" style="fill-opacity: 0; stroke: #000000"/>
      </g>
     </g>
     <g id="text_12">
      <!-- 40 -->
      <g transform="translate(37.291875 178.429035) scale(0.18 -0.18)">
       <defs>
        <path id="ArialMT-34" d="M 2069 0 
L 2069 1097 
L 81 1097 
L 81 1613 
L 2172 4581 
L 2631 4581 
L 2631 1613 
L 3250 1613 
L 3250 1097 
L 2631 1097 
L 2631 0 
L 2069 0 
z
M 2069 1613 
L 2069 3678 
L 634 1613 
L 2069 1613 
z
" transform="scale(0.015625)"/>
       </defs>
       <use xlink:href="#ArialMT-34"/>
       <use xlink:href="#ArialMT-30" x="55.615234"/>
      </g>
     </g>
    </g>
    <g id="ytick_4">
     <g id="line2d_15">
      <g>
       <use xlink:href="#ma775e60fc1" x="66.81125" y="125.170069" style="fill-opacity: 0; stroke: #000000"/>
      </g>
     </g>
     <g id="line2d_16">
      <g>
       <use xlink:href="#m47ebba78cd" x="468.57125" y="125.170069" style="fill-opacity: 0; stroke: #000000"/>
      </g>
     </g>
     <g id="text_13">
      <!-- 60 -->
      <g transform="translate(37.291875 131.6121) scale(0.18 -0.18)">
       <defs>
        <path id="ArialMT-36" d="M 3184 3459 
L 2625 3416 
Q 2550 3747 2413 3897 
Q 2184 4138 1850 4138 
Q 1581 4138 1378 3988 
Q 1113 3794 959 3422 
Q 806 3050 800 2363 
Q 1003 2672 1297 2822 
Q 1591 2972 1913 2972 
Q 2475 2972 2870 2558 
Q 3266 2144 3266 1488 
Q 3266 1056 3080 686 
Q 2894 316 2569 119 
Q 2244 -78 1831 -78 
Q 1128 -78 684 439 
Q 241 956 241 2144 
Q 241 3472 731 4075 
Q 1159 4600 1884 4600 
Q 2425 4600 2770 4297 
Q 3116 3994 3184 3459 
z
M 888 1484 
Q 888 1194 1011 928 
Q 1134 663 1356 523 
Q 1578 384 1822 384 
Q 2178 384 2434 671 
Q 2691 959 2691 1453 
Q 2691 1928 2437 2201 
Q 2184 2475 1800 2475 
Q 1419 2475 1153 2201 
Q 888 1928 888 1484 
z
" transform="scale(0.015625)"/>
       </defs>
       <use xlink:href="#ArialMT-36"/>
       <use xlink:href="#ArialMT-30" x="55.615234"/>
      </g>
     </g>
    </g>
    <g id="ytick_5">
     <g id="line2d_17">
      <g>
       <use xlink:href="#ma775e60fc1" x="66.81125" y="78.353133" style="fill-opacity: 0; stroke: #000000"/>
      </g>
     </g>
     <g id="line2d_18">
      <g>
       <use xlink:href="#m47ebba78cd" x="468.57125" y="78.353133" style="fill-opacity: 0; stroke: #000000"/>
      </g>
     </g>
     <g id="text_14">
      <!-- 80 -->
      <g transform="translate(37.291875 84.795164) scale(0.18 -0.18)">
       <defs>
        <path id="ArialMT-38" d="M 1131 2484 
Q 781 2613 612 2850 
Q 444 3088 444 3419 
Q 444 3919 803 4259 
Q 1163 4600 1759 4600 
Q 2359 4600 2725 4251 
Q 3091 3903 3091 3403 
Q 3091 3084 2923 2848 
Q 2756 2613 2416 2484 
Q 2838 2347 3058 2040 
Q 3278 1734 3278 1309 
Q 3278 722 2862 322 
Q 2447 -78 1769 -78 
Q 1091 -78 675 323 
Q 259 725 259 1325 
Q 259 1772 486 2073 
Q 713 2375 1131 2484 
z
M 1019 3438 
Q 1019 3113 1228 2906 
Q 1438 2700 1772 2700 
Q 2097 2700 2305 2904 
Q 2513 3109 2513 3406 
Q 2513 3716 2298 3927 
Q 2084 4138 1766 4138 
Q 1444 4138 1231 3931 
Q 1019 3725 1019 3438 
z
M 838 1322 
Q 838 1081 952 856 
Q 1066 631 1291 507 
Q 1516 384 1775 384 
Q 2178 384 2440 643 
Q 2703 903 2703 1303 
Q 2703 1709 2433 1975 
Q 2163 2241 1756 2241 
Q 1359 2241 1098 1978 
Q 838 1716 838 1322 
z
" transform="scale(0.015625)"/>
       </defs>
       <use xlink:href="#ArialMT-38"/>
       <use xlink:href="#ArialMT-30" x="55.615234"/>
      </g>
     </g>
    </g>
    <g id="ytick_6">
     <g id="line2d_19">
      <defs>
       <path id="m2e04790ce6" d="M 0 0 
L -3 0 
" style="stroke: #000000"/>
      </defs>
      <g>
       <use xlink:href="#m2e04790ce6" x="66.81125" y="253.916641" style="fill-opacity: 0; stroke: #000000"/>
      </g>
     </g>
     <g id="line2d_20">
      <defs>
       <path id="m9f92e41aac" d="M 0 0 
L 3 0 
" style="stroke: #000000"/>
      </defs>
      <g>
       <use xlink:href="#m9f92e41aac" x="468.57125" y="253.916641" style="fill-opacity: 0; stroke: #000000"/>
      </g>
     </g>
    </g>
    <g id="ytick_7">
     <g id="line2d_21">
      <g>
       <use xlink:href="#m2e04790ce6" x="66.81125" y="242.212407" style="fill-opacity: 0; stroke: #000000"/>
      </g>
     </g>
     <g id="line2d_22">
      <g>
       <use xlink:href="#m9f92e41aac" x="468.57125" y="242.212407" style="fill-opacity: 0; stroke: #000000"/>
      </g>
     </g>
    </g>
    <g id="ytick_8">
     <g id="line2d_23">
      <g>
       <use xlink:href="#m2e04790ce6" x="66.81125" y="230.508173" style="fill-opacity: 0; stroke: #000000"/>
      </g>
     </g>
     <g id="line2d_24">
      <g>
       <use xlink:href="#m9f92e41aac" x="468.57125" y="230.508173" style="fill-opacity: 0; stroke: #000000"/>
      </g>
     </g>
    </g>
    <g id="ytick_9">
     <g id="line2d_25">
      <g>
       <use xlink:href="#m2e04790ce6" x="66.81125" y="207.099706" style="fill-opacity: 0; stroke: #000000"/>
      </g>
     </g>
     <g id="line2d_26">
      <g>
       <use xlink:href="#m9f92e41aac" x="468.57125" y="207.099706" style="fill-opacity: 0; stroke: #000000"/>
      </g>
     </g>
    </g>
    <g id="ytick_10">
     <g id="line2d_27">
      <g>
       <use xlink:href="#m2e04790ce6" x="66.81125" y="195.395472" style="fill-opacity: 0; stroke: #000000"/>
      </g>
     </g>
     <g id="line2d_28">
      <g>
       <use xlink:href="#m9f92e41aac" x="468.57125" y="195.395472" style="fill-opacity: 0; stroke: #000000"/>
      </g>
     </g>
    </g>
    <g id="ytick_11">
     <g id="line2d_29">
      <g>
       <use xlink:href="#m2e04790ce6" x="66.81125" y="183.691238" style="fill-opacity: 0; stroke: #000000"/>
      </g>
     </g>
     <g id="line2d_30">
      <g>
       <use xlink:href="#m9f92e41aac" x="468.57125" y="183.691238" style="fill-opacity: 0; stroke: #000000"/>
      </g>
     </g>
    </g>
    <g id="ytick_12">
     <g id="line2d_31">
      <g>
       <use xlink:href="#m2e04790ce6" x="66.81125" y="160.28277" style="fill-opacity: 0; stroke: #000000"/>
      </g>
     </g>
     <g id="line2d_32">
      <g>
       <use xlink:href="#m9f92e41aac" x="468.57125" y="160.28277" style="fill-opacity: 0; stroke: #000000"/>
      </g>
     </g>
    </g>
    <g id="ytick_13">
     <g id="line2d_33">
      <g>
       <use xlink:href="#m2e04790ce6" x="66.81125" y="148.578536" style="fill-opacity: 0; stroke: #000000"/>
      </g>
     </g>
     <g id="line2d_34">
      <g>
       <use xlink:href="#m9f92e41aac" x="468.57125" y="148.578536" style="fill-opacity: 0; stroke: #000000"/>
      </g>
     </g>
    </g>
    <g id="ytick_14">
     <g id="line2d_35">
      <g>
       <use xlink:href="#m2e04790ce6" x="66.81125" y="136.874302" style="fill-opacity: 0; stroke: #000000"/>
      </g>
     </g>
     <g id="line2d_36">
      <g>
       <use xlink:href="#m9f92e41aac" x="468.57125" y="136.874302" style="fill-opacity: 0; stroke: #000000"/>
      </g>
     </g>
    </g>
    <g id="ytick_15">
     <g id="line2d_37">
      <g>
       <use xlink:href="#m2e04790ce6" x="66.81125" y="113.465835" style="fill-opacity: 0; stroke: #000000"/>
      </g>
     </g>
     <g id="line2d_38">
      <g>
       <use xlink:href="#m9f92e41aac" x="468.57125" y="113.465835" style="fill-opacity: 0; stroke: #000000"/>
      </g>
     </g>
    </g>
    <g id="ytick_16">
     <g id="line2d_39">
      <g>
       <use xlink:href="#m2e04790ce6" x="66.81125" y="101.761601" style="fill-opacity: 0; stroke: #000000"/>
      </g>
     </g>
     <g id="line2d_40">
      <g>
       <use xlink:href="#m9f92e41aac" x="468.57125" y="101.761601" style="fill-opacity: 0; stroke: #000000"/>
      </g>
     </g>
    </g>
    <g id="ytick_17">
     <g id="line2d_41">
      <g>
       <use xlink:href="#m2e04790ce6" x="66.81125" y="90.057367" style="fill-opacity: 0; stroke: #000000"/>
      </g>
     </g>
     <g id="line2d_42">
      <g>
       <use xlink:href="#m9f92e41aac" x="468.57125" y="90.057367" style="fill-opacity: 0; stroke: #000000"/>
      </g>
     </g>
    </g>
    <g id="ytick_18">
     <g id="line2d_43">
      <g>
       <use xlink:href="#m2e04790ce6" x="66.81125" y="66.648899" style="fill-opacity: 0; stroke: #000000"/>
      </g>
     </g>
     <g id="line2d_44">
      <g>
       <use xlink:href="#m9f92e41aac" x="468.57125" y="66.648899" style="fill-opacity: 0; stroke: #000000"/>
      </g>
     </g>
    </g>
    <g id="ytick_19">
     <g id="line2d_45">
      <g>
       <use xlink:href="#m2e04790ce6" x="66.81125" y="54.944665" style="fill-opacity: 0; stroke: #000000"/>
      </g>
     </g>
     <g id="line2d_46">
      <g>
       <use xlink:href="#m9f92e41aac" x="468.57125" y="54.944665" style="fill-opacity: 0; stroke: #000000"/>
      </g>
     </g>
    </g>
    <g id="text_15">
     <!-- Energy (meV) -->
     <g transform="translate(27.503438 210.254) rotate(-90) scale(0.18 -0.18)">
      <defs>
       <path id="ArialMT-45" d="M 506 0 
L 506 4581 
L 3819 4581 
L 3819 4041 
L 1113 4041 
L 1113 2638 
L 3647 2638 
L 3647 2100 
L 1113 2100 
L 1113 541 
L 3925 541 
L 3925 0 
L 506 0 
z
" transform="scale(0.015625)"/>
       <path id="ArialMT-67" d="M 319 -275 
L 866 -356 
Q 900 -609 1056 -725 
Q 1266 -881 1628 -881 
Q 2019 -881 2231 -725 
Q 2444 -569 2519 -288 
Q 2563 -116 2559 434 
Q 2191 0 1641 0 
Q 956 0 581 494 
Q 206 988 206 1678 
Q 206 2153 378 2554 
Q 550 2956 876 3175 
Q 1203 3394 1644 3394 
Q 2231 3394 2613 2919 
L 2613 3319 
L 3131 3319 
L 3131 450 
Q 3131 -325 2973 -648 
Q 2816 -972 2473 -1159 
Q 2131 -1347 1631 -1347 
Q 1038 -1347 672 -1080 
Q 306 -813 319 -275 
z
M 784 1719 
Q 784 1066 1043 766 
Q 1303 466 1694 466 
Q 2081 466 2343 764 
Q 2606 1063 2606 1700 
Q 2606 2309 2336 2618 
Q 2066 2928 1684 2928 
Q 1309 2928 1046 2623 
Q 784 2319 784 1719 
z
" transform="scale(0.015625)"/>
       <path id="ArialMT-79" d="M 397 -1278 
L 334 -750 
Q 519 -800 656 -800 
Q 844 -800 956 -737 
Q 1069 -675 1141 -563 
Q 1194 -478 1313 -144 
Q 1328 -97 1363 -6 
L 103 3319 
L 709 3319 
L 1400 1397 
Q 1534 1031 1641 628 
Q 1738 1016 1872 1384 
L 2581 3319 
L 3144 3319 
L 1881 -56 
Q 1678 -603 1566 -809 
Q 1416 -1088 1222 -1217 
Q 1028 -1347 759 -1347 
Q 597 -1347 397 -1278 
z
" transform="scale(0.015625)"/>
       <path id="ArialMT-20" transform="scale(0.015625)"/>
       <path id="ArialMT-28" d="M 1497 -1347 
Q 1031 -759 709 28 
Q 388 816 388 1659 
Q 388 2403 628 3084 
Q 909 3875 1497 4659 
L 1900 4659 
Q 1522 4009 1400 3731 
Q 1209 3300 1100 2831 
Q 966 2247 966 1656 
Q 966 153 1900 -1347 
L 1497 -1347 
z
" transform="scale(0.015625)"/>
       <path id="ArialMT-56" d="M 1803 0 
L 28 4581 
L 684 4581 
L 1875 1253 
Q 2019 853 2116 503 
Q 2222 878 2363 1253 
L 3600 4581 
L 4219 4581 
L 2425 0 
L 1803 0 
z
" transform="scale(0.015625)"/>
       <path id="ArialMT-29" d="M 791 -1347 
L 388 -1347 
Q 1322 153 1322 1656 
Q 1322 2244 1188 2822 
Q 1081 3291 891 3722 
Q 769 4003 388 4659 
L 791 4659 
Q 1378 3875 1659 3084 
Q 1900 2403 1900 1659 
Q 1900 816 1576 28 
Q 1253 -759 791 -1347 
z
" transform="scale(0.015625)"/>
      </defs>
      <use xlink:href="#ArialMT-45"/>
      <use xlink:href="#ArialMT-6e" x="66.699219"/>
      <use xlink:href="#ArialMT-65" x="122.314453"/>
      <use xlink:href="#ArialMT-72" x="177.929688"/>
      <use xlink:href="#ArialMT-67" x="211.230469"/>
      <use xlink:href="#ArialMT-79" x="266.845703"/>
      <use xlink:href="#ArialMT-20" x="316.845703"/>
      <use xlink:href="#ArialMT-28" x="344.628906"/>
      <use xlink:href="#ArialMT-6d" x="377.929688"/>
      <use xlink:href="#ArialMT-65" x="461.230469"/>
      <use xlink:href="#ArialMT-56" x="516.845703"/>
      <use xlink:href="#ArialMT-29" x="583.544922"/>
     </g>
    </g>
   </g>
   <g id="line2d_47">
    <path d="M 66.81125 265.620873 
L 67.482019 266.158325 
L 68.152789 264.50627 
L 70.15935 261.854981 
L 75.519758 255.469257 
L 82.221704 247.856673 
L 87.582112 242.090627 
L 92.94252 236.674402 
L 97.632159 232.254077 
L 102.321797 228.146826 
L 107.011436 224.358946 
L 111.701074 220.897254 
L 115.719944 218.205279 
L 119.744559 215.803159 
L 123.092659 214.073552 
L 125.76999 212.918137 
L 128.453067 212.021998 
L 130.459629 211.557389 
L 132.471937 211.298195 
L 135.36813 211.236965 
L 140.390633 211.044718 
L 145.028775 210.638625 
L 149.292677 210.046055 
L 153.160589 209.295744 
L 157.024273 208.299957 
L 160.117879 207.28028 
L 166.700775 204.975336 
L 169.01977 204.499312 
L 172.503474 204.013547 
L 177.145365 205.781137 
L 181.787256 207.794359 
L 186.429147 210.033541 
L 191.071038 212.485857 
L 195.712929 215.149051 
L 200.35482 218.03346 
L 204.996711 221.160244 
L 209.638602 224.556102 
L 213.51458 227.610106 
L 218.156471 231.559904 
L 223.564274 236.56861 
L 228.206165 241.195074 
L 232.848056 246.103199 
L 238.267464 252.13416 
L 243.686872 258.431792 
L 247.551246 263.152863 
L 248.328762 264.199264 
L 249.094674 266.018556 
L 249.872191 265.620876 
M 249.872191 265.620877 
L 259.132764 243.905603 
L 263.774655 233.864884 
L 266.617813 228.064932 
L 270.899957 219.912001 
L 273.743115 214.812119 
L 278.385006 207.009643 
L 281.228164 202.465967 
L 285.510309 195.997242 
L 292.212255 196.108953 
L 297.572663 196.132004 
L 300.920763 195.894344 
L 303.598094 195.443798 
L 305.610402 194.905341 
L 307.62271 194.169314 
L 309.629271 193.226046 
L 311.641579 192.081523 
L 314.31891 190.280066 
L 317.672756 187.696787 
L 323.033164 183.19191 
L 328.393572 178.725181 
L 331.741672 176.137962 
L 335.089772 173.79914 
L 337.772849 172.149041 
L 340.45018 170.725867 
L 343.133257 169.55435 
L 345.810588 168.655637 
L 348.493665 168.046574 
L 350.500226 167.787185 
L 352.902632 167.701566 
L 356.770697 167.840811 
L 360.634381 168.20161 
L 364.892391 168.819078 
L 370.31073 169.834482 
L 379.207036 171.532697 
L 383.465046 172.092222 
L 387.32873 172.36773 
L 391.202533 172.442107 
L 402.041348 172.520775 
L 405.128206 172.809567 
L 408.226668 173.31991 
L 411.32513 174.083547 
L 414.411988 175.116268 
L 417.51045 176.419051 
L 420.608912 177.979471 
L 424.473286 180.253513 
L 428.33766 182.815796 
L 434.534585 187.230073 
L 438.398959 189.927781 
L 441.497421 191.874718 
L 443.818367 193.132949 
L 446.139312 194.17308 
L 448.460258 194.975005 
L 450.781203 195.542587 
L 453.102148 195.901389 
L 456.189006 196.124822 
L 460.064985 196.146237 
L 468.57125 195.997242 
L 468.57125 195.997242 
" clip-path="url(#pafa92442da)" style="fill: none; stroke: #175487"/>
   </g>
   <g id="line2d_48">
    <path d="M 66.81125 265.620872 
L 76.190527 254.489669 
L 80.880166 249.242286 
L 84.899035 245.03959 
L 88.923651 241.183281 
L 92.271751 238.278244 
L 95.619851 235.682619 
L 98.973697 233.413701 
L 102.321797 231.47786 
L 104.999128 230.165844 
L 107.682205 229.055835 
L 111.030305 227.933307 
L 114.384152 227.075215 
L 117.732252 226.443886 
L 121.751121 225.92928 
L 126.440759 225.581018 
L 131.801167 225.41596 
L 135.36813 225.302774 
L 136.907081 225.003561 
L 138.461737 224.515074 
L 140.390633 223.660555 
L 142.325421 222.570102 
L 144.654534 221.011096 
L 148.902578 217.696074 
L 156.634174 211.506094 
L 159.353386 209.699174 
L 161.282435 208.617667 
L 163.991529 207.363271 
L 169.01977 205.380286 
L 171.723277 204.406926 
L 172.503474 204.338784 
L 174.82442 204.514542 
L 177.145365 204.925212 
L 180.243827 205.747321 
L 183.342289 206.810189 
L 187.206664 208.396719 
L 191.071038 210.219991 
L 194.947017 212.263148 
L 199.588908 215.014013 
L 204.230799 218.117428 
L 208.87269 221.600963 
L 213.51458 225.479132 
L 218.156471 229.747117 
L 222.798362 234.377036 
L 228.983682 241.028539 
L 234.40309 247.188602 
L 246.007817 260.962895 
L 249.872191 265.620873 
M 249.872191 265.620872 
L 256.637747 255.417812 
L 259.852257 251.057942 
L 262.695415 247.583419 
L 265.550178 244.534547 
L 268.045194 242.22108 
L 270.540211 240.216354 
L 273.394973 238.247746 
L 275.88999 236.741769 
L 279.092895 234.993831 
L 285.510309 231.721528 
L 288.187639 231.627584 
L 290.870717 231.348928 
L 294.218817 230.755446 
L 297.572663 229.917355 
L 301.591532 228.643854 
L 306.281171 226.88706 
L 313.64814 223.828633 
L 321.691625 220.538993 
L 327.052033 218.595123 
L 331.741672 217.146601 
L 335.760541 216.123814 
L 339.77941 215.316983 
L 343.79828 214.731091 
L 347.822895 214.36625 
L 351.841765 214.220709 
L 353.677091 214.140328 
L 355.22178 213.825932 
L 357.160795 213.190896 
L 359.47979 212.188132 
L 362.189036 210.778622 
L 366.056948 208.46125 
L 375.333233 202.622836 
L 378.816937 200.769748 
L 381.526031 199.586213 
L 384.235277 198.674618 
L 386.56439 198.129075 
L 388.883385 197.806601 
L 391.202533 197.701784 
L 393.523478 197.800925 
L 395.844424 198.084971 
L 398.942886 198.714675 
L 402.041348 199.587281 
L 405.905722 200.95878 
L 409.770097 202.58808 
L 413.646076 204.432698 
L 419.053878 207.306732 
L 430.658606 213.665661 
L 432.979551 214.556683 
L 435.300497 215.207559 
L 441.497421 216.771927 
L 443.818367 217.616907 
L 446.139312 218.696776 
L 448.460258 220.023761 
L 451.547115 222.132589 
L 455.423094 225.098378 
L 459.287468 228.015052 
L 461.608414 229.522044 
L 463.929359 230.704392 
L 465.472788 231.261119 
L 467.027821 231.605148 
L 468.57125 231.721528 
L 468.57125 231.721528 
" clip-path="url(#pafa92442da)" style="fill: none; stroke: #175487"/>
   </g>
   <g id="line2d_49">
    <path d="M 66.81125 265.620871 
L 67.482019 263.953081 
L 70.830119 257.347604 
L 80.209396 238.77898 
L 85.569804 228.719524 
L 90.259443 220.424466 
L 94.284059 213.76438 
L 97.632159 208.567469 
L 100.980259 203.719473 
L 104.334105 199.271716 
L 106.340667 196.918255 
L 107.682205 195.758792 
L 109.023744 195.123824 
L 110.359536 194.773589 
L 112.371844 194.520258 
L 114.384152 194.49567 
L 117.061482 194.724335 
L 120.409582 195.287575 
L 129.794606 197.115271 
L 132.471937 197.354218 
L 138.071638 197.438637 
L 144.264436 197.704636 
L 155.095376 198.301453 
L 156.634174 198.118834 
L 158.188829 197.724406 
L 160.507977 196.855037 
L 165.536218 194.914687 
L 167.865332 194.266189 
L 169.794228 193.908357 
L 172.113376 193.724916 
L 174.058508 193.780747 
L 176.379453 194.079556 
L 178.700398 194.591604 
L 181.787256 195.522208 
L 185.663235 196.946237 
L 191.848555 199.547894 
L 198.811391 202.72502 
L 205.774227 206.121072 
L 211.959547 209.367583 
L 217.378955 212.424223 
L 220.477417 214.331427 
L 222.020846 215.501792 
L 222.798362 216.282065 
L 224.341791 218.306214 
L 226.662737 221.841174 
L 229.761199 226.935695 
L 234.40309 235.143192 
L 239.810893 245.38774 
L 246.007817 257.657451 
L 249.872191 265.620871 
M 249.872191 265.620871 
L 256.637747 255.417812 
L 259.852257 251.057942 
L 262.695415 247.583419 
L 265.550178 244.534547 
L 268.045194 242.22108 
L 270.540211 240.216354 
L 273.394973 238.247746 
L 275.88999 236.741769 
L 279.092895 234.993831 
L 285.510309 231.721528 
L 286.851847 231.634142 
L 288.187639 231.374642 
L 289.529178 230.950815 
L 291.541486 230.035072 
L 293.548047 228.834255 
L 296.231125 226.908622 
L 300.920763 223.137569 
L 304.268863 220.549957 
L 306.95194 218.754158 
L 308.958502 217.628441 
L 310.97081 216.711454 
L 312.983118 216.000393 
L 314.989679 215.478178 
L 317.672756 215.030793 
L 320.350087 214.806516 
L 323.698187 214.748441 
L 328.393572 214.923179 
L 336.43131 215.509769 
L 345.139818 216.093018 
L 351.170995 216.272997 
L 354.451549 216.385229 
L 359.869889 217.080189 
L 365.28249 217.643076 
L 372.629878 218.159067 
L 381.135932 218.529735 
L 389.657844 218.68718 
L 397.399457 218.624105 
L 405.128206 218.348187 
L 415.189504 217.746412 
L 423.695769 217.293068 
L 427.571748 217.326677 
L 429.892694 217.55969 
L 432.213639 218.07839 
L 434.534585 218.943544 
L 437.621442 220.498076 
L 450.003686 227.234143 
L 453.86806 228.883492 
L 456.966523 229.948427 
L 460.064985 230.768412 
L 463.151842 231.336152 
L 466.250305 231.650843 
L 468.57125 231.721528 
L 468.57125 231.721528 
" clip-path="url(#pafa92442da)" style="fill: none; stroke: #175487"/>
   </g>
   <g id="line2d_50">
    <path d="M 66.81125 226.22779 
L 68.152789 226.136452 
L 69.488581 225.864564 
L 70.830119 225.41834 
L 72.842427 224.444494 
L 74.848989 223.146102 
L 76.861296 221.576804 
L 79.538627 219.161526 
L 82.892474 215.80455 
L 94.284059 204.100834 
L 96.961389 201.690597 
L 99.644467 199.528605 
L 102.321797 197.663475 
L 104.999128 196.108629 
L 107.011436 194.962595 
L 108.352974 193.838982 
L 116.390713 185.894546 
L 119.07379 183.683842 
L 121.751121 181.751515 
L 124.434198 180.119331 
L 126.440759 179.109515 
L 128.453067 178.302296 
L 130.459629 177.7213 
L 132.471937 177.395049 
L 134.587934 177.338617 
L 137.687278 177.506293 
L 140.780731 177.888966 
L 144.264436 178.550626 
L 148.12812 179.517256 
L 155.095376 181.567925 
L 159.733519 182.829033 
L 162.826972 183.447057 
L 165.536218 183.757187 
L 167.865332 183.817843 
L 170.568686 183.643053 
L 172.503474 183.373106 
L 176.379453 183.889093 
L 184.108201 184.824282 
L 187.206664 185.461936 
L 190.305126 186.355437 
L 193.391983 187.54234 
L 195.712929 188.639511 
L 198.033874 189.921453 
L 200.35482 191.392493 
L 202.675765 193.05562 
L 205.774227 195.57515 
L 208.87269 198.441774 
L 211.959547 201.655067 
L 215.058009 205.209833 
L 218.156471 209.086068 
L 222.020846 214.090855 
L 223.564274 215.561138 
L 225.88522 217.122862 
L 230.527111 219.842871 
L 235.169002 222.275441 
L 238.267464 223.667198 
L 241.365926 224.807264 
L 243.686872 225.463065 
L 246.007817 225.925364 
L 248.328762 226.179075 
L 249.872191 226.22779 
M 249.872191 226.22779 
L 253.075096 226.109919 
L 256.997494 225.718461 
L 263.055161 225.113097 
L 265.909924 225.07942 
L 268.404941 225.27161 
L 270.899957 225.69702 
L 273.394973 226.355096 
L 276.238132 227.362507 
L 279.452641 228.746153 
L 285.510309 231.721528 
L 288.187639 231.627584 
L 290.870717 231.348928 
L 294.218817 230.755446 
L 297.572663 229.917355 
L 301.591532 228.643854 
L 306.281171 226.88706 
L 313.64814 223.828633 
L 321.691625 220.538993 
L 327.052033 218.595123 
L 331.741672 217.146601 
L 335.760541 216.123814 
L 339.77941 215.316983 
L 343.79828 214.731091 
L 347.822895 214.36625 
L 351.841765 214.220709 
L 353.677091 214.140328 
L 355.22178 213.825932 
L 357.160795 213.190896 
L 359.47979 212.188132 
L 362.189036 210.778622 
L 366.056948 208.46125 
L 375.333233 202.622836 
L 378.816937 200.769748 
L 381.526031 199.586213 
L 384.235277 198.674618 
L 386.56439 198.129075 
L 388.883385 197.806601 
L 391.202533 197.701784 
L 393.523478 197.800925 
L 395.844424 198.084971 
L 398.942886 198.714675 
L 402.041348 199.587281 
L 405.905722 200.95878 
L 409.770097 202.58808 
L 413.646076 204.432698 
L 419.053878 207.306732 
L 430.658606 213.665661 
L 432.979551 214.556683 
L 435.300497 215.207559 
L 441.497421 216.771927 
L 443.818367 217.616907 
L 446.139312 218.696776 
L 448.460258 220.023761 
L 451.547115 222.132589 
L 455.423094 225.098378 
L 459.287468 228.015052 
L 461.608414 229.522044 
L 463.929359 230.704392 
L 465.472788 231.261119 
L 467.027821 231.605148 
L 468.57125 231.721528 
L 468.57125 231.721528 
" clip-path="url(#pafa92442da)" style="fill: none; stroke: #175487"/>
   </g>
   <g id="line2d_51">
    <path d="M 66.81125 226.22779 
L 69.488581 226.102948 
L 72.171658 225.733971 
L 74.848989 225.137018 
L 77.532066 224.337466 
L 80.880166 223.103252 
L 84.899035 221.376165 
L 99.644467 214.75011 
L 103.663336 213.30583 
L 107.682205 212.126976 
L 111.701074 211.225566 
L 115.719944 210.587628 
L 119.744559 210.177034 
L 124.434198 209.91641 
L 131.130398 209.787758 
L 135.752491 209.679998 
L 138.071638 209.304333 
L 140.390633 208.667038 
L 142.709781 207.799234 
L 145.418874 206.550944 
L 148.902578 204.698992 
L 154.315179 201.830182 
L 155.869835 201.238649 
L 157.414371 200.89221 
L 158.963288 200.806194 
L 160.898075 200.957929 
L 163.60143 201.435406 
L 167.085135 202.29877 
L 170.958785 203.483188 
L 172.503474 204.013548 
L 189.527609 197.853557 
L 193.391983 196.796063 
L 196.490445 196.160768 
L 199.588908 195.783235 
L 201.909853 195.714876 
L 204.230799 195.866342 
L 206.551744 196.264107 
L 208.87269 196.923972 
L 211.193635 197.848688 
L 213.51458 199.028694 
L 215.835526 200.445571 
L 218.922383 202.662144 
L 222.020846 205.195817 
L 225.119308 207.98017 
L 231.304627 213.992237 
L 236.724035 219.200846 
L 239.044981 221.219874 
L 241.365926 223.001276 
L 242.909355 224.015518 
L 244.452784 224.862705 
L 246.007817 225.520591 
L 247.551246 225.970537 
L 249.094674 226.199055 
L 249.872191 226.22779 
M 249.872191 226.22779 
L 253.075096 226.109919 
L 256.997494 225.718461 
L 263.055161 225.113097 
L 265.909924 225.07942 
L 268.404941 225.27161 
L 270.899957 225.69702 
L 273.394973 226.355096 
L 276.238132 227.362507 
L 279.452641 228.746153 
L 285.510309 231.721528 
L 286.851847 231.634142 
L 288.187639 231.374642 
L 289.529178 230.950815 
L 291.541486 230.035072 
L 293.548047 228.834255 
L 296.231125 226.908622 
L 300.920763 223.137569 
L 304.268863 220.549956 
L 306.95194 218.754158 
L 308.958502 217.628441 
L 310.97081 216.711454 
L 312.983118 216.000393 
L 314.989679 215.478177 
L 317.672756 215.030793 
L 320.350087 214.806516 
L 323.698187 214.748441 
L 328.393572 214.923179 
L 336.43131 215.509769 
L 345.139818 216.093018 
L 351.170995 216.272997 
L 354.451549 216.385229 
L 359.869889 217.080189 
L 365.28249 217.643076 
L 372.629878 218.159067 
L 381.135932 218.529735 
L 389.657844 218.687179 
L 397.399457 218.624105 
L 405.128206 218.348187 
L 415.189504 217.746412 
L 423.695769 217.293068 
L 427.571748 217.326677 
L 429.892694 217.55969 
L 432.213639 218.07839 
L 434.534585 218.943544 
L 437.621442 220.498076 
L 450.003686 227.234143 
L 453.86806 228.883492 
L 456.966523 229.948427 
L 460.064985 230.768412 
L 463.151842 231.336152 
L 466.250305 231.650843 
L 468.57125 231.721528 
L 468.57125 231.721528 
" clip-path="url(#pafa92442da)" style="fill: none; stroke: #175487"/>
   </g>
   <g id="line2d_52">
    <path d="M 66.81125 169.828388 
L 70.15935 169.946467 
L 73.513196 170.294119 
L 76.861296 170.852443 
L 80.880166 171.758965 
L 85.569804 173.059036 
L 98.973697 176.984369 
L 102.321797 177.631037 
L 104.999128 177.919072 
L 107.682205 177.957418 
L 110.359536 177.736844 
L 113.042613 177.294213 
L 117.061482 176.38472 
L 122.42189 175.174499 
L 125.76999 174.633177 
L 129.123837 174.324424 
L 133.142706 174.207251 
L 136.907081 174.299466 
L 140.390633 174.627205 
L 143.874337 175.178827 
L 147.357889 175.93512 
L 151.996032 177.213251 
L 157.024273 178.846348 
L 167.085135 182.155753 
L 170.568686 183.011014 
L 172.503474 183.373105 
L 175.601936 182.755243 
L 187.206664 180.174722 
L 191.071038 179.686479 
L 194.947017 179.44579 
L 201.132336 179.360357 
L 205.774227 179.216838 
L 208.87269 178.94035 
L 211.959547 178.476971 
L 215.835526 177.647513 
L 220.477417 176.374191 
L 236.724035 171.533664 
L 240.588409 170.707946 
L 244.452784 170.134689 
L 247.551246 169.885207 
L 249.872191 169.828388 
M 249.872191 169.828388 
L 252.726954 169.95358 
L 255.22197 170.275939 
L 257.716987 170.815413 
L 260.212003 171.597184 
L 262.695415 172.649019 
L 264.842289 173.784986 
L 267.337306 175.400818 
L 269.832322 177.338828 
L 272.67548 179.945912 
L 275.170497 182.554637 
L 277.665513 185.443878 
L 280.520276 189.049496 
L 283.375039 192.931542 
L 285.510309 195.997242 
L 292.212255 196.108953 
L 297.572663 196.132004 
L 300.920763 195.894344 
L 303.598094 195.443798 
L 305.610402 194.905341 
L 307.62271 194.169314 
L 309.629271 193.226046 
L 311.641579 192.081523 
L 314.31891 190.280066 
L 317.672756 187.696787 
L 323.033164 183.19191 
L 328.393572 178.725181 
L 331.741672 176.137962 
L 335.089772 173.79914 
L 337.772849 172.149041 
L 340.45018 170.725867 
L 343.133257 169.55435 
L 345.810588 168.655637 
L 348.493665 168.046574 
L 350.500226 167.787185 
L 352.902632 167.701566 
L 356.770697 167.840811 
L 360.634381 168.20161 
L 364.892391 168.819078 
L 370.31073 169.834482 
L 379.207036 171.532697 
L 383.465046 172.092222 
L 387.32873 172.36773 
L 391.202533 172.442107 
L 402.041348 172.520775 
L 405.128206 172.809567 
L 408.226668 173.31991 
L 411.32513 174.083547 
L 414.411988 175.116268 
L 417.51045 176.419051 
L 420.608912 177.979471 
L 424.473286 180.253513 
L 428.33766 182.815796 
L 434.534585 187.230073 
L 438.398959 189.927781 
L 441.497421 191.874718 
L 443.818367 193.132949 
L 446.139312 194.17308 
L 448.460258 194.975005 
L 450.781203 195.542587 
L 453.102148 195.901389 
L 456.189006 196.124822 
L 460.064985 196.146238 
L 468.57125 195.997242 
L 468.57125 195.997242 
" clip-path="url(#pafa92442da)" style="fill: none; stroke: #175487"/>
   </g>
   <g id="line2d_53">
    <path d="M 66.81125 112.91047 
L 71.500889 112.782836 
L 76.190527 112.40175 
L 80.880166 111.771842 
L 85.569804 110.900804 
L 90.259443 109.799699 
L 94.949081 108.484344 
L 100.309489 106.748474 
L 106.340667 104.562385 
L 121.080352 99.065114 
L 125.099221 97.891589 
L 128.453067 97.178037 
L 131.130398 96.831286 
L 133.813475 96.712517 
L 138.461737 96.597937 
L 142.709781 96.274557 
L 145.028775 95.937464 
L 146.193332 95.596289 
L 147.357889 95.026417 
L 149.677037 93.552752 
L 153.540721 90.799824 
L 161.282435 85.315152 
L 164.765987 83.163458 
L 167.865332 81.517893 
L 169.794228 80.653687 
L 171.338917 80.124691 
L 172.503474 79.962956 
L 174.058508 80.210523 
L 177.145365 81.242525 
L 182.564773 83.088133 
L 184.885718 83.639017 
L 187.206664 83.895287 
L 189.527609 83.875959 
L 193.391983 83.552844 
L 199.588908 83.034433 
L 203.453282 82.946284 
L 206.551744 83.092777 
L 209.638602 83.490047 
L 211.959547 83.982035 
L 214.280492 84.657545 
L 216.601438 85.524825 
L 218.922383 86.583374 
L 222.020846 88.273762 
L 225.119308 90.235455 
L 229.761199 93.50991 
L 235.169002 97.39808 
L 238.267464 99.412666 
L 241.365926 101.122056 
L 243.686872 102.134986 
L 246.007817 102.867928 
L 247.551246 103.18047 
L 249.094674 103.339854 
L 249.872191 103.359937 
M 249.872191 103.359937 
L 263.774655 103.465903 
L 270.899957 103.761 
L 281.228164 104.479607 
L 286.181078 104.766391 
L 288.187639 104.595644 
L 290.199947 104.227517 
L 292.883025 103.458509 
L 295.560355 102.425837 
L 298.908455 100.876965 
L 309.629271 95.682985 
L 312.983118 94.410288 
L 316.331217 93.404853 
L 319.679317 92.665796 
L 323.033164 92.16624 
L 327.052033 91.824172 
L 331.741672 91.678966 
L 338.443618 91.726064 
L 352.902632 91.904418 
L 354.451549 91.744359 
L 356.386337 91.298106 
L 358.705332 90.517898 
L 361.798938 89.20747 
L 365.28249 87.480698 
L 369.530534 85.144479 
L 379.597134 79.600839 
L 383.080686 77.986193 
L 385.784194 76.947131 
L 388.103188 76.280649 
L 390.037976 75.962897 
L 391.202533 75.908054 
L 392.757566 76.001957 
L 395.078512 76.433583 
L 398.165369 77.338715 
L 402.041348 78.752348 
L 407.449151 81.039903 
L 413.646076 83.920449 
L 422.929857 88.304066 
L 426.794232 89.943821 
L 430.658606 91.365944 
L 436.078013 93.058645 
L 441.497421 94.801141 
L 445.361795 96.296364 
L 449.22617 98.031999 
L 459.287468 102.756531 
L 462.38593 103.83636 
L 464.706876 104.401435 
L 467.027821 104.716855 
L 468.57125 104.777851 
L 468.57125 104.777851 
" clip-path="url(#pafa92442da)" style="fill: none; stroke: #175487"/>
   </g>
   <g id="line2d_54">
    <path d="M 66.81125 106.316769 
L 72.842427 106.196183 
L 78.202835 105.871593 
L 84.234012 105.267373 
L 92.271751 104.189527 
L 111.030305 101.568312 
L 118.403021 100.795933 
L 125.099221 100.312529 
L 131.130398 100.095896 
L 136.132623 99.915655 
L 138.071638 99.549091 
L 140.006273 98.979746 
L 142.325421 98.057502 
L 146.583431 96.163478 
L 148.51248 95.75464 
L 155.869835 94.371335 
L 161.282435 93.104783 
L 167.865332 91.334895 
L 172.503474 90.019985 
L 177.145365 91.430444 
L 182.564773 93.306489 
L 188.750092 95.684636 
L 197.267962 99.19618 
L 207.317656 103.355849 
L 214.280492 106.012876 
L 219.6999 107.857339 
L 225.119308 109.456958 
L 229.761199 110.607185 
L 234.40309 111.536563 
L 239.044981 112.233186 
L 243.686872 112.688392 
L 248.328762 112.896572 
L 249.872191 112.91047 
M 249.872191 56.362894 
L 254.862224 56.468034 
L 259.852257 56.790668 
L 264.482543 57.295725 
L 269.472576 58.059679 
L 274.822355 59.097661 
L 284.082927 61.223038 
L 285.510309 61.56524 
L 289.529178 61.67763 
L 294.218817 62.055525 
L 312.983118 63.926773 
L 325.039725 64.744337 
L 330.400133 65.385155 
L 337.772849 66.54091 
L 344.469049 67.52815 
L 348.493665 67.908214 
L 351.841765 68.039159 
L 358.315233 68.175801 
L 363.727834 68.538989 
L 369.156292 69.131067 
L 375.333233 70.078982 
L 381.135932 71.196798 
L 388.493287 72.618667 
L 390.812434 72.809605 
L 392.757566 72.749255 
L 395.844424 72.341797 
L 402.80726 71.05018 
L 412.091042 69.159456 
L 428.33766 65.736121 
L 433.757068 64.9279 
L 440.719904 64.171587 
L 451.547115 63.035285 
L 462.38593 61.824512 
L 466.250305 61.603201 
L 468.57125 61.56524 
L 468.57125 61.56524 
" clip-path="url(#pafa92442da)" style="fill: none; stroke: #175487"/>
   </g>
   <g id="line2d_55">
    <path d="M 66.81125 103.359937 
L 68.823558 103.235342 
L 70.830119 102.864921 
L 72.842427 102.25862 
L 74.848989 101.432515 
L 77.532066 100.026897 
L 80.209396 98.332419 
L 83.563243 95.920267 
L 96.29062 86.370469 
L 98.973697 84.753002 
L 101.651028 83.39041 
L 104.334105 82.309793 
L 107.011436 81.51961 
L 109.694513 81.007526 
L 112.371844 80.741163 
L 115.719944 80.682034 
L 119.744559 80.87736 
L 132.471937 81.735644 
L 147.738022 81.827776 
L 151.611672 81.646853 
L 155.095376 81.250482 
L 158.963288 80.565018 
L 166.700775 79.148944 
L 169.794228 78.846423 
L 174.058508 78.546432 
L 182.564773 76.379482 
L 190.305126 74.823661 
L 202.675765 72.512665 
L 211.193635 71.154 
L 222.798362 69.53921 
L 231.304627 68.530493 
L 238.267464 67.921907 
L 244.452784 67.600389 
L 249.872191 67.508965 
M 249.872191 67.508965 
L 253.794589 67.404765 
L 258.065129 67.062494 
L 262.695415 66.45447 
L 267.685448 65.582535 
L 274.102862 64.240533 
L 283.375039 62.078942 
L 285.510309 61.56524 
L 289.529178 61.67763 
L 294.218817 62.055525 
L 312.983118 63.926773 
L 325.039725 64.744337 
L 330.400133 65.385155 
L 337.772849 66.54091 
L 344.469049 67.52815 
L 348.493665 67.908214 
L 351.841765 68.039159 
L 358.315233 68.175801 
L 363.727834 68.538989 
L 369.156292 69.131067 
L 375.333233 70.078982 
L 381.135932 71.196799 
L 388.493287 72.618667 
L 390.812434 72.809605 
L 392.757566 72.749255 
L 395.844424 72.341797 
L 402.80726 71.05018 
L 412.091042 69.159456 
L 428.33766 65.736121 
L 433.757068 64.9279 
L 440.719904 64.171587 
L 451.547115 63.035285 
L 462.38593 61.824513 
L 466.250305 61.603201 
L 468.57125 61.56524 
L 468.57125 61.56524 
" clip-path="url(#pafa92442da)" style="fill: none; stroke: #175487"/>
   </g>
   <g id="line2d_56">
    <path d="M 66.81125 103.359937 
L 70.15935 103.233455 
L 73.513196 102.865629 
L 76.861296 102.286058 
L 80.880166 101.364662 
L 85.569804 100.065568 
L 93.613289 97.567101 
L 102.321797 94.93063 
L 107.682205 93.527148 
L 113.042613 92.364192 
L 117.732252 91.565907 
L 122.42189 90.977366 
L 127.111529 90.59488 
L 131.801167 90.412651 
L 137.687278 90.216397 
L 141.17083 89.776474 
L 145.418874 88.987984 
L 151.996032 87.767731 
L 155.095376 87.46891 
L 157.798731 87.434543 
L 160.898075 87.643039 
L 164.381627 88.135022 
L 168.239573 88.924781 
L 172.503474 90.019985 
L 178.700398 88.404642 
L 181.787256 87.824086 
L 184.108201 87.629133 
L 185.663235 87.679557 
L 187.206664 87.899152 
L 189.527609 88.506756 
L 192.626071 89.641101 
L 198.033874 91.973588 
L 211.959547 98.062083 
L 218.156471 100.457093 
L 222.798362 102.04601 
L 227.440253 103.421598 
L 231.304627 104.383795 
L 235.946518 105.29388 
L 239.810893 105.83141 
L 243.686872 106.159582 
L 248.328762 106.308853 
L 249.872191 106.316769 
M 249.872191 106.316769 
L 256.289605 106.203457 
L 266.617813 105.734621 
L 293.548047 104.342255 
L 298.237686 103.717814 
L 303.598094 102.740982 
L 310.30004 101.261045 
L 326.381264 97.591767 
L 332.412441 96.483944 
L 337.772849 95.708393 
L 343.133257 95.156752 
L 348.493665 94.845243 
L 353.286992 94.792593 
L 355.60614 95.030296 
L 359.47979 95.717902 
L 370.69509 97.754396 
L 377.277987 98.703724 
L 382.690588 99.268335 
L 387.718828 99.565285 
L 391.98005 99.623315 
L 396.621941 99.480448 
L 402.041348 99.065989 
L 409.004185 98.252997 
L 418.287966 97.122318 
L 422.152341 96.844005 
L 425.250803 96.801284 
L 428.33766 96.978423 
L 431.436123 97.410227 
L 434.534585 98.081193 
L 439.176476 99.378688 
L 447.682741 101.863487 
L 452.324632 102.98749 
L 456.966523 103.857001 
L 460.830897 104.367218 
L 464.706876 104.675027 
L 468.57125 104.777851 
L 468.57125 104.777851 
" clip-path="url(#pafa92442da)" style="fill: none; stroke: #175487"/>
   </g>
   <g id="line2d_57">
    <path d="M 66.81125 67.508965 
L 72.842427 67.622197 
L 78.873604 67.954177 
L 85.569804 68.548648 
L 94.949081 69.638093 
L 103.663336 70.595591 
L 109.694513 71.022485 
L 118.403021 71.37236 
L 131.130398 71.717568 
L 139.616175 71.905146 
L 144.264436 72.294048 
L 148.902578 72.906289 
L 153.540721 73.742023 
L 158.188829 74.798459 
L 162.826972 76.064786 
L 168.629671 77.879161 
L 171.338917 78.65984 
L 172.503474 78.784668 
L 175.601936 78.967498 
L 178.700398 79.416559 
L 181.787256 80.107678 
L 184.885718 81.006466 
L 188.750092 82.366386 
L 193.391983 84.257759 
L 198.811391 86.696372 
L 220.477417 96.645165 
L 225.119308 98.449268 
L 229.761199 100.030977 
L 233.625573 101.1477 
L 237.489947 102.056487 
L 241.365926 102.736993 
L 245.2303 103.173285 
L 249.094674 103.354737 
L 249.872191 103.359937 
M 249.872191 103.359937 
L 263.774655 103.465903 
L 270.899957 103.761 
L 281.228164 104.479607 
L 286.181078 104.774765 
L 290.199947 104.627648 
L 294.218817 104.268382 
L 298.908455 103.609519 
L 304.268863 102.603325 
L 311.641579 100.946102 
L 325.710495 97.728143 
L 331.741672 96.595479 
L 337.10208 95.793516 
L 342.462488 95.212831 
L 347.822895 94.870687 
L 352.902632 94.779122 
L 354.831682 94.926072 
L 357.925135 95.42459 
L 373.014238 98.116638 
L 379.207036 98.931485 
L 384.619637 99.410598 
L 389.657844 99.614246 
L 394.300995 99.578249 
L 398.942886 99.332766 
L 404.362294 98.82132 
L 422.152341 96.844005 
L 425.250803 96.801284 
L 428.33766 96.978423 
L 431.436123 97.410227 
L 434.534585 98.081193 
L 439.176476 99.378688 
L 447.682741 101.863487 
L 452.324632 102.98749 
L 456.966523 103.857001 
L 460.830897 104.367218 
L 464.706876 104.675027 
L 468.57125 104.777851 
L 468.57125 104.777851 
" clip-path="url(#pafa92442da)" style="fill: none; stroke: #175487"/>
   </g>
   <g id="line2d_58">
    <path d="M 66.81125 54.420875 
L 71.500889 54.538134 
L 76.190527 54.880579 
L 81.550935 55.513755 
L 87.582112 56.468428 
L 94.949081 57.878142 
L 102.992567 59.636675 
L 111.701074 61.766072 
L 122.42189 64.378509 
L 126.440759 65.124938 
L 129.794606 65.541737 
L 133.142706 65.722106 
L 143.489977 65.910816 
L 151.611672 66.336196 
L 171.338917 67.551799 
L 175.601936 67.508935 
L 180.243827 67.251449 
L 185.663235 66.701701 
L 191.071038 65.912156 
L 196.490445 64.894888 
L 201.909853 63.668257 
L 209.638602 61.647418 
L 224.341791 57.721301 
L 230.527111 56.36924 
L 235.946518 55.446943 
L 240.588409 54.880746 
L 245.2303 54.536361 
L 249.872191 54.420875 
M 249.872191 106.316769 
L 256.289605 106.203457 
L 266.617813 105.734621 
L 288.187639 104.595644 
L 290.199947 104.227517 
L 292.883025 103.458509 
L 295.560355 102.425837 
L 298.908455 100.876965 
L 309.629271 95.682985 
L 312.983118 94.410288 
L 316.331217 93.404853 
L 319.679317 92.665796 
L 323.033164 92.16624 
L 327.052033 91.824172 
L 331.741672 91.678966 
L 338.443618 91.726065 
L 352.902632 91.904418 
L 354.451549 91.744359 
L 356.386337 91.298106 
L 358.705332 90.517898 
L 361.798938 89.20747 
L 365.28249 87.480698 
L 369.530534 85.144479 
L 379.597134 79.600839 
L 383.080686 77.986193 
L 385.784194 76.947131 
L 388.103188 76.280649 
L 390.037976 75.962897 
L 391.202533 75.908054 
L 392.757566 76.001957 
L 395.078512 76.433583 
L 398.165369 77.338715 
L 402.041348 78.752348 
L 407.449151 81.039903 
L 413.646076 83.920449 
L 422.929857 88.304066 
L 426.794232 89.943821 
L 430.658606 91.365944 
L 436.078013 93.058645 
L 441.497421 94.801141 
L 445.361795 96.296364 
L 449.22617 98.031999 
L 459.287468 102.756531 
L 462.38593 103.83636 
L 464.706876 104.401435 
L 467.027821 104.716855 
L 468.57125 104.777851 
L 468.57125 104.777851 
" clip-path="url(#pafa92442da)" style="fill: none; stroke: #175487"/>
   </g>
   <g id="patch_3">
    <path d="M 66.81125 265.620875 
L 66.81125 43.860875 
" style="fill: none; stroke: #000000; stroke-linejoin: miter; stroke-linecap: square"/>
   </g>
   <g id="patch_4">
    <path d="M 468.57125 265.620875 
L 468.57125 43.860875 
" style="fill: none; stroke: #000000; stroke-linejoin: miter; stroke-linecap: square"/>
   </g>
   <g id="patch_5">
    <path d="M 66.81125 265.620875 
L 468.57125 265.620875 
" style="fill: none; stroke: #000000; stroke-linejoin: miter; stroke-linecap: square"/>
   </g>
   <g id="patch_6">
    <path d="M 66.81125 43.860875 
L 468.57125 43.860875 
" style="fill: none; stroke: #000000; stroke-linejoin: miter; stroke-linecap: square"/>
   </g>
   <g id="text_16">
    <!-- GaN -->
    <g transform="translate(245.485437 29.860875) scale(0.216 -0.216)">
     <defs>
      <path id="ArialMT-47" d="M 2638 1797 
L 2638 2334 
L 4578 2338 
L 4578 638 
Q 4131 281 3656 101 
Q 3181 -78 2681 -78 
Q 2006 -78 1454 211 
Q 903 500 622 1047 
Q 341 1594 341 2269 
Q 341 2938 620 3517 
Q 900 4097 1425 4378 
Q 1950 4659 2634 4659 
Q 3131 4659 3532 4498 
Q 3934 4338 4162 4050 
Q 4391 3763 4509 3300 
L 3963 3150 
Q 3859 3500 3706 3700 
Q 3553 3900 3268 4020 
Q 2984 4141 2638 4141 
Q 2222 4141 1919 4014 
Q 1616 3888 1430 3681 
Q 1244 3475 1141 3228 
Q 966 2803 966 2306 
Q 966 1694 1177 1281 
Q 1388 869 1791 669 
Q 2194 469 2647 469 
Q 3041 469 3416 620 
Q 3791 772 3984 944 
L 3984 1797 
L 2638 1797 
z
" transform="scale(0.015625)"/>
      <path id="ArialMT-4e" d="M 488 0 
L 488 4581 
L 1109 4581 
L 3516 984 
L 3516 4581 
L 4097 4581 
L 4097 0 
L 3475 0 
L 1069 3600 
L 1069 0 
L 488 0 
z
" transform="scale(0.015625)"/>
     </defs>
     <use xlink:href="#ArialMT-47"/>
     <use xlink:href="#ArialMT-61" x="77.783203"/>
     <use xlink:href="#ArialMT-4e" x="133.398438"/>
    </g>
   </g>
  </g>
 </g>
 <defs>
  <clipPath id="pafa92442da">
   <rect x="66.81125" y="43.860875" width="401.76" height="221.76"/>
  </clipPath>
 </defs>
</svg>
