<?xml version="1.0" encoding="utf-8" standalone="no"?>
<!DOCTYPE svg PUBLIC "-//W3C//DTD SVG 1.1//EN"
  "http://www.w3.org/Graphics/SVG/1.1/DTD/svg11.dtd">
<svg xmlns:xlink="http://www.w3.org/1999/xlink" width="502.429062pt" height="327.783125pt" viewBox="0 0 502.429062 327.783125" xmlns="http://www.w3.org/2000/svg" version="1.1">
 <metadata>
  <rdf:RDF xmlns:dc="http://purl.org/dc/elements/1.1/" xmlns:cc="http://creativecommons.org/ns#" xmlns:rdf="http://www.w3.org/1999/02/22-rdf-syntax-ns#">
   <cc:Work>
    <dc:type rdf:resource="http://purl.org/dc/dcmitype/StillImage"/>
    <dc:date>2024-07-24T19:26:13.902549</dc:date>
    <dc:format>image/svg+xml</dc:format>
    <dc:creator>
     <cc:Agent>
      <dc:title>Matplotlib v3.8.0, https://matplotlib.org/</dc:title>
     </cc:Agent>
    </dc:creator>
   </cc:Work>
  </rdf:RDF>
 </metadata>
 <defs>
  <style type="text/css">*{stroke-linejoin: round; stroke-linecap: butt}</style>
 </defs>
 <g id="figure_1">
  <g id="patch_1">
   <path d="M 0 327.783125 
L 502.429062 327.783125 
L 502.429062 0 
L 0 0 
z
" style="fill: #ffffff"/>
  </g>
  <g id="axes_1">
   <g id="patch_2">
    <path d="M 80.269063 264.96 
L 367.240491 264.96 
L 367.240491 43.2 
L 80.269063 43.2 
z
" style="fill: #ffffff"/>
   </g>
   <g id="matplotlib.axis_1">
    <g id="xtick_1">
     <g id="line2d_1">
      <path d="M 80.269063 264.96 
L 80.269063 43.2 
" clip-path="url(#peb8c6a4b1d)" style="fill: none; stroke: #000000; stroke-width: 0.8"/>
     </g>
     <g id="text_1">
      <!-- $\mathrm{\Gamma}$ -->
      <g transform="translate(75.229062 287.344063) scale(0.18 -0.18)">
       <defs>
        <path id="ArialMT-393" d="M 513 4581 
L 3375 4581 
L 3375 4041 
L 1119 4041 
L 1119 0 
L 513 0 
L 513 4581 
z
" transform="scale(0.015625)"/>
       </defs>
       <use xlink:href="#ArialMT-393" transform="translate(0 0.421875)"/>
      </g>
     </g>
    </g>
    <g id="xtick_2">
     <g id="line2d_2">
      <path d="M 128.128112 264.96 
L 128.128112 43.2 
" clip-path="url(#peb8c6a4b1d)" style="fill: none; stroke: #000000; stroke-width: 0.8"/>
     </g>
     <g id="text_2">
      <!-- $\mathrm{M}$ -->
      <g transform="translate(120.568112 287.344063) scale(0.18 -0.18)">
       <defs>
        <path id="ArialMT-4d" d="M 475 0 
L 475 4581 
L 1388 4581 
L 2472 1338 
Q 2622 884 2691 659 
Q 2769 909 2934 1394 
L 4031 4581 
L 4847 4581 
L 4847 0 
L 4263 0 
L 4263 3834 
L 2931 0 
L 2384 0 
L 1059 3900 
L 1059 0 
L 475 0 
z
" transform="scale(0.015625)"/>
       </defs>
       <use xlink:href="#ArialMT-4d" transform="translate(0 0.421875)"/>
      </g>
     </g>
    </g>
    <g id="xtick_3">
     <g id="line2d_3">
      <path d="M 155.762256 264.96 
L 155.762256 43.2 
" clip-path="url(#peb8c6a4b1d)" style="fill: none; stroke: #000000; stroke-width: 0.8"/>
     </g>
     <g id="text_3">
      <!-- $\mathrm{K}$ -->
      <g transform="translate(149.732256 287.344063) scale(0.18 -0.18)">
       <defs>
        <path id="ArialMT-4b" d="M 469 0 
L 469 4581 
L 1075 4581 
L 1075 2309 
L 3350 4581 
L 4172 4581 
L 2250 2725 
L 4256 0 
L 3456 0 
L 1825 2319 
L 1075 1588 
L 1075 0 
L 469 0 
z
" transform="scale(0.015625)"/>
       </defs>
       <use xlink:href="#ArialMT-4b" transform="translate(0 0.421875)"/>
      </g>
     </g>
    </g>
    <g id="xtick_4">
     <g id="line2d_4">
      <path d="M 211.026643 264.96 
L 211.026643 43.2 
" clip-path="url(#peb8c6a4b1d)" style="fill: none; stroke: #000000; stroke-width: 0.8"/>
     </g>
     <g id="text_4">
      <!-- $\mathrm{\Gamma}$ -->
      <g transform="translate(205.986643 287.344063) scale(0.18 -0.18)">
       <use xlink:href="#ArialMT-393" transform="translate(0 0.421875)"/>
      </g>
     </g>
    </g>
    <g id="xtick_5">
     <g id="line2d_5">
      <path d="M 236.48291 264.96 
L 236.48291 43.2 
" clip-path="url(#peb8c6a4b1d)" style="fill: none; stroke: #000000; stroke-width: 0.8"/>
     </g>
     <g id="text_5">
      <!-- $\mathrm{A}$ -->
      <g transform="translate(230.45291 287.344063) scale(0.18 -0.18)">
       <defs>
        <path id="ArialMT-41" d="M -9 0 
L 1750 4581 
L 2403 4581 
L 4278 0 
L 3588 0 
L 3053 1388 
L 1138 1388 
L 634 0 
L -9 0 
z
M 1313 1881 
L 2866 1881 
L 2388 3150 
Q 2169 3728 2063 4100 
Q 1975 3659 1816 3225 
L 1313 1881 
z
" transform="scale(0.015625)"/>
       </defs>
       <use xlink:href="#ArialMT-41" transform="translate(0 0.421875)"/>
      </g>
     </g>
    </g>
    <g id="xtick_6">
     <g id="line2d_6">
      <path d="M 284.34196 264.96 
L 284.34196 43.2 
" clip-path="url(#peb8c6a4b1d)" style="fill: none; stroke: #000000; stroke-width: 0.8"/>
     </g>
     <g id="text_6">
      <!-- $\mathrm{L}$ -->
      <g transform="translate(279.30196 287.344063) scale(0.18 -0.18)">
       <defs>
        <path id="ArialMT-4c" d="M 469 0 
L 469 4581 
L 1075 4581 
L 1075 541 
L 3331 541 
L 3331 0 
L 469 0 
z
" transform="scale(0.015625)"/>
       </defs>
       <use xlink:href="#ArialMT-4c" transform="translate(0 0.421875)"/>
      </g>
     </g>
    </g>
    <g id="xtick_7">
     <g id="line2d_7">
      <path d="M 311.976104 264.96 
L 311.976104 43.2 
" clip-path="url(#peb8c6a4b1d)" style="fill: none; stroke: #000000; stroke-width: 0.8"/>
     </g>
     <g id="text_7">
      <!-- $\mathrm{H}$ -->
      <g transform="translate(305.406104 287.344063) scale(0.18 -0.18)">
       <defs>
        <path id="ArialMT-48" d="M 513 0 
L 513 4581 
L 1119 4581 
L 1119 2700 
L 3500 2700 
L 3500 4581 
L 4106 4581 
L 4106 0 
L 3500 0 
L 3500 2159 
L 1119 2159 
L 1119 0 
L 513 0 
z
" transform="scale(0.015625)"/>
       </defs>
       <use xlink:href="#ArialMT-48" transform="translate(0 0.421875)"/>
      </g>
     </g>
    </g>
    <g id="xtick_8">
     <g id="line2d_8">
      <path d="M 367.240491 264.96 
L 367.240491 43.2 
" clip-path="url(#peb8c6a4b1d)" style="fill: none; stroke: #000000; stroke-width: 0.8"/>
     </g>
     <g id="text_8">
      <!-- $\mathrm{A}$ -->
      <g transform="translate(361.210491 287.344063) scale(0.18 -0.18)">
       <use xlink:href="#ArialMT-41" transform="translate(0 0.421875)"/>
      </g>
     </g>
    </g>
    <g id="xtick_9"/>
    <g id="xtick_10"/>
    <g id="xtick_11"/>
    <g id="xtick_12"/>
    <g id="xtick_13"/>
    <g id="xtick_14"/>
    <g id="xtick_15"/>
    <g id="xtick_16"/>
    <g id="xtick_17"/>
    <g id="xtick_18"/>
    <g id="xtick_19"/>
    <g id="xtick_20"/>
    <g id="xtick_21"/>
    <g id="xtick_22"/>
    <g id="xtick_23"/>
    <g id="xtick_24"/>
    <g id="xtick_25"/>
    <g id="xtick_26"/>
    <g id="xtick_27"/>
    <g id="xtick_28"/>
    <g id="xtick_29"/>
    <g id="xtick_30"/>
    <g id="text_9">
     <!-- Wavenumber -->
     <g transform="translate(170.574621 309.805625) scale(0.18 -0.18)">
      <defs>
       <path id="ArialMT-57" d="M 1294 0 
L 78 4581 
L 700 4581 
L 1397 1578 
Q 1509 1106 1591 641 
Q 1766 1375 1797 1488 
L 2669 4581 
L 3400 4581 
L 4056 2263 
Q 4303 1400 4413 641 
Q 4500 1075 4641 1638 
L 5359 4581 
L 5969 4581 
L 4713 0 
L 4128 0 
L 3163 3491 
Q 3041 3928 3019 4028 
Q 2947 3713 2884 3491 
L 1913 0 
L 1294 0 
z
" transform="scale(0.015625)"/>
       <path id="ArialMT-61" d="M 2588 409 
Q 2275 144 1986 34 
Q 1697 -75 1366 -75 
Q 819 -75 525 192 
Q 231 459 231 875 
Q 231 1119 342 1320 
Q 453 1522 633 1644 
Q 813 1766 1038 1828 
Q 1203 1872 1538 1913 
Q 2219 1994 2541 2106 
Q 2544 2222 2544 2253 
Q 2544 2597 2384 2738 
Q 2169 2928 1744 2928 
Q 1347 2928 1158 2789 
Q 969 2650 878 2297 
L 328 2372 
Q 403 2725 575 2942 
Q 747 3159 1072 3276 
Q 1397 3394 1825 3394 
Q 2250 3394 2515 3294 
Q 2781 3194 2906 3042 
Q 3031 2891 3081 2659 
Q 3109 2516 3109 2141 
L 3109 1391 
Q 3109 606 3145 398 
Q 3181 191 3288 0 
L 2700 0 
Q 2613 175 2588 409 
z
M 2541 1666 
Q 2234 1541 1622 1453 
Q 1275 1403 1131 1340 
Q 988 1278 909 1158 
Q 831 1038 831 891 
Q 831 666 1001 516 
Q 1172 366 1500 366 
Q 1825 366 2078 508 
Q 2331 650 2450 897 
Q 2541 1088 2541 1459 
L 2541 1666 
z
" transform="scale(0.015625)"/>
       <path id="ArialMT-76" d="M 1344 0 
L 81 3319 
L 675 3319 
L 1388 1331 
Q 1503 1009 1600 663 
Q 1675 925 1809 1294 
L 2547 3319 
L 3125 3319 
L 1869 0 
L 1344 0 
z
" transform="scale(0.015625)"/>
       <path id="ArialMT-65" d="M 2694 1069 
L 3275 997 
Q 3138 488 2766 206 
Q 2394 -75 1816 -75 
Q 1088 -75 661 373 
Q 234 822 234 1631 
Q 234 2469 665 2931 
Q 1097 3394 1784 3394 
Q 2450 3394 2872 2941 
Q 3294 2488 3294 1666 
Q 3294 1616 3291 1516 
L 816 1516 
Q 847 969 1125 678 
Q 1403 388 1819 388 
Q 2128 388 2347 550 
Q 2566 713 2694 1069 
z
M 847 1978 
L 2700 1978 
Q 2663 2397 2488 2606 
Q 2219 2931 1791 2931 
Q 1403 2931 1139 2672 
Q 875 2413 847 1978 
z
" transform="scale(0.015625)"/>
       <path id="ArialMT-6e" d="M 422 0 
L 422 3319 
L 928 3319 
L 928 2847 
Q 1294 3394 1984 3394 
Q 2284 3394 2536 3286 
Q 2788 3178 2913 3003 
Q 3038 2828 3088 2588 
Q 3119 2431 3119 2041 
L 3119 0 
L 2556 0 
L 2556 2019 
Q 2556 2363 2490 2533 
Q 2425 2703 2258 2804 
Q 2091 2906 1866 2906 
Q 1506 2906 1245 2678 
Q 984 2450 984 1813 
L 984 0 
L 422 0 
z
" transform="scale(0.015625)"/>
       <path id="ArialMT-75" d="M 2597 0 
L 2597 488 
Q 2209 -75 1544 -75 
Q 1250 -75 995 37 
Q 741 150 617 320 
Q 494 491 444 738 
Q 409 903 409 1263 
L 409 3319 
L 972 3319 
L 972 1478 
Q 972 1038 1006 884 
Q 1059 663 1231 536 
Q 1403 409 1656 409 
Q 1909 409 2131 539 
Q 2353 669 2445 892 
Q 2538 1116 2538 1541 
L 2538 3319 
L 3100 3319 
L 3100 0 
L 2597 0 
z
" transform="scale(0.015625)"/>
       <path id="ArialMT-6d" d="M 422 0 
L 422 3319 
L 925 3319 
L 925 2853 
Q 1081 3097 1340 3245 
Q 1600 3394 1931 3394 
Q 2300 3394 2536 3241 
Q 2772 3088 2869 2813 
Q 3263 3394 3894 3394 
Q 4388 3394 4653 3120 
Q 4919 2847 4919 2278 
L 4919 0 
L 4359 0 
L 4359 2091 
Q 4359 2428 4304 2576 
Q 4250 2725 4106 2815 
Q 3963 2906 3769 2906 
Q 3419 2906 3187 2673 
Q 2956 2441 2956 1928 
L 2956 0 
L 2394 0 
L 2394 2156 
Q 2394 2531 2256 2718 
Q 2119 2906 1806 2906 
Q 1569 2906 1367 2781 
Q 1166 2656 1075 2415 
Q 984 2175 984 1722 
L 984 0 
L 422 0 
z
" transform="scale(0.015625)"/>
       <path id="ArialMT-62" d="M 941 0 
L 419 0 
L 419 4581 
L 981 4581 
L 981 2947 
Q 1338 3394 1891 3394 
Q 2197 3394 2470 3270 
Q 2744 3147 2920 2923 
Q 3097 2700 3197 2384 
Q 3297 2069 3297 1709 
Q 3297 856 2875 390 
Q 2453 -75 1863 -75 
Q 1275 -75 941 416 
L 941 0 
z
M 934 1684 
Q 934 1088 1097 822 
Q 1363 388 1816 388 
Q 2184 388 2453 708 
Q 2722 1028 2722 1663 
Q 2722 2313 2464 2622 
Q 2206 2931 1841 2931 
Q 1472 2931 1203 2611 
Q 934 2291 934 1684 
z
" transform="scale(0.015625)"/>
       <path id="ArialMT-72" d="M 416 0 
L 416 3319 
L 922 3319 
L 922 2816 
Q 1116 3169 1280 3281 
Q 1444 3394 1641 3394 
Q 1925 3394 2219 3213 
L 2025 2691 
Q 1819 2813 1613 2813 
Q 1428 2813 1281 2702 
Q 1134 2591 1072 2394 
Q 978 2094 978 1738 
L 978 0 
L 416 0 
z
" transform="scale(0.015625)"/>
      </defs>
      <use xlink:href="#ArialMT-57"/>
      <use xlink:href="#ArialMT-61" x="90.634766"/>
      <use xlink:href="#ArialMT-76" x="146.25"/>
      <use xlink:href="#ArialMT-65" x="196.25"/>
      <use xlink:href="#ArialMT-6e" x="251.865234"/>
      <use xlink:href="#ArialMT-75" x="307.480469"/>
      <use xlink:href="#ArialMT-6d" x="363.095703"/>
      <use xlink:href="#ArialMT-62" x="446.396484"/>
      <use xlink:href="#ArialMT-65" x="502.011719"/>
      <use xlink:href="#ArialMT-72" x="557.626953"/>
     </g>
    </g>
   </g>
   <g id="matplotlib.axis_2">
    <g id="ytick_1">
     <g id="line2d_9">
      <defs>
       <path id="m69baa2d31e" d="M 0 0 
L -6 0 
" style="stroke: #000000"/>
      </defs>
      <g>
       <use xlink:href="#m69baa2d31e" x="80.269063" y="264.96" style="fill-opacity: 0; stroke: #000000"/>
      </g>
     </g>
     <g id="line2d_10">
      <defs>
       <path id="mbfd9eb7ee1" d="M 0 0 
L 6 0 
" style="stroke: #000000"/>
      </defs>
      <g>
       <use xlink:href="#mbfd9eb7ee1" x="367.240491" y="264.96" style="fill-opacity: 0; stroke: #000000"/>
      </g>
     </g>
     <g id="text_10">
      <!-- 0 -->
      <g transform="translate(60.759375 271.402031) scale(0.18 -0.18)">
       <defs>
        <path id="ArialMT-30" d="M 266 2259 
Q 266 3072 433 3567 
Q 600 4063 929 4331 
Q 1259 4600 1759 4600 
Q 2128 4600 2406 4451 
Q 2684 4303 2865 4023 
Q 3047 3744 3150 3342 
Q 3253 2941 3253 2259 
Q 3253 1453 3087 958 
Q 2922 463 2592 192 
Q 2263 -78 1759 -78 
Q 1097 -78 719 397 
Q 266 969 266 2259 
z
M 844 2259 
Q 844 1131 1108 757 
Q 1372 384 1759 384 
Q 2147 384 2411 759 
Q 2675 1134 2675 2259 
Q 2675 3391 2411 3762 
Q 2147 4134 1753 4134 
Q 1366 4134 1134 3806 
Q 844 3388 844 2259 
z
" transform="scale(0.015625)"/>
       </defs>
       <use xlink:href="#ArialMT-30"/>
      </g>
     </g>
    </g>
    <g id="ytick_2">
     <g id="line2d_11">
      <g>
       <use xlink:href="#m69baa2d31e" x="80.269063" y="206.938021" style="fill-opacity: 0; stroke: #000000"/>
      </g>
     </g>
     <g id="line2d_12">
      <g>
       <use xlink:href="#mbfd9eb7ee1" x="367.240491" y="206.938021" style="fill-opacity: 0; stroke: #000000"/>
      </g>
     </g>
     <g id="text_11">
      <!-- 200 -->
      <g transform="translate(40.74 213.380052) scale(0.18 -0.18)">
       <defs>
        <path id="ArialMT-32" d="M 3222 541 
L 3222 0 
L 194 0 
Q 188 203 259 391 
Q 375 700 629 1000 
Q 884 1300 1366 1694 
Q 2113 2306 2375 2664 
Q 2638 3022 2638 3341 
Q 2638 3675 2398 3904 
Q 2159 4134 1775 4134 
Q 1369 4134 1125 3890 
Q 881 3647 878 3216 
L 300 3275 
Q 359 3922 746 4261 
Q 1134 4600 1788 4600 
Q 2447 4600 2831 4234 
Q 3216 3869 3216 3328 
Q 3216 3053 3103 2787 
Q 2991 2522 2730 2228 
Q 2469 1934 1863 1422 
Q 1356 997 1212 845 
Q 1069 694 975 541 
L 3222 541 
z
" transform="scale(0.015625)"/>
       </defs>
       <use xlink:href="#ArialMT-32"/>
       <use xlink:href="#ArialMT-30" x="55.615234"/>
       <use xlink:href="#ArialMT-30" x="111.230469"/>
      </g>
     </g>
    </g>
    <g id="ytick_3">
     <g id="line2d_13">
      <g>
       <use xlink:href="#m69baa2d31e" x="80.269063" y="148.916041" style="fill-opacity: 0; stroke: #000000"/>
      </g>
     </g>
     <g id="line2d_14">
      <g>
       <use xlink:href="#mbfd9eb7ee1" x="367.240491" y="148.916041" style="fill-opacity: 0; stroke: #000000"/>
      </g>
     </g>
     <g id="text_12">
      <!-- 400 -->
      <g transform="translate(40.74 155.358073) scale(0.18 -0.18)">
       <defs>
        <path id="ArialMT-34" d="M 2069 0 
L 2069 1097 
L 81 1097 
L 81 1613 
L 2172 4581 
L 2631 4581 
L 2631 1613 
L 3250 1613 
L 3250 1097 
L 2631 1097 
L 2631 0 
L 2069 0 
z
M 2069 1613 
L 2069 3678 
L 634 1613 
L 2069 1613 
z
" transform="scale(0.015625)"/>
       </defs>
       <use xlink:href="#ArialMT-34"/>
       <use xlink:href="#ArialMT-30" x="55.615234"/>
       <use xlink:href="#ArialMT-30" x="111.230469"/>
      </g>
     </g>
    </g>
    <g id="ytick_4">
     <g id="line2d_15">
      <g>
       <use xlink:href="#m69baa2d31e" x="80.269063" y="90.894062" style="fill-opacity: 0; stroke: #000000"/>
      </g>
     </g>
     <g id="line2d_16">
      <g>
       <use xlink:href="#mbfd9eb7ee1" x="367.240491" y="90.894062" style="fill-opacity: 0; stroke: #000000"/>
      </g>
     </g>
     <g id="text_13">
      <!-- 600 -->
      <g transform="translate(40.74 97.336093) scale(0.18 -0.18)">
       <defs>
        <path id="ArialMT-36" d="M 3184 3459 
L 2625 3416 
Q 2550 3747 2413 3897 
Q 2184 4138 1850 4138 
Q 1581 4138 1378 3988 
Q 1113 3794 959 3422 
Q 806 3050 800 2363 
Q 1003 2672 1297 2822 
Q 1591 2972 1913 2972 
Q 2475 2972 2870 2558 
Q 3266 2144 3266 1488 
Q 3266 1056 3080 686 
Q 2894 316 2569 119 
Q 2244 -78 1831 -78 
Q 1128 -78 684 439 
Q 241 956 241 2144 
Q 241 3472 731 4075 
Q 1159 4600 1884 4600 
Q 2425 4600 2770 4297 
Q 3116 3994 3184 3459 
z
M 888 1484 
Q 888 1194 1011 928 
Q 1134 663 1356 523 
Q 1578 384 1822 384 
Q 2178 384 2434 671 
Q 2691 959 2691 1453 
Q 2691 1928 2437 2201 
Q 2184 2475 1800 2475 
Q 1419 2475 1153 2201 
Q 888 1928 888 1484 
z
" transform="scale(0.015625)"/>
       </defs>
       <use xlink:href="#ArialMT-36"/>
       <use xlink:href="#ArialMT-30" x="55.615234"/>
       <use xlink:href="#ArialMT-30" x="111.230469"/>
      </g>
     </g>
    </g>
    <g id="ytick_5">
     <g id="line2d_17">
      <defs>
       <path id="m602e908ff3" d="M 0 0 
L -3 0 
" style="stroke: #000000"/>
      </defs>
      <g>
       <use xlink:href="#m602e908ff3" x="80.269063" y="250.454505" style="fill-opacity: 0; stroke: #000000"/>
      </g>
     </g>
     <g id="line2d_18">
      <defs>
       <path id="m41e7a4c7a3" d="M 0 0 
L 3 0 
" style="stroke: #000000"/>
      </defs>
      <g>
       <use xlink:href="#m41e7a4c7a3" x="367.240491" y="250.454505" style="fill-opacity: 0; stroke: #000000"/>
      </g>
     </g>
    </g>
    <g id="ytick_6">
     <g id="line2d_19">
      <g>
       <use xlink:href="#m602e908ff3" x="80.269063" y="235.94901" style="fill-opacity: 0; stroke: #000000"/>
      </g>
     </g>
     <g id="line2d_20">
      <g>
       <use xlink:href="#m41e7a4c7a3" x="367.240491" y="235.94901" style="fill-opacity: 0; stroke: #000000"/>
      </g>
     </g>
    </g>
    <g id="ytick_7">
     <g id="line2d_21">
      <g>
       <use xlink:href="#m602e908ff3" x="80.269063" y="221.443516" style="fill-opacity: 0; stroke: #000000"/>
      </g>
     </g>
     <g id="line2d_22">
      <g>
       <use xlink:href="#m41e7a4c7a3" x="367.240491" y="221.443516" style="fill-opacity: 0; stroke: #000000"/>
      </g>
     </g>
    </g>
    <g id="ytick_8">
     <g id="line2d_23">
      <g>
       <use xlink:href="#m602e908ff3" x="80.269063" y="192.432526" style="fill-opacity: 0; stroke: #000000"/>
      </g>
     </g>
     <g id="line2d_24">
      <g>
       <use xlink:href="#m41e7a4c7a3" x="367.240491" y="192.432526" style="fill-opacity: 0; stroke: #000000"/>
      </g>
     </g>
    </g>
    <g id="ytick_9">
     <g id="line2d_25">
      <g>
       <use xlink:href="#m602e908ff3" x="80.269063" y="177.927031" style="fill-opacity: 0; stroke: #000000"/>
      </g>
     </g>
     <g id="line2d_26">
      <g>
       <use xlink:href="#m41e7a4c7a3" x="367.240491" y="177.927031" style="fill-opacity: 0; stroke: #000000"/>
      </g>
     </g>
    </g>
    <g id="ytick_10">
     <g id="line2d_27">
      <g>
       <use xlink:href="#m602e908ff3" x="80.269063" y="163.421536" style="fill-opacity: 0; stroke: #000000"/>
      </g>
     </g>
     <g id="line2d_28">
      <g>
       <use xlink:href="#m41e7a4c7a3" x="367.240491" y="163.421536" style="fill-opacity: 0; stroke: #000000"/>
      </g>
     </g>
    </g>
    <g id="ytick_11">
     <g id="line2d_29">
      <g>
       <use xlink:href="#m602e908ff3" x="80.269063" y="134.410547" style="fill-opacity: 0; stroke: #000000"/>
      </g>
     </g>
     <g id="line2d_30">
      <g>
       <use xlink:href="#m41e7a4c7a3" x="367.240491" y="134.410547" style="fill-opacity: 0; stroke: #000000"/>
      </g>
     </g>
    </g>
    <g id="ytick_12">
     <g id="line2d_31">
      <g>
       <use xlink:href="#m602e908ff3" x="80.269063" y="119.905052" style="fill-opacity: 0; stroke: #000000"/>
      </g>
     </g>
     <g id="line2d_32">
      <g>
       <use xlink:href="#m41e7a4c7a3" x="367.240491" y="119.905052" style="fill-opacity: 0; stroke: #000000"/>
      </g>
     </g>
    </g>
    <g id="ytick_13">
     <g id="line2d_33">
      <g>
       <use xlink:href="#m602e908ff3" x="80.269063" y="105.399557" style="fill-opacity: 0; stroke: #000000"/>
      </g>
     </g>
     <g id="line2d_34">
      <g>
       <use xlink:href="#m41e7a4c7a3" x="367.240491" y="105.399557" style="fill-opacity: 0; stroke: #000000"/>
      </g>
     </g>
    </g>
    <g id="ytick_14">
     <g id="line2d_35">
      <g>
       <use xlink:href="#m602e908ff3" x="80.269063" y="76.388567" style="fill-opacity: 0; stroke: #000000"/>
      </g>
     </g>
     <g id="line2d_36">
      <g>
       <use xlink:href="#m41e7a4c7a3" x="367.240491" y="76.388567" style="fill-opacity: 0; stroke: #000000"/>
      </g>
     </g>
    </g>
    <g id="ytick_15">
     <g id="line2d_37">
      <g>
       <use xlink:href="#m602e908ff3" x="80.269063" y="61.883073" style="fill-opacity: 0; stroke: #000000"/>
      </g>
     </g>
     <g id="line2d_38">
      <g>
       <use xlink:href="#m41e7a4c7a3" x="367.240491" y="61.883073" style="fill-opacity: 0; stroke: #000000"/>
      </g>
     </g>
    </g>
    <g id="ytick_16">
     <g id="line2d_39">
      <g>
       <use xlink:href="#m602e908ff3" x="80.269063" y="47.377578" style="fill-opacity: 0; stroke: #000000"/>
      </g>
     </g>
     <g id="line2d_40">
      <g>
       <use xlink:href="#m41e7a4c7a3" x="367.240491" y="47.377578" style="fill-opacity: 0; stroke: #000000"/>
      </g>
     </g>
    </g>
    <g id="text_14">
     <!-- Frequency (cm$^{-1}$) -->
     <g transform="translate(30.78 225.45) rotate(-90) scale(0.18 -0.18)">
      <defs>
       <path id="ArialMT-46" d="M 525 0 
L 525 4581 
L 3616 4581 
L 3616 4041 
L 1131 4041 
L 1131 2622 
L 3281 2622 
L 3281 2081 
L 1131 2081 
L 1131 0 
L 525 0 
z
" transform="scale(0.015625)"/>
       <path id="ArialMT-71" d="M 2538 -1272 
L 2538 353 
Q 2406 169 2170 47 
Q 1934 -75 1669 -75 
Q 1078 -75 651 397 
Q 225 869 225 1691 
Q 225 2191 398 2587 
Q 572 2984 901 3189 
Q 1231 3394 1625 3394 
Q 2241 3394 2594 2875 
L 2594 3319 
L 3100 3319 
L 3100 -1272 
L 2538 -1272 
z
M 803 1669 
Q 803 1028 1072 708 
Q 1341 388 1716 388 
Q 2075 388 2334 692 
Q 2594 997 2594 1619 
Q 2594 2281 2320 2615 
Q 2047 2950 1678 2950 
Q 1313 2950 1058 2639 
Q 803 2328 803 1669 
z
" transform="scale(0.015625)"/>
       <path id="ArialMT-63" d="M 2588 1216 
L 3141 1144 
Q 3050 572 2676 248 
Q 2303 -75 1759 -75 
Q 1078 -75 664 370 
Q 250 816 250 1647 
Q 250 2184 428 2587 
Q 606 2991 970 3192 
Q 1334 3394 1763 3394 
Q 2303 3394 2647 3120 
Q 2991 2847 3088 2344 
L 2541 2259 
Q 2463 2594 2264 2762 
Q 2066 2931 1784 2931 
Q 1359 2931 1093 2626 
Q 828 2322 828 1663 
Q 828 994 1084 691 
Q 1341 388 1753 388 
Q 2084 388 2306 591 
Q 2528 794 2588 1216 
z
" transform="scale(0.015625)"/>
       <path id="ArialMT-79" d="M 397 -1278 
L 334 -750 
Q 519 -800 656 -800 
Q 844 -800 956 -737 
Q 1069 -675 1141 -563 
Q 1194 -478 1313 -144 
Q 1328 -97 1363 -6 
L 103 3319 
L 709 3319 
L 1400 1397 
Q 1534 1031 1641 628 
Q 1738 1016 1872 1384 
L 2581 3319 
L 3144 3319 
L 1881 -56 
Q 1678 -603 1566 -809 
Q 1416 -1088 1222 -1217 
Q 1028 -1347 759 -1347 
Q 597 -1347 397 -1278 
z
" transform="scale(0.015625)"/>
       <path id="ArialMT-20" transform="scale(0.015625)"/>
       <path id="ArialMT-28" d="M 1497 -1347 
Q 1031 -759 709 28 
Q 388 816 388 1659 
Q 388 2403 628 3084 
Q 909 3875 1497 4659 
L 1900 4659 
Q 1522 4009 1400 3731 
Q 1209 3300 1100 2831 
Q 966 2247 966 1656 
Q 966 153 1900 -1347 
L 1497 -1347 
z
" transform="scale(0.015625)"/>
       <path id="ArialMT-2212" d="M 3381 1997 
L 356 1997 
L 356 2522 
L 3381 2522 
L 3381 1997 
z
" transform="scale(0.015625)"/>
       <path id="ArialMT-31" d="M 2384 0 
L 1822 0 
L 1822 3584 
Q 1619 3391 1289 3197 
Q 959 3003 697 2906 
L 697 3450 
Q 1169 3672 1522 3987 
Q 1875 4303 2022 4600 
L 2384 4600 
L 2384 0 
z
" transform="scale(0.015625)"/>
       <path id="ArialMT-29" d="M 791 -1347 
L 388 -1347 
Q 1322 153 1322 1656 
Q 1322 2244 1188 2822 
Q 1081 3291 891 3722 
Q 769 4003 388 4659 
L 791 4659 
Q 1378 3875 1659 3084 
Q 1900 2403 1900 1659 
Q 1900 816 1576 28 
Q 1253 -759 791 -1347 
z
" transform="scale(0.015625)"/>
      </defs>
      <use xlink:href="#ArialMT-46" transform="translate(0 0.8625)"/>
      <use xlink:href="#ArialMT-72" transform="translate(61.083984 0.8625)"/>
      <use xlink:href="#ArialMT-65" transform="translate(94.384766 0.8625)"/>
      <use xlink:href="#ArialMT-71" transform="translate(150 0.8625)"/>
      <use xlink:href="#ArialMT-75" transform="translate(205.615234 0.8625)"/>
      <use xlink:href="#ArialMT-65" transform="translate(261.230469 0.8625)"/>
      <use xlink:href="#ArialMT-6e" transform="translate(316.845703 0.8625)"/>
      <use xlink:href="#ArialMT-63" transform="translate(372.460938 0.8625)"/>
      <use xlink:href="#ArialMT-79" transform="translate(422.460938 0.8625)"/>
      <use xlink:href="#ArialMT-20" transform="translate(472.460938 0.8625)"/>
      <use xlink:href="#ArialMT-28" transform="translate(500.244141 0.8625)"/>
      <use xlink:href="#ArialMT-63" transform="translate(533.544922 0.8625)"/>
      <use xlink:href="#ArialMT-6d" transform="translate(583.544922 0.8625)"/>
      <use xlink:href="#ArialMT-2212" transform="translate(672.072734 40.6875) scale(0.7)"/>
      <use xlink:href="#ArialMT-31" transform="translate(712.951641 40.6875) scale(0.7)"/>
      <use xlink:href="#ArialMT-29" transform="translate(759.349492 0.8625)"/>
     </g>
    </g>
   </g>
   <g id="line2d_41">
    <path d="M 80.269063 264.959999 
L 82.660563 261.195639 
L 87.447713 253.259509 
L 92.234862 245.732228 
L 97.017863 238.685633 
L 101.805013 232.219061 
L 106.592162 226.38663 
L 111.375163 221.209176 
L 113.770812 218.875753 
L 116.162313 216.72852 
L 118.553813 214.794886 
L 120.949462 213.123747 
L 123.340963 211.794645 
L 125.732463 210.918516 
L 128.128112 210.609294 
L 132.272666 210.451659 
L 135.039485 210.161605 
L 137.802145 209.705077 
L 140.561775 209.060128 
L 143.328593 208.194803 
L 146.091253 207.050207 
L 151.617702 204.339142 
L 152.995438 203.924065 
L 154.380362 203.693137 
L 155.762256 203.702849 
L 158.530864 204.130119 
L 161.291182 205.110813 
L 164.0515 206.469517 
L 166.820107 208.105694 
L 169.580425 209.972595 
L 172.340744 212.059088 
L 175.109351 214.373733 
L 177.869669 216.933115 
L 180.629987 219.753813 
L 183.398594 222.846878 
L 186.158913 226.214295 
L 188.919231 229.848118 
L 191.687838 233.728877 
L 197.208474 242.109692 
L 202.7374 251.065406 
L 211.026643 264.959998 
M 211.026643 264.959997 
L 214.847985 256.823211 
L 217.392782 251.807074 
L 219.93758 247.341309 
L 222.482378 243.531924 
L 225.027176 240.389157 
L 227.571973 237.827901 
L 230.116771 235.689973 
L 233.938113 232.878734 
L 236.48291 231.07445 
L 238.874411 230.927954 
L 241.27006 230.496216 
L 243.66156 229.800993 
L 246.053061 228.875915 
L 248.44871 227.76241 
L 253.231711 225.153793 
L 262.80601 219.63936 
L 267.589011 217.301014 
L 269.98466 216.320497 
L 272.376161 215.483083 
L 274.767661 214.795718 
L 277.16331 214.261534 
L 279.554811 213.881063 
L 281.946311 213.653474 
L 284.34196 213.577725 
L 285.726884 213.369635 
L 287.108778 212.831273 
L 288.486514 212.077826 
L 291.253332 210.140066 
L 294.015993 207.823638 
L 300.920177 201.766438 
L 303.686996 199.771656 
L 305.064732 198.952212 
L 306.449656 198.271811 
L 307.83155 197.7405 
L 309.209286 197.363515 
L 310.59421 197.141034 
L 311.976104 197.06855 
L 314.744712 197.337699 
L 317.50503 198.081029 
L 320.265348 199.204308 
L 323.033955 200.630875 
L 325.794273 202.305585 
L 328.554591 204.188169 
L 334.083517 208.41927 
L 336.843835 210.631462 
L 339.612442 212.672343 
L 342.37276 214.15569 
L 347.901686 216.130932 
L 350.662004 217.667623 
L 353.422322 219.875391 
L 356.190929 222.650045 
L 358.951247 225.654641 
L 361.711566 228.404218 
L 364.480173 230.361257 
L 367.240491 231.07445 
L 367.240491 231.07445 
" clip-path="url(#peb8c6a4b1d)" style="fill: none; stroke: #175487"/>
   </g>
   <g id="line2d_42">
    <path d="M 80.269063 264.959996 
L 85.056212 251.315704 
L 89.839213 238.129029 
L 94.626363 225.651452 
L 97.017863 219.781985 
L 99.413512 214.20308 
L 101.805013 208.941775 
L 104.196513 204.023531 
L 106.592162 199.488745 
L 108.983663 195.638047 
L 111.375163 194.141546 
L 113.770812 193.850344 
L 116.162313 194.092313 
L 118.553813 194.655324 
L 123.340963 196.05263 
L 125.732463 196.562416 
L 129.513036 196.763251 
L 133.65759 196.928138 
L 139.184039 197.426662 
L 141.946699 197.676124 
L 143.328593 197.667975 
L 144.706329 197.406563 
L 146.091253 196.826692 
L 150.235808 194.543835 
L 151.617702 193.9311 
L 152.995438 193.469874 
L 154.380362 193.185015 
L 155.762256 193.089502 
L 158.530864 193.447796 
L 161.291182 194.395104 
L 164.0515 195.717776 
L 169.580425 198.913909 
L 175.109351 202.455528 
L 180.629987 206.273549 
L 186.158913 210.447417 
L 188.919231 212.710027 
L 191.687838 215.64127 
L 194.448156 221.198116 
L 197.208474 227.61448 
L 199.977082 234.49472 
L 205.497718 249.287844 
L 211.026643 264.959996 
M 211.026643 264.959996 
L 214.847985 256.823211 
L 217.392782 251.807074 
L 219.93758 247.341309 
L 222.482378 243.531924 
L 225.027176 240.389157 
L 227.571973 237.827901 
L 230.116771 235.689973 
L 233.938113 232.878734 
L 236.48291 231.07445 
L 238.874411 230.535749 
L 241.27006 229.017033 
L 243.66156 226.771332 
L 250.84021 218.971421 
L 253.231711 216.987097 
L 255.62736 215.574579 
L 258.01886 214.70134 
L 260.410361 214.254582 
L 262.80601 214.107554 
L 265.19751 214.155727 
L 269.98466 214.556468 
L 277.16331 215.303132 
L 281.946311 215.598933 
L 285.726884 215.744392 
L 294.015993 217.06722 
L 299.542441 217.580747 
L 306.449656 217.952687 
L 311.976104 218.049428 
L 317.50503 217.94408 
L 323.033955 217.627818 
L 334.083517 216.703687 
L 336.843835 216.634327 
L 339.612442 216.918374 
L 342.37276 217.976948 
L 345.133078 219.855564 
L 350.662004 224.225814 
L 353.422322 226.221086 
L 356.190929 227.93485 
L 358.951247 229.30207 
L 361.711566 230.28736 
L 364.480173 230.878069 
L 367.240491 231.07445 
L 367.240491 231.07445 
" clip-path="url(#peb8c6a4b1d)" style="fill: none; stroke: #175487"/>
   </g>
   <g id="line2d_43">
    <path d="M 80.269063 264.959995 
L 87.447713 253.065524 
L 92.234862 245.752125 
L 94.626363 242.412348 
L 97.017863 239.335215 
L 99.413512 236.552357 
L 101.805013 234.086928 
L 104.196513 231.951991 
L 106.592162 230.149292 
L 108.983663 228.668904 
L 111.375163 227.489918 
L 113.770812 226.582178 
L 116.162313 225.908956 
L 118.553813 225.430441 
L 120.949462 225.107078 
L 125.732463 224.793804 
L 128.128112 224.759051 
L 129.513036 224.60187 
L 130.89493 224.137932 
L 132.272666 223.388971 
L 133.65759 222.388396 
L 135.039485 221.177316 
L 137.802145 218.305737 
L 144.706329 210.590581 
L 146.091253 209.299008 
L 147.473148 208.181971 
L 150.235808 206.404384 
L 155.762256 203.377744 
L 158.530864 204.832479 
L 161.291182 206.46026 
L 164.0515 208.248928 
L 166.820107 210.189083 
L 169.580425 212.275532 
L 172.340744 214.508717 
L 175.109351 216.89527 
L 177.869669 219.447063 
L 180.629987 222.179369 
L 183.398594 225.107774 
L 186.158913 228.245694 
L 188.919231 231.601761 
L 191.687838 235.178156 
L 194.448156 238.969784 
L 199.977082 247.141923 
L 205.497718 255.950147 
L 211.026643 264.960001 
M 211.026643 264.960002 
L 217.392782 244.05462 
L 221.205834 232.475982 
L 225.027176 221.915958 
L 227.571973 215.42328 
L 231.393315 206.372621 
L 235.206367 198.007089 
L 236.48291 195.364701 
L 246.053061 195.439132 
L 248.44871 195.07127 
L 250.84021 194.273246 
L 253.231711 192.931907 
L 255.62736 191.027751 
L 258.01886 188.652919 
L 262.80601 183.135429 
L 267.589011 177.56589 
L 269.98466 175.023941 
L 272.376161 172.743486 
L 274.767661 170.784932 
L 277.16331 169.200526 
L 279.554811 168.034224 
L 281.946311 167.319952 
L 284.34196 167.079372 
L 287.108778 167.195527 
L 289.871438 167.535032 
L 292.631069 168.070667 
L 296.775623 169.1351 
L 303.686996 170.970932 
L 306.449656 171.469411 
L 309.209286 171.744807 
L 311.976104 171.819153 
L 317.50503 171.782583 
L 320.265348 171.95155 
L 323.033955 172.411483 
L 325.794273 173.24423 
L 328.554591 174.492225 
L 331.323199 176.161057 
L 334.083517 178.223469 
L 336.843835 180.622532 
L 342.37276 186.045181 
L 345.133078 188.775466 
L 347.901686 191.243856 
L 350.662004 193.220654 
L 353.422322 194.557145 
L 356.190929 195.268888 
L 358.951247 195.513859 
L 367.240491 195.364701 
L 367.240491 195.364701 
" clip-path="url(#peb8c6a4b1d)" style="fill: none; stroke: #175487"/>
   </g>
   <g id="line2d_44">
    <path d="M 80.269063 225.582947 
L 82.660563 225.018093 
L 85.056212 223.401272 
L 87.447713 220.933854 
L 89.839213 217.872099 
L 94.626363 210.928255 
L 99.413512 204.099891 
L 101.805013 201.05574 
L 104.196513 198.399067 
L 106.592162 196.218111 
L 108.983663 194.330476 
L 111.375163 191.131164 
L 113.770812 187.73432 
L 116.162313 184.688638 
L 118.553813 182.054516 
L 120.949462 179.871563 
L 123.340963 178.191353 
L 125.732463 177.096198 
L 128.128112 176.706639 
L 130.89493 176.881278 
L 133.65759 177.390869 
L 136.417221 178.192804 
L 139.184039 179.21646 
L 146.091253 182.013314 
L 148.850884 182.819625 
L 150.235808 183.066213 
L 151.617702 183.184585 
L 152.995438 183.166671 
L 154.380362 183.015541 
L 155.762256 182.745703 
L 164.0515 184.196289 
L 166.820107 185.031222 
L 169.580425 186.281648 
L 172.340744 188.009965 
L 175.109351 190.250467 
L 177.869669 193.021454 
L 180.629987 196.332093 
L 183.398594 200.184902 
L 186.158913 204.573543 
L 191.687838 214.261748 
L 194.448156 216.955115 
L 197.208474 219.200626 
L 199.977082 221.25196 
L 202.7374 223.023397 
L 205.497718 224.401844 
L 208.266325 225.280644 
L 211.026643 225.582947 
M 211.026643 225.582947 
L 213.571441 225.438619 
L 217.392782 224.861339 
L 219.93758 224.511832 
L 222.482378 224.435045 
L 223.750632 224.549077 
L 225.027176 224.780319 
L 226.29543 225.132455 
L 228.848517 226.182778 
L 231.393315 227.615933 
L 235.206367 230.177686 
L 236.48291 231.07445 
L 238.874411 230.927954 
L 241.27006 230.496216 
L 243.66156 229.800993 
L 246.053061 228.875915 
L 248.44871 227.76241 
L 253.231711 225.153793 
L 262.80601 219.63936 
L 267.589011 217.301014 
L 269.98466 216.320497 
L 272.376161 215.483083 
L 274.767661 214.795718 
L 277.16331 214.261534 
L 279.554811 213.881063 
L 281.946311 213.653474 
L 284.34196 213.577725 
L 285.726884 213.369635 
L 287.108778 212.831273 
L 288.486514 212.077826 
L 291.253332 210.140066 
L 294.015993 207.823638 
L 300.920177 201.766438 
L 303.686996 199.771655 
L 305.064732 198.952212 
L 306.449656 198.271811 
L 307.83155 197.7405 
L 309.209286 197.363515 
L 310.59421 197.141034 
L 311.976104 197.06855 
L 314.744712 197.337699 
L 317.50503 198.081029 
L 320.265348 199.204308 
L 323.033955 200.630875 
L 325.794273 202.305585 
L 328.554591 204.188169 
L 334.083517 208.41927 
L 336.843835 210.631462 
L 339.612442 212.672343 
L 342.37276 214.15569 
L 347.901686 216.130932 
L 350.662004 217.667623 
L 353.422322 219.875391 
L 356.190929 222.650045 
L 358.951247 225.654641 
L 361.711566 228.404218 
L 364.480173 230.361257 
L 367.240491 231.07445 
L 367.240491 231.07445 
" clip-path="url(#peb8c6a4b1d)" style="fill: none; stroke: #175487"/>
   </g>
   <g id="line2d_45">
    <path d="M 80.269063 225.582947 
L 82.660563 225.38837 
L 85.056212 224.818068 
L 87.447713 223.9105 
L 89.839213 222.724201 
L 92.234862 221.33109 
L 101.805013 215.201314 
L 104.196513 213.852237 
L 106.592162 212.666246 
L 108.983663 211.664997 
L 111.375163 210.85672 
L 113.770812 210.23687 
L 116.162313 209.789399 
L 118.553813 209.488964 
L 123.340963 209.202361 
L 129.513036 209.041889 
L 130.89493 208.74779 
L 132.272666 208.269048 
L 133.65759 207.622057 
L 136.417221 205.914109 
L 140.561775 202.773721 
L 141.946699 201.747284 
L 143.328593 200.873898 
L 144.706329 200.318494 
L 146.091253 200.171697 
L 147.473148 200.32337 
L 150.235808 201.063204 
L 152.995438 202.111796 
L 155.762256 203.377745 
L 164.0515 199.020804 
L 166.820107 197.703986 
L 169.580425 196.556211 
L 172.340744 195.665568 
L 175.109351 195.150782 
L 177.869669 195.157165 
L 180.629987 195.821798 
L 183.398594 197.215394 
L 186.158913 199.314195 
L 188.919231 202.026891 
L 191.687838 205.234558 
L 194.448156 208.805764 
L 199.977082 216.381914 
L 202.7374 219.926693 
L 205.497718 222.884047 
L 208.266325 224.876036 
L 211.026643 225.582947 
M 211.026643 225.582947 
L 213.571441 225.438619 
L 217.392782 224.861339 
L 219.93758 224.511832 
L 222.482378 224.435045 
L 223.750632 224.549077 
L 225.027176 224.780319 
L 226.29543 225.132455 
L 228.848517 226.182778 
L 231.393315 227.615933 
L 235.206367 230.177686 
L 236.48291 231.07445 
L 238.874411 230.535749 
L 241.27006 229.017033 
L 243.66156 226.771332 
L 250.84021 218.971421 
L 253.231711 216.987097 
L 255.62736 215.574579 
L 258.01886 214.70134 
L 260.410361 214.254582 
L 262.80601 214.107554 
L 265.19751 214.155727 
L 269.98466 214.556468 
L 277.16331 215.303132 
L 281.946311 215.598933 
L 285.726884 215.744392 
L 294.015993 217.06722 
L 299.542441 217.580747 
L 306.449656 217.952687 
L 311.976104 218.049428 
L 317.50503 217.94408 
L 323.033955 217.627818 
L 334.083517 216.703687 
L 336.843835 216.634327 
L 339.612442 216.918374 
L 342.37276 217.976948 
L 345.133078 219.855564 
L 350.662004 224.225814 
L 353.422322 226.221086 
L 356.190929 227.93485 
L 358.951247 229.30207 
L 361.711566 230.28736 
L 364.480173 230.878069 
L 367.240491 231.07445 
L 367.240491 231.07445 
" clip-path="url(#peb8c6a4b1d)" style="fill: none; stroke: #175487"/>
   </g>
   <g id="line2d_46">
    <path d="M 80.269063 169.206498 
L 82.660563 169.324529 
L 85.056212 169.672039 
L 87.447713 170.230136 
L 89.839213 170.969728 
L 94.626363 172.839002 
L 101.805013 175.858946 
L 104.196513 176.650552 
L 106.592162 177.179051 
L 108.983663 177.347282 
L 111.375163 177.111736 
L 113.770812 176.532328 
L 120.949462 174.307371 
L 123.340963 173.858052 
L 125.732463 173.637131 
L 129.513036 173.618441 
L 132.272666 173.910711 
L 135.039485 174.482969 
L 137.802145 175.310745 
L 140.561775 176.357062 
L 144.706329 178.220788 
L 151.617702 181.419232 
L 154.380362 182.383759 
L 155.762256 182.745703 
L 158.530864 181.949592 
L 164.0515 180.12062 
L 166.820107 179.430062 
L 169.580425 178.99404 
L 172.340744 178.796127 
L 177.869669 178.693174 
L 180.629987 178.4753 
L 183.398594 177.98507 
L 186.158913 177.208094 
L 188.919231 176.199586 
L 199.977082 171.505327 
L 202.7374 170.553848 
L 205.497718 169.823598 
L 208.266325 169.363639 
L 211.026643 169.206498 
M 211.026643 169.206498 
L 213.571441 169.402779 
L 216.116239 170.015526 
L 217.392782 170.496759 
L 218.661037 171.107606 
L 219.93758 171.858234 
L 221.205834 172.75801 
L 222.482378 173.814665 
L 223.750632 175.033595 
L 225.027176 176.417373 
L 227.571973 179.67425 
L 230.116771 183.54544 
L 232.661569 187.953148 
L 235.206367 192.802411 
L 236.48291 195.364701 
L 246.053061 195.439132 
L 248.44871 195.07127 
L 250.84021 194.273246 
L 253.231711 192.931907 
L 255.62736 191.027751 
L 258.01886 188.652919 
L 262.80601 183.135429 
L 267.589011 177.56589 
L 269.98466 175.023941 
L 272.376161 172.743486 
L 274.767661 170.784932 
L 277.16331 169.200526 
L 279.554811 168.034224 
L 281.946311 167.319952 
L 284.34196 167.079372 
L 287.108778 167.195527 
L 289.871438 167.535032 
L 292.631069 168.070667 
L 296.775623 169.1351 
L 303.686996 170.970932 
L 306.449656 171.469411 
L 309.209286 171.744807 
L 311.976104 171.819153 
L 317.50503 171.782583 
L 320.265348 171.95155 
L 323.033955 172.411483 
L 325.794273 173.24423 
L 328.554591 174.492225 
L 331.323199 176.161057 
L 334.083517 178.223469 
L 336.843835 180.622532 
L 342.37276 186.045181 
L 345.133078 188.775466 
L 347.901686 191.243856 
L 350.662004 193.220654 
L 353.422322 194.557145 
L 356.190929 195.268888 
L 358.951247 195.513859 
L 367.240491 195.364701 
L 367.240491 195.364701 
" clip-path="url(#peb8c6a4b1d)" style="fill: none; stroke: #175487"/>
   </g>
   <g id="line2d_47">
    <path d="M 80.269063 112.311744 
L 82.660563 112.246587 
L 85.056212 112.051728 
L 87.447713 111.728357 
L 89.839213 111.278498 
L 92.234862 110.704941 
L 97.017863 109.202239 
L 101.805013 107.263695 
L 106.592162 104.962928 
L 118.553813 98.692809 
L 120.949462 97.657162 
L 123.340963 96.836864 
L 125.732463 96.305166 
L 129.513036 96.100624 
L 132.272666 95.940466 
L 135.039485 95.592795 
L 136.417221 95.255163 
L 137.802145 94.434969 
L 140.561775 91.885478 
L 147.473148 84.983158 
L 150.235808 82.576838 
L 152.995438 80.568044 
L 154.380362 79.776443 
L 155.762256 79.377638 
L 158.530864 80.380474 
L 161.291182 81.759744 
L 164.0515 82.897645 
L 166.820107 83.327251 
L 169.580425 83.115149 
L 175.109351 82.447866 
L 177.869669 82.359752 
L 180.629987 82.57992 
L 183.398594 83.211408 
L 186.158913 84.337827 
L 188.919231 85.995363 
L 191.687838 88.152452 
L 194.448156 90.704771 
L 199.977082 96.268757 
L 202.7374 98.819433 
L 205.497718 100.894057 
L 208.266325 102.273289 
L 211.026643 102.765097 
M 211.026643 102.765097 
L 219.93758 102.838548 
L 225.027176 103.089063 
L 231.393315 103.673371 
L 236.48291 104.182434 
L 238.874411 103.898937 
L 241.27006 103.083105 
L 243.66156 101.831378 
L 246.053061 100.283136 
L 250.84021 96.918087 
L 253.231711 95.375404 
L 255.62736 94.052703 
L 258.01886 92.993284 
L 260.410361 92.202774 
L 262.80601 91.658513 
L 265.19751 91.321245 
L 267.589011 91.144918 
L 272.376161 91.096343 
L 284.34196 91.321154 
L 285.726884 91.154247 
L 287.108778 90.708175 
L 288.486514 90.072496 
L 291.253332 88.438043 
L 294.015993 86.481984 
L 299.542441 82.136591 
L 303.686996 79.015669 
L 306.449656 77.239855 
L 307.83155 76.496686 
L 309.209286 75.889899 
L 310.59421 75.474779 
L 311.976104 75.324387 
L 314.744712 75.849702 
L 317.50503 77.017284 
L 320.265348 78.475496 
L 325.794273 81.869405 
L 334.083517 87.366877 
L 336.843835 89.042564 
L 339.612442 90.509987 
L 347.901686 94.209784 
L 350.662004 95.7044 
L 353.422322 97.439328 
L 358.951247 101.168927 
L 361.711566 102.74283 
L 364.480173 103.806172 
L 367.240491 104.182434 
L 367.240491 104.182434 
" clip-path="url(#peb8c6a4b1d)" style="fill: none; stroke: #175487"/>
   </g>
   <g id="line2d_48">
    <path d="M 80.269063 105.720726 
L 85.056212 105.571208 
L 89.839213 105.100377 
L 94.626363 104.338112 
L 104.196513 102.411908 
L 111.375163 101.054696 
L 116.162313 100.325571 
L 120.949462 99.7964 
L 125.732463 99.515331 
L 129.513036 99.370097 
L 130.89493 99.045762 
L 132.272666 98.515975 
L 133.65759 97.798296 
L 136.417221 95.995237 
L 137.802145 95.383689 
L 144.706329 93.526837 
L 148.850884 92.116546 
L 155.762256 89.430574 
L 158.530864 90.591687 
L 164.0515 93.289672 
L 169.580425 96.348182 
L 183.398594 104.27042 
L 188.919231 107.011342 
L 191.687838 108.206747 
L 194.448156 109.266533 
L 197.208474 110.179925 
L 199.977082 110.938396 
L 202.7374 111.53524 
L 205.497718 111.965311 
L 208.266325 112.224936 
L 211.026643 112.311744 
M 211.026643 55.787181 
L 214.847985 55.907951 
L 218.661037 56.279387 
L 222.482378 56.915195 
L 226.29543 57.806579 
L 231.393315 59.305501 
L 236.48291 60.98741 
L 238.874411 61.06591 
L 243.66156 61.620224 
L 250.84021 62.770011 
L 255.62736 63.306482 
L 262.80601 63.928869 
L 267.589011 64.624745 
L 272.376161 65.631713 
L 277.16331 66.685391 
L 279.554811 67.098409 
L 281.946311 67.368518 
L 291.253332 67.831112 
L 295.397887 68.404283 
L 299.542441 69.234827 
L 303.686996 70.299876 
L 309.209286 71.858678 
L 310.59421 72.128536 
L 311.976104 72.231434 
L 314.744712 71.883595 
L 320.265348 70.46849 
L 325.794273 68.910674 
L 336.843835 65.575734 
L 339.612442 64.90122 
L 345.133078 63.902306 
L 356.190929 62.26949 
L 361.711566 61.381875 
L 364.480173 61.091608 
L 367.240491 60.98741 
L 367.240491 60.98741 
" clip-path="url(#peb8c6a4b1d)" style="fill: none; stroke: #175487"/>
   </g>
   <g id="line2d_49">
    <path d="M 80.269063 102.765097 
L 82.660563 102.420527 
L 85.056212 101.412427 
L 87.447713 99.814399 
L 89.839213 97.739626 
L 92.234862 95.328455 
L 99.413512 87.612047 
L 101.805013 85.356525 
L 104.196513 83.450812 
L 106.592162 81.966332 
L 108.983663 80.933659 
L 111.375163 80.33383 
L 113.770812 80.100274 
L 116.162313 80.136819 
L 120.949462 80.620476 
L 125.732463 81.08951 
L 133.65759 81.228532 
L 137.802145 81.248435 
L 140.561775 81.090091 
L 143.328593 80.664641 
L 146.091253 79.979455 
L 150.235808 78.856531 
L 152.995438 78.348026 
L 155.762256 78.19983 
L 158.530864 77.327385 
L 161.291182 76.324254 
L 166.820107 74.690425 
L 177.869669 71.797361 
L 183.398594 70.572268 
L 191.687838 68.958135 
L 197.208474 68.031239 
L 202.7374 67.34149 
L 208.266325 66.975445 
L 211.026643 66.928716 
M 211.026643 66.928716 
L 213.571441 66.842545 
L 216.116239 66.589131 
L 219.93758 65.929074 
L 223.750632 65.00307 
L 228.848517 63.502249 
L 236.48291 60.98741 
L 238.874411 61.06591 
L 243.66156 61.620224 
L 250.84021 62.770011 
L 255.62736 63.306482 
L 262.80601 63.928869 
L 267.589011 64.624745 
L 272.376161 65.631713 
L 277.16331 66.685391 
L 279.554811 67.098409 
L 281.946311 67.368518 
L 291.253332 67.831112 
L 295.397887 68.404283 
L 299.542441 69.234827 
L 303.686996 70.299876 
L 309.209286 71.858678 
L 310.59421 72.128536 
L 311.976104 72.231434 
L 314.744712 71.883595 
L 320.265348 70.46849 
L 325.794273 68.910674 
L 336.843835 65.575734 
L 339.612442 64.90122 
L 345.133078 63.902306 
L 356.190929 62.26949 
L 361.711566 61.381875 
L 364.480173 61.091608 
L 367.240491 60.98741 
L 367.240491 60.98741 
" clip-path="url(#peb8c6a4b1d)" style="fill: none; stroke: #175487"/>
   </g>
   <g id="line2d_50">
    <path d="M 80.269063 102.765097 
L 82.660563 102.638667 
L 85.056212 102.27099 
L 87.447713 101.691656 
L 89.839213 100.938568 
L 94.626363 99.070809 
L 106.592162 93.968477 
L 111.375163 92.322707 
L 116.162313 91.077024 
L 120.949462 90.257551 
L 125.732463 89.855007 
L 129.513036 89.760095 
L 132.272666 89.411624 
L 135.039485 88.780649 
L 140.561775 87.292164 
L 143.328593 86.880537 
L 146.091253 86.895518 
L 148.850884 87.298514 
L 151.617702 87.993601 
L 154.380362 88.906994 
L 155.762256 89.430575 
L 158.530864 88.379575 
L 161.291182 87.492847 
L 164.0515 87.040695 
L 166.820107 87.480353 
L 169.580425 88.746042 
L 175.109351 92.076424 
L 180.629987 95.512888 
L 186.158913 98.701652 
L 188.919231 100.141626 
L 191.687838 101.451705 
L 194.448156 102.613636 
L 197.208474 103.610412 
L 199.977082 104.426106 
L 202.7374 105.045617 
L 205.497718 105.457233 
L 208.266325 105.666208 
L 211.026643 105.720726 
M 211.026643 105.720726 
L 216.116239 105.582637 
L 226.29543 104.91878 
L 241.27006 103.878234 
L 243.66156 103.509614 
L 248.44871 102.412357 
L 253.231711 100.977653 
L 265.19751 97.135596 
L 269.98466 95.891903 
L 274.767661 94.957057 
L 279.554811 94.378853 
L 284.34196 94.183244 
L 285.726884 94.290765 
L 288.486514 94.905146 
L 296.775623 97.035521 
L 300.920177 97.910163 
L 305.064732 98.574024 
L 309.209286 98.957739 
L 311.976104 99.033016 
L 314.744712 98.958108 
L 317.50503 98.739565 
L 323.033955 97.954326 
L 331.323199 96.530017 
L 334.083517 96.251817 
L 336.843835 96.230845 
L 339.612442 96.569703 
L 342.37276 97.301519 
L 345.133078 98.329293 
L 350.662004 100.628628 
L 353.422322 101.669289 
L 356.190929 102.556349 
L 358.951247 103.261959 
L 361.711566 103.771969 
L 364.480173 104.079653 
L 367.240491 104.182434 
L 367.240491 104.182434 
" clip-path="url(#peb8c6a4b1d)" style="fill: none; stroke: #175487"/>
   </g>
   <g id="line2d_51">
    <path d="M 80.269063 66.928716 
L 85.056212 67.06827 
L 89.839213 67.475069 
L 94.626363 68.110209 
L 106.592162 70.014085 
L 111.375163 70.475189 
L 120.949462 70.970792 
L 128.128112 71.149804 
L 130.89493 71.226815 
L 133.65759 71.458009 
L 136.417221 71.843889 
L 139.184039 72.384937 
L 143.328593 73.487012 
L 147.473148 74.929423 
L 151.617702 76.672843 
L 154.380362 77.885031 
L 155.762256 78.19983 
L 158.530864 78.470528 
L 161.291182 79.148662 
L 164.0515 80.178676 
L 166.820107 81.490144 
L 169.580425 83.014914 
L 175.109351 86.469393 
L 186.158913 93.729039 
L 191.687838 96.979714 
L 194.448156 98.410359 
L 197.208474 99.676296 
L 199.977082 100.752766 
L 202.7374 101.617054 
L 205.497718 102.249582 
L 208.266325 102.635411 
L 211.026643 102.765097 
M 211.026643 102.765097 
L 219.93758 102.838548 
L 225.027176 103.089063 
L 231.393315 103.673371 
L 236.48291 104.182434 
L 238.874411 104.105572 
L 241.27006 103.878234 
L 243.66156 103.509614 
L 248.44871 102.412357 
L 253.231711 100.977653 
L 265.19751 97.135596 
L 269.98466 95.891903 
L 274.767661 94.957057 
L 279.554811 94.378853 
L 284.34196 94.183244 
L 285.726884 94.290765 
L 288.486514 94.905146 
L 296.775623 97.035521 
L 300.920177 97.910163 
L 305.064732 98.574024 
L 309.209286 98.957739 
L 311.976104 99.033016 
L 314.744712 98.958108 
L 317.50503 98.739565 
L 323.033955 97.954326 
L 331.323199 96.530017 
L 334.083517 96.251817 
L 336.843835 96.230845 
L 339.612442 96.569703 
L 342.37276 97.301519 
L 345.133078 98.329293 
L 350.662004 100.628628 
L 353.422322 101.669289 
L 356.190929 102.556349 
L 358.951247 103.261959 
L 361.711566 103.771969 
L 364.480173 104.079653 
L 367.240491 104.182434 
L 367.240491 104.182434 
" clip-path="url(#peb8c6a4b1d)" style="fill: none; stroke: #175487"/>
   </g>
   <g id="line2d_52">
    <path d="M 80.269063 53.845952 
L 82.660563 53.905946 
L 87.447713 54.371375 
L 92.234862 55.231724 
L 97.017863 56.379297 
L 101.805013 57.721274 
L 108.983663 60.016735 
L 120.949462 64.072651 
L 123.340963 64.645947 
L 125.732463 65.018375 
L 129.513036 65.155182 
L 135.039485 65.331217 
L 140.561775 65.731236 
L 154.380362 66.959588 
L 155.762256 66.978346 
L 158.530864 66.900719 
L 161.291182 66.671305 
L 164.0515 66.304136 
L 166.820107 65.811967 
L 169.580425 65.201007 
L 175.109351 63.638545 
L 180.629987 61.698791 
L 191.687838 57.523532 
L 197.208474 55.793525 
L 199.977082 55.107457 
L 202.7374 54.561563 
L 205.497718 54.165785 
L 208.266325 53.926155 
L 211.026643 53.845952 
M 211.026643 105.720726 
L 216.116239 105.582637 
L 226.29543 104.91878 
L 236.48291 104.182434 
L 238.874411 103.898937 
L 241.27006 103.083105 
L 243.66156 101.831378 
L 246.053061 100.283137 
L 250.84021 96.918087 
L 253.231711 95.375404 
L 255.62736 94.052704 
L 258.01886 92.993284 
L 260.410361 92.202774 
L 262.80601 91.658513 
L 265.19751 91.321245 
L 267.589011 91.144918 
L 272.376161 91.096343 
L 284.34196 91.321154 
L 285.726884 91.154247 
L 287.108778 90.708175 
L 288.486514 90.072496 
L 291.253332 88.438043 
L 294.015993 86.481984 
L 299.542441 82.136591 
L 303.686996 79.015669 
L 306.449656 77.239855 
L 307.83155 76.496686 
L 309.209286 75.889899 
L 310.59421 75.474779 
L 311.976104 75.324387 
L 314.744712 75.849702 
L 317.50503 77.017284 
L 320.265348 78.475496 
L 325.794273 81.869405 
L 334.083517 87.366877 
L 336.843835 89.042564 
L 339.612442 90.509987 
L 347.901686 94.209784 
L 350.662004 95.7044 
L 353.422322 97.439328 
L 358.951247 101.168927 
L 361.711566 102.74283 
L 364.480173 103.806172 
L 367.240491 104.182434 
L 367.240491 104.182434 
" clip-path="url(#peb8c6a4b1d)" style="fill: none; stroke: #175487"/>
   </g>
   <g id="patch_3">
    <path d="M 80.269063 264.96 
L 80.269063 43.2 
" style="fill: none; stroke: #000000; stroke-linejoin: miter; stroke-linecap: square"/>
   </g>
   <g id="patch_4">
    <path d="M 367.240491 264.96 
L 367.240491 43.2 
" style="fill: none; stroke: #000000; stroke-linejoin: miter; stroke-linecap: square"/>
   </g>
   <g id="patch_5">
    <path d="M 80.269063 264.96 
L 367.240491 264.96 
" style="fill: none; stroke: #000000; stroke-linejoin: miter; stroke-linecap: square"/>
   </g>
   <g id="patch_6">
    <path d="M 80.269063 43.2 
L 367.240491 43.2 
" style="fill: none; stroke: #000000; stroke-linejoin: miter; stroke-linecap: square"/>
   </g>
  </g>
  <g id="axes_2">
   <g id="patch_7">
    <path d="M 386.37192 264.96 
L 482.029063 264.96 
L 482.029063 43.2 
L 386.37192 43.2 
z
" style="fill: #ffffff"/>
   </g>
   <g id="matplotlib.axis_3">
    <g id="xtick_31"/>
    <g id="xtick_32"/>
    <g id="xtick_33"/>
    <g id="xtick_34"/>
    <g id="xtick_35"/>
    <g id="xtick_36"/>
    <g id="text_15">
     <!-- DOS -->
     <g transform="translate(414.69721 283.844063) scale(0.18 -0.18)">
      <defs>
       <path id="ArialMT-44" d="M 494 0 
L 494 4581 
L 2072 4581 
Q 2606 4581 2888 4516 
Q 3281 4425 3559 4188 
Q 3922 3881 4101 3404 
Q 4281 2928 4281 2316 
Q 4281 1794 4159 1391 
Q 4038 988 3847 723 
Q 3656 459 3429 307 
Q 3203 156 2883 78 
Q 2563 0 2147 0 
L 494 0 
z
M 1100 541 
L 2078 541 
Q 2531 541 2789 625 
Q 3047 709 3200 863 
Q 3416 1078 3536 1442 
Q 3656 1806 3656 2325 
Q 3656 3044 3420 3430 
Q 3184 3816 2847 3947 
Q 2603 4041 2063 4041 
L 1100 4041 
L 1100 541 
z
" transform="scale(0.015625)"/>
       <path id="ArialMT-4f" d="M 309 2231 
Q 309 3372 921 4017 
Q 1534 4663 2503 4663 
Q 3138 4663 3647 4359 
Q 4156 4056 4423 3514 
Q 4691 2972 4691 2284 
Q 4691 1588 4409 1038 
Q 4128 488 3612 205 
Q 3097 -78 2500 -78 
Q 1853 -78 1343 234 
Q 834 547 571 1087 
Q 309 1628 309 2231 
z
M 934 2222 
Q 934 1394 1379 917 
Q 1825 441 2497 441 
Q 3181 441 3623 922 
Q 4066 1403 4066 2288 
Q 4066 2847 3877 3264 
Q 3688 3681 3323 3911 
Q 2959 4141 2506 4141 
Q 1863 4141 1398 3698 
Q 934 3256 934 2222 
z
" transform="scale(0.015625)"/>
       <path id="ArialMT-53" d="M 288 1472 
L 859 1522 
Q 900 1178 1048 958 
Q 1197 738 1509 602 
Q 1822 466 2213 466 
Q 2559 466 2825 569 
Q 3091 672 3220 851 
Q 3350 1031 3350 1244 
Q 3350 1459 3225 1620 
Q 3100 1781 2813 1891 
Q 2628 1963 1997 2114 
Q 1366 2266 1113 2400 
Q 784 2572 623 2826 
Q 463 3081 463 3397 
Q 463 3744 659 4045 
Q 856 4347 1234 4503 
Q 1613 4659 2075 4659 
Q 2584 4659 2973 4495 
Q 3363 4331 3572 4012 
Q 3781 3694 3797 3291 
L 3216 3247 
Q 3169 3681 2898 3903 
Q 2628 4125 2100 4125 
Q 1550 4125 1298 3923 
Q 1047 3722 1047 3438 
Q 1047 3191 1225 3031 
Q 1400 2872 2139 2705 
Q 2878 2538 3153 2413 
Q 3553 2228 3743 1945 
Q 3934 1663 3934 1294 
Q 3934 928 3725 604 
Q 3516 281 3123 101 
Q 2731 -78 2241 -78 
Q 1619 -78 1198 103 
Q 778 284 539 648 
Q 300 1013 288 1472 
z
" transform="scale(0.015625)"/>
      </defs>
      <use xlink:href="#ArialMT-44"/>
      <use xlink:href="#ArialMT-4f" x="72.216797"/>
      <use xlink:href="#ArialMT-53" x="150"/>
     </g>
    </g>
   </g>
   <g id="matplotlib.axis_4">
    <g id="ytick_17">
     <g id="line2d_53">
      <g>
       <use xlink:href="#m69baa2d31e" x="386.37192" y="264.96" style="fill-opacity: 0; stroke: #000000"/>
      </g>
     </g>
     <g id="line2d_54">
      <g>
       <use xlink:href="#mbfd9eb7ee1" x="482.029063" y="264.96" style="fill-opacity: 0; stroke: #000000"/>
      </g>
     </g>
    </g>
    <g id="ytick_18">
     <g id="line2d_55">
      <g>
       <use xlink:href="#m69baa2d31e" x="386.37192" y="206.938021" style="fill-opacity: 0; stroke: #000000"/>
      </g>
     </g>
     <g id="line2d_56">
      <g>
       <use xlink:href="#mbfd9eb7ee1" x="482.029063" y="206.938021" style="fill-opacity: 0; stroke: #000000"/>
      </g>
     </g>
    </g>
    <g id="ytick_19">
     <g id="line2d_57">
      <g>
       <use xlink:href="#m69baa2d31e" x="386.37192" y="148.916041" style="fill-opacity: 0; stroke: #000000"/>
      </g>
     </g>
     <g id="line2d_58">
      <g>
       <use xlink:href="#mbfd9eb7ee1" x="482.029063" y="148.916041" style="fill-opacity: 0; stroke: #000000"/>
      </g>
     </g>
    </g>
    <g id="ytick_20">
     <g id="line2d_59">
      <g>
       <use xlink:href="#m69baa2d31e" x="386.37192" y="90.894062" style="fill-opacity: 0; stroke: #000000"/>
      </g>
     </g>
     <g id="line2d_60">
      <g>
       <use xlink:href="#mbfd9eb7ee1" x="482.029063" y="90.894062" style="fill-opacity: 0; stroke: #000000"/>
      </g>
     </g>
    </g>
    <g id="ytick_21">
     <g id="line2d_61">
      <g>
       <use xlink:href="#m602e908ff3" x="386.37192" y="250.454505" style="fill-opacity: 0; stroke: #000000"/>
      </g>
     </g>
     <g id="line2d_62">
      <g>
       <use xlink:href="#m41e7a4c7a3" x="482.029063" y="250.454505" style="fill-opacity: 0; stroke: #000000"/>
      </g>
     </g>
    </g>
    <g id="ytick_22">
     <g id="line2d_63">
      <g>
       <use xlink:href="#m602e908ff3" x="386.37192" y="235.94901" style="fill-opacity: 0; stroke: #000000"/>
      </g>
     </g>
     <g id="line2d_64">
      <g>
       <use xlink:href="#m41e7a4c7a3" x="482.029063" y="235.94901" style="fill-opacity: 0; stroke: #000000"/>
      </g>
     </g>
    </g>
    <g id="ytick_23">
     <g id="line2d_65">
      <g>
       <use xlink:href="#m602e908ff3" x="386.37192" y="221.443516" style="fill-opacity: 0; stroke: #000000"/>
      </g>
     </g>
     <g id="line2d_66">
      <g>
       <use xlink:href="#m41e7a4c7a3" x="482.029063" y="221.443516" style="fill-opacity: 0; stroke: #000000"/>
      </g>
     </g>
    </g>
    <g id="ytick_24">
     <g id="line2d_67">
      <g>
       <use xlink:href="#m602e908ff3" x="386.37192" y="192.432526" style="fill-opacity: 0; stroke: #000000"/>
      </g>
     </g>
     <g id="line2d_68">
      <g>
       <use xlink:href="#m41e7a4c7a3" x="482.029063" y="192.432526" style="fill-opacity: 0; stroke: #000000"/>
      </g>
     </g>
    </g>
    <g id="ytick_25">
     <g id="line2d_69">
      <g>
       <use xlink:href="#m602e908ff3" x="386.37192" y="177.927031" style="fill-opacity: 0; stroke: #000000"/>
      </g>
     </g>
     <g id="line2d_70">
      <g>
       <use xlink:href="#m41e7a4c7a3" x="482.029063" y="177.927031" style="fill-opacity: 0; stroke: #000000"/>
      </g>
     </g>
    </g>
    <g id="ytick_26">
     <g id="line2d_71">
      <g>
       <use xlink:href="#m602e908ff3" x="386.37192" y="163.421536" style="fill-opacity: 0; stroke: #000000"/>
      </g>
     </g>
     <g id="line2d_72">
      <g>
       <use xlink:href="#m41e7a4c7a3" x="482.029063" y="163.421536" style="fill-opacity: 0; stroke: #000000"/>
      </g>
     </g>
    </g>
    <g id="ytick_27">
     <g id="line2d_73">
      <g>
       <use xlink:href="#m602e908ff3" x="386.37192" y="134.410547" style="fill-opacity: 0; stroke: #000000"/>
      </g>
     </g>
     <g id="line2d_74">
      <g>
       <use xlink:href="#m41e7a4c7a3" x="482.029063" y="134.410547" style="fill-opacity: 0; stroke: #000000"/>
      </g>
     </g>
    </g>
    <g id="ytick_28">
     <g id="line2d_75">
      <g>
       <use xlink:href="#m602e908ff3" x="386.37192" y="119.905052" style="fill-opacity: 0; stroke: #000000"/>
      </g>
     </g>
     <g id="line2d_76">
      <g>
       <use xlink:href="#m41e7a4c7a3" x="482.029063" y="119.905052" style="fill-opacity: 0; stroke: #000000"/>
      </g>
     </g>
    </g>
    <g id="ytick_29">
     <g id="line2d_77">
      <g>
       <use xlink:href="#m602e908ff3" x="386.37192" y="105.399557" style="fill-opacity: 0; stroke: #000000"/>
      </g>
     </g>
     <g id="line2d_78">
      <g>
       <use xlink:href="#m41e7a4c7a3" x="482.029063" y="105.399557" style="fill-opacity: 0; stroke: #000000"/>
      </g>
     </g>
    </g>
    <g id="ytick_30">
     <g id="line2d_79">
      <g>
       <use xlink:href="#m602e908ff3" x="386.37192" y="76.388567" style="fill-opacity: 0; stroke: #000000"/>
      </g>
     </g>
     <g id="line2d_80">
      <g>
       <use xlink:href="#m41e7a4c7a3" x="482.029063" y="76.388567" style="fill-opacity: 0; stroke: #000000"/>
      </g>
     </g>
    </g>
    <g id="ytick_31">
     <g id="line2d_81">
      <g>
       <use xlink:href="#m602e908ff3" x="386.37192" y="61.883073" style="fill-opacity: 0; stroke: #000000"/>
      </g>
     </g>
     <g id="line2d_82">
      <g>
       <use xlink:href="#m41e7a4c7a3" x="482.029063" y="61.883073" style="fill-opacity: 0; stroke: #000000"/>
      </g>
     </g>
    </g>
    <g id="ytick_32">
     <g id="line2d_83">
      <g>
       <use xlink:href="#m602e908ff3" x="386.37192" y="47.377578" style="fill-opacity: 0; stroke: #000000"/>
      </g>
     </g>
     <g id="line2d_84">
      <g>
       <use xlink:href="#m41e7a4c7a3" x="482.029063" y="47.377578" style="fill-opacity: 0; stroke: #000000"/>
      </g>
     </g>
    </g>
   </g>
   <g id="line2d_85">
    <path d="M 386.37192 264.960005 
L 386.483129 258.577587 
L 386.788375 253.065499 
L 387.248552 248.42374 
L 387.829428 244.652312 
L 388.464298 241.751213 
L 389.352043 238.850114 
L 390.185606 236.819345 
L 391.43166 234.498465 
L 392.593457 232.757806 
L 393.743364 231.307257 
L 395.377672 229.566597 
L 397.099873 228.116048 
L 398.84703 226.955608 
L 400.495518 226.085278 
L 401.180126 225.795169 
L 403.458824 225.214949 
L 405.034505 224.924839 
L 407.421211 224.634729 
L 408.625714 224.344619 
L 410.27078 223.184179 
L 413.875319 221.44352 
L 416.575064 220.57319 
L 419.180689 219.992971 
L 422.803712 219.412751 
L 425.693137 219.122641 
L 430.274536 218.832531 
L 439.547978 218.542421 
L 431.35359 217.962201 
L 428.250122 217.672091 
L 425.752554 217.091872 
L 424.368476 216.511652 
L 423.497803 215.931432 
L 422.701137 215.351212 
L 422.218728 214.770992 
L 421.283082 214.480883 
L 421.515065 213.610553 
L 421.564606 213.320443 
L 421.832578 213.030333 
L 421.790989 212.740223 
L 422.155637 212.450113 
L 422.221307 212.160003 
L 423.272189 211.289674 
L 423.966068 210.709454 
L 423.194492 210.419344 
L 422.774043 209.839124 
L 423.240699 209.258904 
L 418.904116 208.678685 
L 416.818216 208.098465 
L 415.373124 207.518245 
L 413.816474 206.647915 
L 412.752898 205.777586 
L 411.953461 204.907256 
L 411.478372 204.036926 
L 411.748252 203.746816 
L 411.446243 203.456707 
L 412.638263 203.166597 
L 411.302905 202.876487 
L 410.127221 202.296267 
L 409.283258 201.425937 
L 408.842632 200.845717 
L 408.463915 200.265498 
L 407.136092 199.685278 
L 406.555991 199.105058 
L 406.396015 198.814948 
L 406.367528 198.524838 
L 406.539432 198.234728 
L 406.8985 197.944618 
L 408.562346 197.654509 
L 409.894049 197.074289 
L 408.852722 196.784179 
L 406.635316 196.494069 
L 404.462645 195.913849 
L 403.117017 195.333629 
L 401.77044 195.04352 
L 396.256985 194.17319 
L 393.085553 193.88308 
L 392.120358 193.59297 
L 391.573302 193.30286 
L 390.669611 193.01275 
L 391.295408 190.981981 
L 392.258545 188.661102 
L 393.444138 186.630333 
L 394.361241 185.469893 
L 395.281727 184.599563 
L 396.136231 184.019343 
L 397.467311 183.439124 
L 398.803371 183.149014 
L 398.831928 182.568794 
L 399.925852 181.698464 
L 401.395287 180.828135 
L 403.457529 179.957805 
L 405.439524 179.377585 
L 406.872201 179.087475 
L 409.087946 178.797365 
L 423.907729 178.217146 
L 424.872959 177.927036 
L 426.377692 177.636926 
L 432.505171 177.346816 
L 422.886763 177.056706 
L 418.783435 176.476486 
L 416.913794 175.896266 
L 415.950684 175.316047 
L 415.49417 174.735827 
L 415.426479 174.155607 
L 415.578788 173.865497 
L 415.580439 173.575387 
L 414.149416 173.285277 
L 413.621548 172.995167 
L 413.43997 172.705058 
L 413.523332 172.414948 
L 414.015937 172.124838 
L 416.514245 171.834728 
L 410.425097 171.544618 
L 405.358126 170.964398 
L 401.082889 170.094068 
L 394.254118 168.353409 
L 390.746543 167.483079 
L 386.37192 166.90286 
L 386.37192 112.362199 
L 386.50648 112.072089 
L 387.049345 111.491869 
L 390.601153 107.140221 
L 391.967964 105.979781 
L 393.56239 105.689671 
L 398.996194 105.109452 
L 403.101301 104.529232 
L 412.367184 102.788572 
L 415.074977 102.498463 
L 418.353459 101.628133 
L 421.124722 101.047913 
L 424.844777 100.467693 
L 430.554156 99.887474 
L 435.18244 99.597364 
L 442.253295 99.307254 
L 477.47396 99.017144 
L 467.227072 98.727034 
L 461.119911 98.436924 
L 450.511438 98.146814 
L 445.216036 97.856704 
L 440.493007 97.276484 
L 439.59006 96.986375 
L 440.660239 96.696265 
L 438.138517 96.116045 
L 434.941189 95.825935 
L 431.95477 95.245715 
L 427.60396 94.085276 
L 425.630367 93.505056 
L 424.33398 93.214946 
L 424.568465 92.924836 
L 424.124587 92.634726 
L 424.125033 92.344616 
L 423.766866 92.054506 
L 423.705209 91.184177 
L 424.067119 90.313847 
L 424.282135 90.023737 
L 422.397809 89.733627 
L 419.727657 89.443517 
L 417.579133 88.863297 
L 416.296758 88.283078 
L 415.377105 87.702858 
L 415.160287 87.412748 
L 414.684497 87.122638 
L 410.926164 86.832528 
L 410.0368 86.542418 
L 409.867086 86.252308 
L 409.850011 85.962198 
L 410.150739 85.381979 
L 411.202278 84.511649 
L 411.760651 84.221539 
L 412.73088 83.931429 
L 413.25115 83.641319 
L 414.017177 83.351209 
L 414.335596 83.0611 
L 417.777086 82.48088 
L 417.640561 82.19077 
L 418.530265 81.90066 
L 420.806723 81.61055 
L 426.952882 81.32044 
L 430.688718 81.03033 
L 415.487582 80.74022 
L 402.367955 80.160001 
L 398.285616 79.869891 
L 395.585545 78.709451 
L 395.065681 78.419341 
L 393.189074 77.839121 
L 392.025175 77.258902 
L 391.243722 76.678682 
L 389.972037 75.228132 
L 391.477761 74.647913 
L 394.477518 73.777583 
L 398.578992 72.907253 
L 402.347466 72.327033 
L 407.598181 71.746814 
L 411.505357 71.456704 
L 418.762561 71.166594 
L 422.55435 70.876484 
L 423.719716 70.586374 
L 424.157362 70.006154 
L 425.163541 69.425934 
L 427.407041 68.555605 
L 429.402992 67.975385 
L 432.293957 67.395165 
L 436.483291 66.814945 
L 435.025081 66.234726 
L 433.379344 65.364396 
L 420.196873 64.494066 
L 415.722444 63.913846 
L 411.151311 63.043517 
L 407.707664 62.173187 
L 403.039208 60.722638 
L 395.570302 58.111648 
L 392.075867 56.661099 
L 387.778732 54.63033 
L 386.37192 53.76 
L 386.37192 53.76 
" clip-path="url(#p5448181c7e)" style="fill: none; stroke: #175487"/>
   </g>
   <g id="patch_8">
    <path d="M 386.37192 264.96 
L 386.37192 43.2 
" style="fill: none; stroke: #000000; stroke-linejoin: miter; stroke-linecap: square"/>
   </g>
   <g id="patch_9">
    <path d="M 482.029063 264.96 
L 482.029063 43.2 
" style="fill: none; stroke: #000000; stroke-linejoin: miter; stroke-linecap: square"/>
   </g>
   <g id="patch_10">
    <path d="M 386.37192 264.96 
L 482.029063 264.96 
" style="fill: none; stroke: #000000; stroke-linejoin: miter; stroke-linecap: square"/>
   </g>
   <g id="patch_11">
    <path d="M 386.37192 43.2 
L 482.029063 43.2 
" style="fill: none; stroke: #000000; stroke-linejoin: miter; stroke-linecap: square"/>
   </g>
  </g>
  <g id="text_16">
   <!-- GaN -->
   <g transform="translate(252.46325 29.860875) scale(0.216 -0.216)">
    <defs>
     <path id="ArialMT-47" d="M 2638 1797 
L 2638 2334 
L 4578 2338 
L 4578 638 
Q 4131 281 3656 101 
Q 3181 -78 2681 -78 
Q 2006 -78 1454 211 
Q 903 500 622 1047 
Q 341 1594 341 2269 
Q 341 2938 620 3517 
Q 900 4097 1425 4378 
Q 1950 4659 2634 4659 
Q 3131 4659 3532 4498 
Q 3934 4338 4162 4050 
Q 4391 3763 4509 3300 
L 3963 3150 
Q 3859 3500 3706 3700 
Q 3553 3900 3268 4020 
Q 2984 4141 2638 4141 
Q 2222 4141 1919 4014 
Q 1616 3888 1430 3681 
Q 1244 3475 1141 3228 
Q 966 2803 966 2306 
Q 966 1694 1177 1281 
Q 1388 869 1791 669 
Q 2194 469 2647 469 
Q 3041 469 3416 620 
Q 3791 772 3984 944 
L 3984 1797 
L 2638 1797 
z
" transform="scale(0.015625)"/>
     <path id="ArialMT-4e" d="M 488 0 
L 488 4581 
L 1109 4581 
L 3516 984 
L 3516 4581 
L 4097 4581 
L 4097 0 
L 3475 0 
L 1069 3600 
L 1069 0 
L 488 0 
z
" transform="scale(0.015625)"/>
    </defs>
    <use xlink:href="#ArialMT-47"/>
    <use xlink:href="#ArialMT-61" x="77.783203"/>
    <use xlink:href="#ArialMT-4e" x="133.398438"/>
   </g>
  </g>
 </g>
 <defs>
  <clipPath id="peb8c6a4b1d">
   <rect x="80.269063" y="43.2" width="286.971429" height="221.76"/>
  </clipPath>
  <clipPath id="p5448181c7e">
   <rect x="386.37192" y="43.2" width="95.657143" height="221.76"/>
  </clipPath>
 </defs>
</svg>
